<svg xmlns="http://www.w3.org/2000/svg" xmlns:xlink="http://www.w3.org/1999/xlink" width="733.152" height="733.15" viewBox="0 0 733.152 733.15">
  <defs>
    <linearGradient id="linear-gradient" x1="0.5" x2="0.5" y2="1" gradientUnits="objectBoundingBox">
      <stop offset="0" stop-color="#0072ce"/>
      <stop offset="1" stop-color="#2fa0fb"/>
    </linearGradient>
    <linearGradient id="linear-gradient-2" x1="0.5" x2="0.5" y2="1" gradientUnits="objectBoundingBox">
      <stop offset="0" stop-color="#b6ddfc"/>
      <stop offset="1" stop-color="#2fa0fb"/>
    </linearGradient>
    <clipPath id="clip-path">
      <circle id="SVGID" cx="18.333" cy="18.333" r="18.333" transform="translate(0 35.676) rotate(-76.654)" fill="none"/>
    </clipPath>
    <clipPath id="clip-path-2">
      <circle id="SVGID-2" data-name="SVGID" cx="27.898" cy="27.898" r="27.898" fill="none"/>
    </clipPath>
    <clipPath id="clip-path-3">
      <circle id="SVGID-3" data-name="SVGID" cx="20.724" cy="20.724" r="20.724" transform="translate(0 40.909) rotate(-80.747)" fill="none"/>
    </clipPath>
    <clipPath id="clip-path-4">
      <circle id="SVGID-4" data-name="SVGID" cx="13.551" cy="13.551" r="13.551" fill="none"/>
    </clipPath>
    <clipPath id="clip-path-5">
      <path id="Path_32166" data-name="Path 32166" d="M417.219,325.773c-13.718-33.51-29.329-39.785-29.329-39.785s.488-.655,1.275-1.828a34.255,34.255,0,0,1,15.323,13.589.419.419,0,0,0,.725-.422,35.181,35.181,0,0,0-15.572-13.884c.335-.511.708-1.092,1.107-1.735a57.849,57.849,0,0,1,13.94,5c.483.237.908-.486.423-.725a59.327,59.327,0,0,0-13.9-5.028c8.492-13.958,26.74-52.412-26.694-56.812,3.323-3.63,7.953-5.915,12.54-7.547.5-.179.288-.99-.222-.807-4.591,1.634-9.154,3.857-12.567,7.4a43.042,43.042,0,0,1,2.191-6.89c.2-.5-.609-.718-.807-.223a42.12,42.12,0,0,0-2.333,7.554c-.833-.784-2.738-2.517-5.461-4.684a43.4,43.4,0,0,0-4.877-6.007c-9.108-9.391-21.893-12.535-34.655-11.3a.426.426,0,0,0-.376.31,34.065,34.065,0,0,0-22.735,8.218c-8.946,7.474-10.22,18.934-7.938,29.952.137,1.749.454,3.445.637,4.571,1.341,8.251,4.938,16,9.34,23.1-5.463.923-15.321,4.217-13.269,15.949,2.807,16.059,16.021,36.3.362,38.408s-23.2,37.963,32.242,71.441,108.16,1.779,86.288-24.741C402.877,368.85,430.939,359.283,417.219,325.773ZM289.328,247.489c2.849,8.2,7.271,15.533,11.358,19.945a23.147,23.147,0,0,0-2.531.22A67.37,67.37,0,0,1,289.328,247.489Zm63.383-33.62c.967,1.021,1.908,2.116,2.8,3.267-7.722-5.792-19.992-13.335-33.1-14.895C333.723,202,344.7,205.4,352.711,213.868Z" transform="translate(-272.961 -201.386)" fill="#4375f1"/>
    </clipPath>
    <clipPath id="clip-path-6">
      <path id="Path_32169" data-name="Path 32169" d="M336.883,273.224l-5.028-8.939s-14.585,1.442-19.885,7.625-38.919,67.7-38.919,67.7-14.561,6.914-26.547,12.809c2.988,1.864,6.42,5.279,8.375,11.913,10.518-3.8,24.282-9.6,29.254-13.164,0,0,32.459-24.849,35.992-41.633S336.883,273.224,336.883,273.224Z" transform="translate(-246.503 -264.285)" fill="#e2b187"/>
    </clipPath>
    <clipPath id="clip-path-7">
      <path id="Path_32173" data-name="Path 32173" d="M311.417,261.45s2.651,9.716-8.834,21.2L296.4,294.134l13.251,15.018,13.251,4.417,28.267-32.686-12.367-7.95-3.533-36.219Z" transform="translate(-296.4 -236.714)" fill="#edba8f"/>
    </clipPath>
    <clipPath id="clip-path-8">
      <path id="Path_32176" data-name="Path 32176" d="M318.34,262.513s5.246,15.028,31.748-4.405c0,0,16.516,8.812,21.04,11.575,10.054,6.145,12.191,5.118,14.84,14.835l-23.513,77.829,7.95,30.918-84.836.142,7.529-34.372a28.124,28.124,0,0,0-8.717-22.882c-12.125-11.727,4.138-31.135,16.923-66.471C302.361,266.762,318.34,262.513,318.34,262.513Z" transform="translate(-280.112 -258.108)" fill="#dc466f"/>
    </clipPath>
    <clipPath id="clip-path-9">
      <path id="Path_32182" data-name="Path 32182" d="M316.994,211.823s-24.578,18.435-21.341,46.793c1.48,12.96,4.408,17.014,9.611,20.8,6.144,4.469,26.622,1.686,31.968-8.629l2.824-8.37s5.011,4.488,10.065-2.2,3.975-17.305-3.306-12.3l4.52-13.391-4.427-11.749Z" transform="translate(-295.358 -211.823)" fill="#edba8f"/>
    </clipPath>
    <clipPath id="clip-path-10">
      <path id="Path_32195" data-name="Path 32195" d="M156.924,265.662l3.276,95.674a11.019,11.019,0,0,0,11.013,10.642H308.8a11.018,11.018,0,0,0,11.011-11.4l-3.276-95.676a11.019,11.019,0,0,0-11.013-10.64H167.935A11.018,11.018,0,0,0,156.924,265.662Z" transform="translate(-156.917 -254.267)" fill="#838bc0"/>
    </clipPath>
    <clipPath id="clip-path-11">
      <circle id="SVGID-5" data-name="SVGID" cx="116.239" cy="116.239" r="116.239" transform="translate(0 232.367) rotate(-88.237)" fill="url(#linear-gradient)"/>
    </clipPath>
    <clipPath id="clip-path-12">
      <path id="Path_32201" data-name="Path 32201" d="M131.114,158.853l-1.138,26.915,24.883,16.5a1.624,1.624,0,0,0,2.479-1.063l4.1-21.883-24.26-29.569Z" transform="translate(-129.976 -149.753)" fill="#e7b59d"/>
    </clipPath>
    <clipPath id="clip-path-13">
      <path id="Path_32215" data-name="Path 32215" d="M296.564,96.471H504.512a6.578,6.578,0,0,1,6.579,6.577v52.463a6.58,6.58,0,0,1-2.9,5.45L474.939,183.43a2.213,2.213,0,0,1-3.357-2.477L478.232,159H296.564a6.577,6.577,0,0,1-6.577-6.577V103.048A6.577,6.577,0,0,1,296.564,96.471Z" transform="translate(-289.987 -96.471)" fill="#9f71ac"/>
    </clipPath>
    <clipPath id="clip-path-14">
      <path id="Path_32222" data-name="Path 32222" d="M474.25,139.74H248.007a7.155,7.155,0,0,0-7.156,7.156v57.078A7.156,7.156,0,0,0,244,209.9l36.182,24.448a2.409,2.409,0,0,0,3.653-2.7L276.6,207.775H474.25a7.155,7.155,0,0,0,7.156-7.156V146.9A7.155,7.155,0,0,0,474.25,139.74Z" transform="translate(-240.851 -139.74)" fill="#e6b851"/>
    </clipPath>
    <clipPath id="clip-path-15">
      <circle id="SVGID-6" data-name="SVGID" cx="96.448" cy="96.448" r="96.448" transform="translate(0 136.398) rotate(-45)" fill="url(#linear-gradient-2)"/>
    </clipPath>
    <clipPath id="clip-path-16">
      <path id="Path_32227" data-name="Path 32227" d="M396.4,388.9c-7.319,16.792-20.236,30.57-30.14,17.223-7.381-9.95-1.6-23.49,1.815-29.74a130.264,130.264,0,0,1,20.823-4.706h9.823s5.82,0,13.088.464A35.139,35.139,0,0,0,396.4,388.9Z" transform="translate(-362.683 -371.674)" fill="#e7b59d"/>
    </clipPath>
    <clipPath id="clip-path-17">
      <path id="Path_32232" data-name="Path 32232" d="M401.109,331.549s-6.889-9.9-23.681-2.152-37.89,45.64-11.625,79.225c0,0,5.6-8.182,25.835-10.334S401.109,331.549,401.109,331.549Z" transform="translate(-353.407 -326.434)" fill="#a072ae"/>
    </clipPath>
    <clipPath id="clip-path-18">
      <path id="Path_32235" data-name="Path 32235" d="M396.655,360.412l1.053,24.907-23.028,15.272a1.5,1.5,0,0,1-2.294-.985l-3.8-20.25,22.45-27.363Z" transform="translate(-368.591 -351.993)" fill="#e7b59d"/>
    </clipPath>
    <clipPath id="clip-path-19">
      <path id="Path_32238" data-name="Path 32238" d="M357.462,370.008c.54-7.581,4.869-21.912,4.891-21.438.193-.924,2.291-10.547,6.3-12.55,4.21-2.1,21.749,3.508,21.749,5.614,0,1.673.892,13.53,6.892,18.682a9.521,9.521,0,0,0,5.737,2.365,12.112,12.112,0,0,1,9.135,5.172,121,121,0,0,1-12.643.442c-5.462,30.991-25.791,27.534-31.726,26.686C361.767,394.119,356.6,382.155,357.462,370.008Z" transform="translate(-357.367 -335.556)" fill="#e7b59d"/>
    </clipPath>
  </defs>
  <g id="Group_861" data-name="Group 861" transform="translate(-36.94 -25.028)">
    <g id="Group_811" data-name="Group 811" transform="translate(36.94 25.028)">
      <g id="Group_780" data-name="Group 780" transform="translate(106.563 106.561)">
        <path id="Path_32141" data-name="Path 32141" d="M359.9,608a260.013,260.013,0,1,1,183.858-76.156A258.312,258.312,0,0,1,359.9,608Zm0-519.3a259.287,259.287,0,1,0,183.344,75.944A257.583,257.583,0,0,0,359.9,88.7Z" transform="translate(-99.885 -87.972)" fill="#becbfc"/>
      </g>
      <g id="Group_781" data-name="Group 781" transform="translate(75.609 75.607)">
        <path id="Path_32142" data-name="Path 32142" d="M372.568,651.623A291.044,291.044,0,0,1,259.311,92.553a291.044,291.044,0,0,1,226.516,536.2A289.158,289.158,0,0,1,372.568,651.623Zm0-581.122A290.231,290.231,0,0,0,259.627,628.008,290.229,290.229,0,0,0,485.51,93.3,288.344,288.344,0,0,0,372.568,70.5Z" transform="translate(-81.601 -69.688)" fill="#becbfc"/>
      </g>
      <g id="Group_782" data-name="Group 782" transform="translate(160.992 160.99)">
        <path id="Path_32143" data-name="Path 32143" d="M337.619,531.29a204.949,204.949,0,1,1,80.023-16.156A204.307,204.307,0,0,1,337.619,531.29Zm0-410.593a204.358,204.358,0,1,0,79.8,16.11A203.732,203.732,0,0,0,337.619,120.7Z" transform="translate(-132.035 -120.122)" fill="#becbfc"/>
      </g>
      <g id="Group_783" data-name="Group 783" transform="translate(39.033 39.031)" opacity="0.38">
        <path id="Path_32144" data-name="Path 32144" d="M387.539,703.169A327.629,327.629,0,0,1,260.044,73.824a327.627,327.627,0,0,1,254.99,603.6A325.487,325.487,0,0,1,387.539,703.169Zm0-654.169A326.712,326.712,0,0,0,260.4,676.585,326.711,326.711,0,0,0,514.677,74.667,324.589,324.589,0,0,0,387.539,49Z" transform="translate(-59.996 -48.083)" fill="#becbfc"/>
      </g>
      <g id="Group_784" data-name="Group 784" opacity="0.18">
        <path id="Path_32145" data-name="Path 32145" d="M403.516,758.178A366.672,366.672,0,0,1,260.828,53.835,366.67,366.67,0,0,1,546.2,729.371,364.3,364.3,0,0,1,403.516,758.178Zm0-732.126A365.646,365.646,0,0,0,261.228,728.426,365.645,365.645,0,0,0,545.805,54.778,363.28,363.28,0,0,0,403.516,26.052Z" transform="translate(-36.94 -25.028)" fill="#becbfc"/>
      </g>
      <g id="Group_785" data-name="Group 785" transform="translate(28.135 28.134)">
        <path id="Path_32146" data-name="Path 32146" d="M392,718.529A338.53,338.53,0,0,1,260.264,68.242,338.528,338.528,0,0,1,523.737,691.931,336.312,336.312,0,0,1,392,718.529Zm0-675.936A337.583,337.583,0,0,0,260.631,691.059,337.582,337.582,0,0,0,523.368,69.114,335.385,335.385,0,0,0,392,42.592Z" transform="translate(-53.559 -41.646)" fill="#becbfc"/>
      </g>
      <g id="Group_791" data-name="Group 791" transform="translate(322.985 84.652)">
        <g id="Group_790" data-name="Group 790" transform="translate(0 0)" clip-path="url(#clip-path)">
          <g id="Group_786" data-name="Group 786" transform="translate(-7.64 -7.64)" opacity="0.8">
            <circle id="Ellipse_706" data-name="Ellipse 706" cx="24.772" cy="24.772" r="24.772" transform="matrix(0.225, -0.974, 0.974, 0.225, 0, 48.273)" fill="#becbfc"/>
          </g>
          <g id="Group_789" data-name="Group 789" transform="translate(7.444 8.211)">
            <g id="Group_787" data-name="Group 787" transform="translate(14.408 38.391)">
              <path id="Path_32147" data-name="Path 32147" d="M240.847,102.578l-.11-.02-.108.02Z" transform="translate(-240.629 -102.558)" fill="#4375fa"/>
            </g>
            <g id="Group_788" data-name="Group 788">
              <path id="Path_32148" data-name="Path 32148" d="M261.148,110.872c-.218-4.693-3.054-7.749-5.02-7.53a39.2,39.2,0,0,1-6.547-.437,5.389,5.389,0,0,1-.291-2.643c2.123-1.373,3.7-4.419,4.077-8.1a1.987,1.987,0,0,0,1.217-1.453c.291-.963.074-1.883-.486-2.05a.77.77,0,0,0-.635.115c.03-5.043-.139-8.9-6.714-8.9-6.213,0-6.674,3.8-6.7,8.793a.76.76,0,0,0-.572-.195c-.579.069-.953.936-.833,1.937s.689,1.752,1.27,1.683a.644.644,0,0,0,.208-.063c.339,3.592,1.82,6.594,3.841,8.057a5.578,5.578,0,0,1-.273,2.812,39.207,39.207,0,0,1-6.548.437c-1.964-.218-4.8,2.837-5.02,7.53-.207,4.458,13.175,7.143,14.514,7.4C247.974,118.015,261.357,115.33,261.148,110.872Z" transform="translate(-232.119 -79.881)" fill="#819fde"/>
            </g>
          </g>
        </g>
      </g>
      <g id="Group_797" data-name="Group 797" transform="translate(175.274 580.196)">
        <g id="Group_796" data-name="Group 796" clip-path="url(#clip-path-2)">
          <g id="Group_792" data-name="Group 792" transform="translate(-9.798 -9.798)" opacity="0.8">
            <circle id="Ellipse_707" data-name="Ellipse 707" cx="37.696" cy="37.696" r="37.696" fill="#cde3f5"/>
          </g>
          <g id="Group_795" data-name="Group 795" transform="translate(5.642 6.808)">
            <g id="Group_793" data-name="Group 793" transform="translate(21.924 58.422)">
              <path id="Path_32149" data-name="Path 32149" d="M157.086,406.3l-.166-.032-.166.032Z" transform="translate(-156.754 -406.27)" fill="#1b2e55"/>
            </g>
            <g id="Group_794" data-name="Group 794">
              <path id="Path_32150" data-name="Path 32150" d="M187.98,418.923c-.332-7.141-4.651-11.791-7.639-11.458s-9.965-.665-9.965-.665a8.22,8.22,0,0,1-.442-4.021c3.232-2.093,5.632-6.724,6.2-12.325a3.022,3.022,0,0,0,1.852-2.209c.444-1.466.112-2.863-.74-3.12a1.176,1.176,0,0,0-.967.174c.046-7.674-.21-13.539-10.215-13.539-9.457,0-10.158,5.785-10.2,13.381a1.16,1.16,0,0,0-.868-.3c-.884.107-1.451,1.427-1.268,2.947s1.046,2.668,1.93,2.561a1,1,0,0,0,.318-.095c.515,5.465,2.768,10.034,5.844,12.26a8.49,8.49,0,0,1-.413,4.28s-6.975,1-9.965.665-7.307,4.317-7.639,11.458c-.315,6.784,20.05,10.869,22.086,11.26C167.932,429.792,188.295,425.707,187.98,418.923Z" transform="translate(-143.804 -371.761)" fill="#1b2e55" opacity="0.47"/>
            </g>
          </g>
        </g>
      </g>
      <g id="Group_803" data-name="Group 803" transform="translate(625.757 275.035)">
        <g id="Group_802" data-name="Group 802" transform="translate(0 0)" clip-path="url(#clip-path-3)">
          <g id="Group_798" data-name="Group 798" transform="translate(-8.748 -8.748)" opacity="0.8">
            <circle id="Ellipse_708" data-name="Ellipse 708" cx="28.003" cy="28.003" r="28.003" transform="matrix(0.178, -0.984, 0.984, 0.178, 0, 55.113)" fill="#cde3f5"/>
          </g>
          <g id="Group_801" data-name="Group 801" transform="translate(7.255 8.121)">
            <g id="Group_799" data-name="Group 799" transform="translate(16.286 43.399)">
              <path id="Path_32151" data-name="Path 32151" d="M420.716,217.942l-.124-.024-.124.024Z" transform="translate(-420.469 -217.918)" fill="#4375fa"/>
            </g>
            <g id="Group_800" data-name="Group 800">
              <path id="Path_32152" data-name="Path 32152" d="M443.665,227.317c-.247-5.306-3.454-8.759-5.675-8.512a44.334,44.334,0,0,1-7.4-.493,6.111,6.111,0,0,1-.328-2.988c2.4-1.554,4.183-4.994,4.608-9.156a2.24,2.24,0,0,0,1.376-1.64c.33-1.09.083-2.128-.549-2.319a.887.887,0,0,0-.719.13c.034-5.7-.156-10.056-7.588-10.056-7.026,0-7.546,4.3-7.578,9.939a.867.867,0,0,0-.647-.22c-.655.08-1.077,1.06-.941,2.189s.777,1.982,1.434,1.9a.71.71,0,0,0,.235-.069c.383,4.06,2.057,7.454,4.342,9.108a6.309,6.309,0,0,1-.308,3.179,44.317,44.317,0,0,1-7.4.493c-2.219-.247-5.428,3.206-5.673,8.512-.235,5.038,14.893,8.074,16.406,8.365C428.772,235.391,443.9,232.355,443.665,227.317Z" transform="translate(-410.849 -192.283)" fill="#819fde"/>
            </g>
          </g>
        </g>
      </g>
      <g id="Group_804" data-name="Group 804" transform="translate(86.796 463.024)">
        <path id="Path_32153" data-name="Path 32153" d="M105.745,307.3a8.768,8.768,0,1,1-8.768-8.768A8.767,8.767,0,0,1,105.745,307.3Z" transform="translate(-88.209 -298.528)" fill="#819fde"/>
      </g>
      <g id="Group_805" data-name="Group 805" transform="translate(648.748 379.329)">
        <path id="Path_32154" data-name="Path 32154" d="M437.68,257.859a8.768,8.768,0,1,1-8.768-8.768A8.768,8.768,0,0,1,437.68,257.859Z" transform="translate(-420.144 -249.091)" fill="#819fde"/>
      </g>
      <g id="Group_806" data-name="Group 806" transform="translate(441.609 82.118)">
        <path id="Path_32155" data-name="Path 32155" d="M307.541,82.424a5.474,5.474,0,1,1-.86-7.693A5.473,5.473,0,0,1,307.541,82.424Z" transform="translate(-297.791 -73.534)" fill="#819fde"/>
      </g>
      <g id="Group_807" data-name="Group 807" transform="translate(412.116 615.372)">
        <path id="Path_32156" data-name="Path 32156" d="M291.239,393.065a5.474,5.474,0,1,1-6.321-4.468A5.473,5.473,0,0,1,291.239,393.065Z" transform="translate(-280.37 -388.518)" fill="#819fde"/>
      </g>
      <g id="Group_808" data-name="Group 808" transform="translate(314.871 695.879)">
        <path id="Path_32157" data-name="Path 32157" d="M233.8,440.619a5.474,5.474,0,1,1-6.322-4.468A5.475,5.475,0,0,1,233.8,440.619Z" transform="translate(-222.929 -436.072)" fill="#819fde"/>
      </g>
      <g id="Group_809" data-name="Group 809" transform="translate(693.49 424.07)">
        <path id="Path_32158" data-name="Path 32158" d="M457.442,280.066a5.474,5.474,0,1,1-6.321-4.468A5.475,5.475,0,0,1,457.442,280.066Z" transform="translate(-446.573 -275.519)" fill="#819fde"/>
      </g>
      <g id="Group_810" data-name="Group 810" transform="translate(141.104 101.247)">
        <path id="Path_32159" data-name="Path 32159" d="M131.157,89.382a5.474,5.474,0,1,1-6.321-4.469A5.474,5.474,0,0,1,131.157,89.382Z" transform="translate(-120.288 -84.833)" fill="#819fde"/>
      </g>
    </g>
    <g id="Group_817" data-name="Group 817" transform="translate(53.592 327.835)">
      <g id="Group_816" data-name="Group 816" clip-path="url(#clip-path-4)">
        <g id="Group_812" data-name="Group 812" transform="translate(-4.759 -4.759)" opacity="0.8">
          <circle id="Ellipse_709" data-name="Ellipse 709" cx="18.309" cy="18.309" r="18.309" fill="#becbfc"/>
        </g>
        <g id="Group_815" data-name="Group 815" transform="translate(2.741 3.307)">
          <g id="Group_813" data-name="Group 813" transform="translate(10.649 28.377)">
            <path id="Path_32160" data-name="Path 32160" d="M54.846,222.621l-.08-.015-.081.015Z" transform="translate(-54.685 -222.606)" fill="#4375fa"/>
          </g>
          <g id="Group_814" data-name="Group 814">
            <path id="Path_32161" data-name="Path 32161" d="M69.852,228.751c-.161-3.469-2.258-5.727-3.709-5.565a29.032,29.032,0,0,1-4.84-.323,3.975,3.975,0,0,1-.215-1.954c1.569-1.016,2.736-3.266,3.013-5.985a1.466,1.466,0,0,0,.9-1.073c.217-.713.056-1.392-.359-1.517a.577.577,0,0,0-.469.085c.022-3.726-.1-6.575-4.962-6.575-4.593,0-4.933,2.81-4.955,6.5a.556.556,0,0,0-.422-.142c-.43.051-.706.691-.616,1.431s.51,1.3.938,1.244a.453.453,0,0,0,.154-.047,8.318,8.318,0,0,0,2.839,5.956,4.123,4.123,0,0,1-.2,2.079,29.024,29.024,0,0,1-4.838.323c-1.453-.163-3.55,2.1-3.711,5.565-.152,3.294,9.738,5.279,10.728,5.47C60.114,234.03,70.006,232.046,69.852,228.751Z" transform="translate(-48.395 -205.844)" fill="#819fde"/>
          </g>
        </g>
      </g>
    </g>
    <path id="Path_32162" data-name="Path 32162" d="M589.562,342.755c0-130.865-106.088-236.955-236.955-236.955S115.653,211.889,115.653,342.755A235.986,235.986,0,0,0,169.538,493.2H535.677A235.976,235.976,0,0,0,589.562,342.755Z" transform="translate(54.545 55.971)" fill="#e5f1fa" opacity="0.8"/>
    <g id="Group_832" data-name="Group 832" transform="translate(210.067 323.594)">
      <g id="Group_819" data-name="Group 819" transform="translate(226.447)">
        <path id="Path_32163" data-name="Path 32163" d="M417.219,325.773c-13.718-33.51-29.329-39.785-29.329-39.785s.488-.655,1.275-1.828a34.255,34.255,0,0,1,15.323,13.589.419.419,0,0,0,.725-.422,35.181,35.181,0,0,0-15.572-13.884c.335-.511.708-1.092,1.107-1.735a57.849,57.849,0,0,1,13.94,5c.483.237.908-.486.423-.725a59.327,59.327,0,0,0-13.9-5.028c8.492-13.958,26.74-52.412-26.694-56.812,3.323-3.63,7.953-5.915,12.54-7.547.5-.179.288-.99-.222-.807-4.591,1.634-9.154,3.857-12.567,7.4a43.042,43.042,0,0,1,2.191-6.89c.2-.5-.609-.718-.807-.223a42.12,42.12,0,0,0-2.333,7.554c-.833-.784-2.738-2.517-5.461-4.684a43.4,43.4,0,0,0-4.877-6.007c-9.108-9.391-21.893-12.535-34.655-11.3a.426.426,0,0,0-.376.31,34.065,34.065,0,0,0-22.735,8.218c-8.946,7.474-10.22,18.934-7.938,29.952.137,1.749.454,3.445.637,4.571,1.341,8.251,4.938,16,9.34,23.1-5.463.923-15.321,4.217-13.269,15.949,2.807,16.059,16.021,36.3.362,38.408s-23.2,37.963,32.242,71.441,108.16,1.779,86.288-24.741C402.877,368.85,430.939,359.283,417.219,325.773ZM289.328,247.489c2.849,8.2,7.271,15.533,11.358,19.945a23.147,23.147,0,0,0-2.531.22A67.37,67.37,0,0,1,289.328,247.489Zm63.383-33.62c.967,1.021,1.908,2.116,2.8,3.267-7.722-5.792-19.992-13.335-33.1-14.895C333.723,202,344.7,205.4,352.711,213.868Z" transform="translate(-272.961 -201.386)" fill="#1b2e55" opacity="0.67"/>
        <g id="Group_818" data-name="Group 818" clip-path="url(#clip-path-5)">
          <path id="Path_32164" data-name="Path 32164" d="M365.63,260.772s-6.047,3.078-7.4,5.844,1.441,20.085,1.441,20.085l35.191,27.929s9.5,72.618-13.965,92.168-110.042-68.707-110.042-68.707l24.578-31.281,22.9-7.263,3.911-16.757s-24.57-11.634-4.745-51.622h0l48.131,29.6" transform="translate(-274.422 -193.062)" fill="#507cc7" opacity="0.4" style="mix-blend-mode: multiply;isolation: isolate"/>
          <path id="Path_32165" data-name="Path 32165" d="M305.579,220.971l-12.289-2.219s4.468,6.7,16.757,3.911-4.468-1.691-4.468-1.691" transform="translate(-258.874 -189.352)" fill="#4375f1" opacity="0.5" style="mix-blend-mode: multiply;isolation: isolate"/>
        </g>
      </g>
      <g id="Group_821" data-name="Group 821" transform="translate(181.654 106.486)">
        <path id="Path_32167" data-name="Path 32167" d="M336.883,273.224l-5.028-8.939s-14.585,1.442-19.885,7.625-38.919,67.7-38.919,67.7-14.561,6.914-26.547,12.809c2.988,1.864,6.42,5.279,8.375,11.913,10.518-3.8,24.282-9.6,29.254-13.164,0,0,32.459-24.849,35.992-41.633S336.883,273.224,336.883,273.224Z" transform="translate(-246.503 -264.285)" fill="#e2b187"/>
        <g id="Group_820" data-name="Group 820" clip-path="url(#clip-path-6)">
          <path id="Path_32168" data-name="Path 32168" d="M282.832,325.572s-13.407-10.613,7.261-37.983c18.839-24.951,15.641,7.82,15.641,7.82l-13.759,29.967Z" transform="translate(-224.291 -254.63)" fill="#e2b187" opacity="0.31" style="mix-blend-mode: multiply;isolation: isolate"/>
        </g>
      </g>
      <path id="Path_32170" data-name="Path 32170" d="M273.652,316.342c-14.974,7.366-32.036,15.76-33.016,16.251-1.767.884-15.9-3.533-17.668-2.65s-11.483,6.184-15.018,7.066,8.834,2.651,14.134,0,7.066,2.651,11.483,3.535,7.068,1.766,9.718,0c0,0,20.383-5.655,38.742-12.289C280.071,321.621,276.64,318.206,273.652,316.342Z" transform="translate(-91.998 -121.726)" fill="#e2b187"/>
      <g id="Group_823" data-name="Group 823" transform="translate(266.128 59.809)">
        <path id="Path_32171" data-name="Path 32171" d="M311.417,261.45s2.651,9.716-8.834,21.2L296.4,294.134l13.251,15.018,13.251,4.417,28.267-32.686-12.367-7.95-3.533-36.219Z" transform="translate(-296.4 -236.714)" fill="#edba8f"/>
        <g id="Group_822" data-name="Group 822" clip-path="url(#clip-path-7)">
          <path id="Path_32172" data-name="Path 32172" d="M304.257,263.621s24.578-1.117,25.137-16.2S301.464,257.475,304.257,263.621Z" transform="translate(-291.089 -232.584)" fill="#af703f" opacity="0.28" style="mix-blend-mode: multiply;isolation: isolate"/>
        </g>
      </g>
      <g id="Group_825" data-name="Group 825" transform="translate(238.553 96.028)">
        <path id="Path_32174" data-name="Path 32174" d="M318.34,262.513s5.246,15.028,31.748-4.405c0,0,16.516,8.812,21.04,11.575,10.054,6.145,12.191,5.118,14.84,14.835l-23.513,77.829,7.95,30.918-84.836.142,7.529-34.372a28.124,28.124,0,0,0-8.717-22.882c-12.125-11.727,4.138-31.135,16.923-66.471C302.361,266.762,318.34,262.513,318.34,262.513Z" transform="translate(-280.112 -258.108)" fill="#82ca21"/>
        <g id="Group_824" data-name="Group 824" clip-path="url(#clip-path-8)">
          <path id="Path_32175" data-name="Path 32175" d="M364.215,282.1s-15.081,19.55-13.4,56.976c0,0-46.522,16.015-66.272,14.989s2.592,13.5,2.592,13.5,55.859,4.249,81.555-13.517-4.469-71.947-4.469-71.947" transform="translate(-282.696 -241.481)" fill="#a172ae" opacity="0.31" style="mix-blend-mode: multiply;isolation: isolate"/>
        </g>
      </g>
      <path id="Path_32177" data-name="Path 32177" d="M304.734,332.548l-21.871-9.3-9.123-6.851a2.9,2.9,0,0,0-2.011-.571l-10.527.957a2.3,2.3,0,0,0-1.173.454c-1.842,1.4-7.816,6.012-6.318,6.012a16.77,16.77,0,0,0,7.952-2.651s7.95,0,8.834-.884c0,0,3.533,3.535,5.3,4.417s.884,0,.884,0l-11.827,3.6a2.8,2.8,0,0,0-1.5,1.1c-1.488,2.16-5.56,8.011-6.992,9.443,0,0,4.417,1.767,7.95-3.533s13.251-5.3,14.134-4.417c0,0-12.367,7.066-15.9,14.135,0,0,1.671,4.342,4.417.882,5.324-6.7,12.315-8.8,15.018-9.716l-5.033,5.751a1.732,1.732,0,0,0,.176,2.453l4.857,4.163s.884-3.533-.884-5.3l4.417-4.417s4.876,9.714,19.222,3.973Z" transform="translate(-60.02 -122.094)" fill="#edba8f"/>
      <path id="Path_32178" data-name="Path 32178" d="M322.9,321.593c-18.856,3.936-40.038,7.182-40.038,7.182l.381,9.431a280.609,280.609,0,0,0,47.139-2.585A17.791,17.791,0,0,0,322.9,321.593Z" transform="translate(-39.651 -118.087)" fill="#edba8f"/>
      <path id="Path_32179" data-name="Path 32179" d="M364,269.151c-11.417-4.95-21.065,22.266-21.065,22.266-12.367,25.618-9.381,59.277-9.381,59.277-4.107,2.4-15.11,5.163-27.042,7.656A17.791,17.791,0,0,1,314,372.378c25.45-3.772,36.346-10.2,36.346-10.2C360.943,346.277,375.419,274.1,364,269.151Z" transform="translate(-23.262 -154.844)" fill="#edba8f"/>
      <g id="Group_827" data-name="Group 827" transform="translate(264.364 17.67)">
        <path id="Path_32180" data-name="Path 32180" d="M316.994,211.823s-24.578,18.435-21.341,46.793c1.48,12.96,4.408,17.014,9.611,20.8,6.144,4.469,26.622,1.686,31.968-8.629l2.824-8.37s5.011,4.488,10.065-2.2,3.975-17.305-3.306-12.3l4.52-13.391-4.427-11.749Z" transform="translate(-295.358 -211.823)" fill="#edba8f"/>
        <g id="Group_826" data-name="Group 826" clip-path="url(#clip-path-9)">
          <path id="Path_32181" data-name="Path 32181" d="M298.312,229.552s9.233,3.779,17.613-12.421c0,0,2.233,26.254,19.55,25.7l-5.028-4.469s1.991,18.435,13.564,11.73-23.618-41.894-23.618-41.894L296.9,216.572l1.412,12.98" transform="translate(-294.29 -214.338)" fill="#af703f" opacity="0.28" style="mix-blend-mode: multiply;isolation: isolate"/>
        </g>
      </g>
      <path id="Path_32183" data-name="Path 32183" d="M354.218,225.255l-17.874-8.937-25.137-6.144s-30.722,10.613-16.757,16.757c12.254,5.392,22.786-6.85,25.183-9.929-.247,3.8.091,9.775,3.6,14.884,3.012,4.381,7.767,7.337,14.158,8.822-.306,8.676,10.124,10.242,10.124,10.242l4.469-3.352,8.937-2.792ZM323.7,231.573a20.828,20.828,0,0,1-3.377-9.355c2.722,10.349,17.141,17.561,17.141,17.561-.015.125-.019.244-.029.367C331.224,238.687,326.613,235.816,323.7,231.573Z" transform="translate(-34.146 -195.296)" fill="#4d525b"/>
      <path id="Path_32184" data-name="Path 32184" d="M318.366,208.464s6.7-3.044,13.407,10.363c0,0,8.378,19.55,0,37.426H330.1S333.448,223.24,318.366,208.464Z" transform="translate(-15.051 -196.687)" fill="#43464a"/>
      <circle id="Ellipse_710" data-name="Ellipse 710" cx="7.82" cy="7.82" r="7.82" transform="translate(308.901 53.42)" fill="#c22373"/>
      <path id="Path_32185" data-name="Path 32185" d="M310.766,235.207c-.449,1.8-1.3,3.13-1.9,2.981s-.721-1.727-.273-3.523,1.3-3.13,1.894-2.981S311.213,233.41,310.766,235.207Z" transform="translate(-22.007 -180.398)" fill="#43464a"/>
      <path id="Path_32186" data-name="Path 32186" d="M301.8,233.409c-.151,1.845-.772,3.3-1.386,3.249s-.99-1.586-.84-3.432.772-3.3,1.387-3.249S301.953,231.564,301.8,233.409Z" transform="translate(-28.096 -181.574)" fill="#43464a"/>
      <path id="Path_32187" data-name="Path 32187" d="M299.889,247.539a19.8,19.8,0,0,0,18.433-5.162s0,9.586-13.271,11.06C305.051,253.437,302.838,253.437,299.889,247.539Z" transform="translate(-27.855 -172.981)" fill="#fff"/>
      <path id="Path_32188" data-name="Path 32188" d="M299.011,227.973a3.613,3.613,0,0,1,.733-1.41,3.462,3.462,0,0,1,1.354-.98,2.859,2.859,0,0,1,1.679-.271,3.074,3.074,0,0,1,.789.295,2.679,2.679,0,0,1,.654.549l-.039.107a3.525,3.525,0,0,1-.8.118c-.247.042-.481.037-.7.058a5.282,5.282,0,0,1-.655-.005,2.371,2.371,0,0,0-.657.014,3.265,3.265,0,0,0-1.239.532,3.734,3.734,0,0,0-1.011,1.036Z" transform="translate(-28.463 -184.838)" fill="#4375f1"/>
      <path id="Path_32189" data-name="Path 32189" d="M314.447,227.973a3.612,3.612,0,0,0-.733-1.41,3.474,3.474,0,0,0-1.354-.98,2.859,2.859,0,0,0-1.679-.271,3.074,3.074,0,0,0-.789.295,2.679,2.679,0,0,0-.654.549l.039.107a3.5,3.5,0,0,0,.8.118c.247.042.481.037.7.058a5.251,5.251,0,0,0,.654-.005,2.383,2.383,0,0,1,.659.014,3.259,3.259,0,0,1,1.238.532,3.717,3.717,0,0,1,1.012,1.036Z" transform="translate(-21.376 -184.838)" fill="#4375f1"/>
      <path id="Path_32190" data-name="Path 32190" d="M305.117,246.773s-7.639-2.937-5.876-4.114c1.4-.931,4.64-5.924,5.925-8.832a.376.376,0,0,1,.72.119C306.13,236.957,306.394,242.944,305.117,246.773Z" transform="translate(-28.487 -179.063)" fill="#e79d90"/>
      <g id="Group_829" data-name="Group 829" transform="translate(279.854 57.889)">
        <circle id="Ellipse_711" data-name="Ellipse 711" cx="3.352" cy="3.352" r="3.352" transform="translate(33.515)" fill="#43464a"/>
        <g id="Group_828" data-name="Group 828" transform="translate(4.469 5.027)">
          <path id="Path_32191" data-name="Path 32191" d="M332.405,253.073H307.148v-1.293h24.588c1.012-1.95,6.259-12.084,6.772-13.23l1.038.579c-.581,1.3-6.713,13.119-6.973,13.622Z" transform="translate(-307.148 -238.549)" fill="#43464a"/>
        </g>
        <ellipse id="Ellipse_712" data-name="Ellipse 712" cx="3.352" cy="1.397" rx="3.352" ry="1.397" transform="translate(0 17.316)" fill="#43464a"/>
      </g>
      <path id="Path_32192" data-name="Path 32192" d="M529.1,343.3H144.231a5.027,5.027,0,0,1-5.028-5.026h0a5.029,5.029,0,0,1,5.028-5.028H529.1a5.029,5.029,0,0,1,5.028,5.028h0A5.027,5.027,0,0,1,529.1,343.3Z" transform="translate(-139.203 -110.013)" fill="#677185"/>
      <g id="Group_831" data-name="Group 831" transform="translate(29.989 89.526)">
        <path id="Path_32193" data-name="Path 32193" d="M156.924,265.662l3.276,95.674a11.019,11.019,0,0,0,11.013,10.642H308.8a11.018,11.018,0,0,0,11.011-11.4l-3.276-95.676a11.019,11.019,0,0,0-11.013-10.64H167.935A11.018,11.018,0,0,0,156.924,265.662Z" transform="translate(-156.917 -254.267)" fill="#677185"/>
        <g id="Group_830" data-name="Group 830" clip-path="url(#clip-path-10)">
          <path id="Path_32194" data-name="Path 32194" d="M235.139,300.582s-10.613,41.337,0,53.067-58.652-4.469-58.652-4.469,9.5-34.074,35.75-48.6h0l12.289,7.821,10.613-7.821" transform="translate(-143.356 -226.645)" fill="#838bc0" opacity="0.61" style="mix-blend-mode: multiply;isolation: isolate"/>
        </g>
      </g>
      <path id="Path_32196" data-name="Path 32196" d="M209.7,297.94h22.9s-34.633,55.859-3.631,59.77H181.209S171.713,335.366,209.7,297.94Z" transform="translate(-110.826 -134.478)" fill="#677185"/>
      <path id="Path_32197" data-name="Path 32197" d="M207.048,276.214a10.066,10.066,0,0,1,.471-3.047c-.156-.007-.313-.012-.471-.012a11.8,11.8,0,1,0,11.737,12.963,10.043,10.043,0,0,1-11.737-9.9Z" transform="translate(-100.364 -151.653)" fill="#fff"/>
    </g>
    <g id="Group_839" data-name="Group 839" transform="translate(90.608 142.58)">
      <circle id="SVGID-7" data-name="SVGID" cx="116.239" cy="116.239" r="116.239" transform="translate(0 232.367) rotate(-88.237)" fill="#819fde"/>
      <g id="Group_838" data-name="Group 838" transform="translate(0 0)" clip-path="url(#clip-path-11)">
        <circle id="Ellipse_713" data-name="Ellipse 713" cx="141.611" cy="141.611" r="141.611" transform="translate(-80.509 119.76) rotate(-45)" fill="#e7eef5"/>
        <g id="Group_837" data-name="Group 837" transform="translate(50.042 29.783)">
          <path id="Path_32198" data-name="Path 32198" d="M155.786,171.026s-30.326,0-40.941,5.307S98.925,195.286,101.2,204.386s-9.856,31.843,3.034,43.973c11.573,10.894,20.7,9.558,24.641,8.075a12.051,12.051,0,0,0,1.136-.493c3.032-1.517,0,40.182,0,40.182s76.574,4.549,81.123,0,6.066-100.079-4.549-110.692S166.4,171.026,166.4,171.026Z" transform="translate(-98.2 -71.192)" fill="#82ca21" opacity="0.93"/>
          <g id="Group_834" data-name="Group 834" transform="translate(53.796 63.819)">
            <path id="Path_32199" data-name="Path 32199" d="M131.114,158.853l-1.138,26.915,24.883,16.5a1.624,1.624,0,0,0,2.479-1.063l4.1-21.883-24.26-29.569Z" transform="translate(-129.976 -149.753)" fill="#e7b59d"/>
            <g id="Group_833" data-name="Group 833" clip-path="url(#clip-path-12)">
              <path id="Path_32200" data-name="Path 32200" d="M130.148,172.291s3.792,3.032,6.824,0c0,0,17.437,29.567,32.6,24.262s-15.922-29.569-15.922-29.569L137.77,154.977l-9.137,6.7Z" transform="translate(-130.907 -146.133)" fill="#e7b59d" opacity="0.45" style="mix-blend-mode: multiply;isolation: isolate"/>
            </g>
          </g>
          <path id="Path_32202" data-name="Path 32202" d="M142.8,175.119c12.13-.758,13.647-20.471,13.647-22.745s18.954-8.341,23.5-6.066c4.329,2.164,5.477,16.059,5.685,17.058,6.665-4.034,12.508-18.43,9.477-26.915-3.791-10.615-8.34-6.824-11.372-4.549s-3.034-8.34-18.954-17.437,2.274,10.613-16.679,9.1S127.638,141,127.638,141c-9.856,0-16.679,8.339-9.1,16.681s1.517,9.1,0,16.679c-.791,3.955,6.873,5.639,14.39,6.347A13.078,13.078,0,0,1,142.8,175.119Z" transform="translate(-86.351 -112.056)" fill="#1b2e55"/>
          <path id="Path_32203" data-name="Path 32203" d="M148.717,172.676c13.948,6.064,26.918-.963,31.553-4.021-3.367-5.343-6.271-10.7-6.533-15.69a38.83,38.83,0,0,0-.965-6.792c.063-.037.125-.078.19-.117-.21-1-2.477-11.4-6.806-13.562-4.549-2.275-23.5,3.791-23.5,6.066,0,1.806-.965,14.62-7.447,20.189A25.911,25.911,0,0,0,148.717,172.676Z" transform="translate(-72.556 -98.242)" fill="#e7b59d"/>
          <path id="Path_32204" data-name="Path 32204" d="M186.849,157.7c-4.635,3.057-17.605,10.085-31.553,4.021A25.911,25.911,0,0,1,141.784,147.8a10.3,10.3,0,0,1-6.2,2.556,13.079,13.079,0,0,0-9.872,5.588,130.781,130.781,0,0,0,13.662.476c3.79,43.216,49.28,40.184,56.863,28.811C201.192,177.8,193.2,167.775,186.849,157.7Z" transform="translate(-79.134 -87.29)" fill="#1b2e55"/>
          <rect id="Rectangle_2765" data-name="Rectangle 2765" width="34.876" height="17.908" transform="translate(66.938 78.181) rotate(-176.82)" fill="#61002f"/>
          <path id="Path_32205" data-name="Path 32205" d="M116.317,181.153s0-23.5,3.791-26.537,12.89-14.4,17.439-11.372,2.274,4.549,5.307,6.066,1.515,3.79,3.791,5.306,5.307,7.583,3.791,7.583h-6.824S133,181.912,128.449,181.153l-.758,3.032H116.317Z" transform="translate(-85.645 -90.797)" fill="#e7b59d"/>
          <path id="Path_32206" data-name="Path 32206" d="M133.883,169.788s1.517,75.059-5.307,79.608-25.02-.758-21.228-15.921,17.437-70.51,17.437-70.51Z" transform="translate(-92.217 -76.778)" fill="#e7b59d"/>
          <path id="Path_32207" data-name="Path 32207" d="M143.411,158.934s13.264,3.978,19.323,2.634a.62.62,0,0,1,.718.818c-.659,1.842-1.845,5.309-1.845,6.4C161.607,170.307,147.96,168.032,143.411,158.934Z" transform="translate(-66.87 -79.572)" fill="#effdff"/>
          <path id="Path_32208" data-name="Path 32208" d="M152.322,145.5s17.71,10.649,12.909,15.235-8.517,3.86-8.517,3.86S150.521,148.2,152.322,145.5Z" transform="translate(-60.923 -88.881)" fill="#e19f9d"/>
          <path id="Path_32209" data-name="Path 32209" d="M143.416,149.493a4.3,4.3,0,0,1,.762-2.743,3.63,3.63,0,0,1,2.705-1.529,4.942,4.942,0,0,1,2.88.8,10.292,10.292,0,0,1,1.105.879,9.833,9.833,0,0,1,.889,1.082,11.312,11.312,0,0,1-1.292-.454c-.406-.166-.828-.267-1.212-.428a6.546,6.546,0,0,0-2.262-.362,3.291,3.291,0,0,0-1.925.806A9.958,9.958,0,0,0,143.416,149.493Z" transform="translate(-66.875 -89.084)" fill="#9a6253"/>
          <path id="Path_32210" data-name="Path 32210" d="M160.674,144.285a3.464,3.464,0,0,0-1.5-1.742,2.932,2.932,0,0,0-2.5-.186,4,4,0,0,0-1.83,1.574,8.2,8.2,0,0,0-.5,1.024,7.526,7.526,0,0,0-.278,1.1,9.246,9.246,0,0,0,.787-.775c.24-.261.513-.483.738-.731a5.329,5.329,0,0,1,1.529-1.045,2.669,2.669,0,0,1,1.685-.075A8.063,8.063,0,0,1,160.674,144.285Z" transform="translate(-59.494 -91.196)" fill="#9a6253"/>
          <g id="Group_835" data-name="Group 835" transform="translate(70.313 46.074)">
            <path id="Path_32211" data-name="Path 32211" d="M142,147.732a8.281,8.281,0,0,1,1.436-3.462c1.943-2.736,5.106-3.08,8.2-2.455,1.436.29,1.747-1.964.317-2.253-3.664-.738-7.464-.168-9.951,2.839a10.553,10.553,0,0,0-2.257,5.015,1.138,1.138,0,0,0,2.253.317Z" transform="translate(-139.733 -139.271)" fill="#2e5271"/>
          </g>
          <g id="Group_836" data-name="Group 836" transform="translate(90.553 42.065)">
            <path id="Path_32212" data-name="Path 32212" d="M153.156,139.932a6.765,6.765,0,0,1,2.859-1.107c2.714-.4,4.7,1.278,6.084,3.46.64,1.012,2.148-.076,1.51-1.085-1.634-2.583-4.117-4.508-7.3-4.278a8.621,8.621,0,0,0-4.239,1.5.93.93,0,0,0,1.085,1.51Z" transform="translate(-151.688 -136.903)" fill="#2e5271"/>
          </g>
        </g>
      </g>
    </g>
    <g id="Group_842" data-name="Group 842" transform="translate(465.337 145.978)">
      <g id="Group_841" data-name="Group 841">
        <path id="Path_32213" data-name="Path 32213" d="M296.564,96.471H504.512a6.578,6.578,0,0,1,6.579,6.577v52.463a6.58,6.58,0,0,1-2.9,5.45L474.939,183.43a2.213,2.213,0,0,1-3.357-2.477L478.232,159H296.564a6.577,6.577,0,0,1-6.577-6.577V103.048A6.577,6.577,0,0,1,296.564,96.471Z" transform="translate(-289.987 -96.471)" fill="#82ca21"/>
        <g id="Group_840" data-name="Group 840" clip-path="url(#clip-path-13)">
          <path id="Path_32214" data-name="Path 32214" d="M394.831,139.536l7.37-6.142h21.5L396.06,148.748Z" transform="translate(-217.335 -70.885)" fill="#606060" opacity="0.22" style="mix-blend-mode: multiply;isolation: isolate"/>
        </g>
      </g>
      <path id="Path_32216" data-name="Path 32216" d="M305.971,108.65H479.8a2.791,2.791,0,0,0,2.792-2.792h0a2.791,2.791,0,0,0-2.792-2.792H305.971a2.791,2.791,0,0,0-2.792,2.792h0A2.791,2.791,0,0,0,305.971,108.65Z" transform="translate(-280.846 -91.9)" fill="#fff"/>
      <path id="Path_32217" data-name="Path 32217" d="M305.971,117.005H479.8a2.792,2.792,0,0,0,2.792-2.792h0a2.791,2.791,0,0,0-2.792-2.792H305.971a2.791,2.791,0,0,0-2.792,2.792h0A2.792,2.792,0,0,0,305.971,117.005Z" transform="translate(-280.846 -86.111)" fill="#fff"/>
      <rect id="Rectangle_2766" data-name="Rectangle 2766" width="89.707" height="5.583" rx="1.166" transform="translate(201.747 45.039) rotate(180)" fill="#fff"/>
    </g>
    <g id="Group_843" data-name="Group 843" transform="translate(383.194 664.854)">
      <path id="Path_32218" data-name="Path 32218" d="M244.325,402.962h43.3a2.861,2.861,0,0,1,2.861,2.861v22.818a2.864,2.864,0,0,1-1.26,2.372l-14.465,9.773a.964.964,0,0,1-1.461-1.078l2.893-9.547H244.325a2.86,2.86,0,0,1-2.859-2.861V405.823A2.859,2.859,0,0,1,244.325,402.962Z" transform="translate(-241.466 -402.962)" fill="#1b2e55"/>
    </g>
    <g id="Group_844" data-name="Group 844" transform="translate(692.465 241.039)">
      <path id="Path_32219" data-name="Path 32219" d="M425.892,152.622h26.4a1.743,1.743,0,0,1,1.744,1.744V168.28a1.746,1.746,0,0,1-.769,1.446l-8.819,5.959a.587.587,0,0,1-.891-.657l1.764-5.822h-19.43a1.745,1.745,0,0,1-1.745-1.744v-13.1A1.745,1.745,0,0,1,425.892,152.622Z" transform="translate(-424.147 -152.622)" fill="#819fde"/>
    </g>
    <g id="Group_847" data-name="Group 847" transform="translate(382.152 219.23)">
      <g id="Group_846" data-name="Group 846">
        <path id="Path_32220" data-name="Path 32220" d="M474.25,139.74H248.007a7.155,7.155,0,0,0-7.156,7.156v57.078A7.156,7.156,0,0,0,244,209.9l36.182,24.448a2.409,2.409,0,0,0,3.653-2.7L276.6,207.775H474.25a7.155,7.155,0,0,0,7.156-7.156V146.9A7.155,7.155,0,0,0,474.25,139.74Z" transform="translate(-240.851 -139.74)" fill="#82ca21"/>
        <g id="Group_845" data-name="Group 845" clip-path="url(#clip-path-14)">
          <path id="Path_32221" data-name="Path 32221" d="M281.73,186.594l-8.018-6.682H250.324l30.069,16.705Z" transform="translate(-234.287 -111.903)" fill="#e6b851" opacity="0.22" style="mix-blend-mode: multiply;isolation: isolate"/>
        </g>
      </g>
      <path id="Path_32223" data-name="Path 32223" d="M445.452,152.99H256.327a3.037,3.037,0,0,1-3.037-3.037h0a3.037,3.037,0,0,1,3.037-3.037H445.452a3.038,3.038,0,0,1,3.037,3.037h0A3.038,3.038,0,0,1,445.452,152.99Z" transform="translate(-232.231 -134.767)" fill="#fff"/>
      <path id="Path_32224" data-name="Path 32224" d="M445.452,162.08H256.327a3.037,3.037,0,0,1-3.037-3.037h0a3.037,3.037,0,0,1,3.037-3.037H445.452a3.038,3.038,0,0,1,3.037,3.037h0A3.038,3.038,0,0,1,445.452,162.08Z" transform="translate(-232.231 -128.468)" fill="#fff"/>
      <rect id="Rectangle_2767" data-name="Rectangle 2767" width="97.599" height="6.075" rx="1.269" transform="translate(21.059 42.927)" fill="#fff"/>
    </g>
    <g id="Group_860" data-name="Group 860" transform="translate(477.551 482.376)">
      <g id="Group_859" data-name="Group 859" transform="translate(0 0)" clip-path="url(#clip-path-15)">
        <circle id="Ellipse_714" data-name="Ellipse 714" cx="119.269" cy="119.269" r="119.269" transform="translate(-32.273 136.398) rotate(-45)" fill="#e7eef5"/>
        <g id="Group_858" data-name="Group 858" transform="translate(92.47 52.919)">
          <g id="Group_849" data-name="Group 849" transform="translate(18.388 76.59)">
            <path id="Path_32225" data-name="Path 32225" d="M396.4,388.9c-7.319,16.792-20.236,30.57-30.14,17.223-7.381-9.95-1.6-23.49,1.815-29.74a130.264,130.264,0,0,1,20.823-4.706h9.823s5.82,0,13.088.464A35.139,35.139,0,0,0,396.4,388.9Z" transform="translate(-362.683 -371.674)" fill="#e7b59d"/>
            <g id="Group_848" data-name="Group 848" clip-path="url(#clip-path-16)">
              <path id="Path_32226" data-name="Path 32226" d="M374.682,371.674c0,.862-.432,14.209-.432,14.209l-8.18-13.777Z" transform="translate(-360.336 -371.674)" fill="#e7b59d" opacity="0.45" style="mix-blend-mode: multiply;isolation: isolate"/>
            </g>
          </g>
          <path id="Path_32228" data-name="Path 32228" d="M359.242,384.816c3.738-3.74,10.017-6.562,16.362-8.626-3.42,6.25-9.2,19.791-1.815,29.74,9.9,13.347,22.821-.43,30.14-17.222a35.138,35.138,0,0,1,15.409-16.76c8.69.555,19.449,1.774,24.8,4.447,9.823,4.911,14.734,17.541,12.629,25.96s9.12,29.468-2.807,40.694c-10.711,10.082-19.159,8.846-22.8,7.473a11.294,11.294,0,0,1-1.053-.455c-2.805-1.4,0,37.184,0,37.184s-70.862,4.21-75.072,0S349.42,394.639,359.242,384.816Z" transform="translate(-351.822 -294.894)" fill="#82ca21"/>
          <g id="Group_851" data-name="Group 851" transform="translate(2.684)">
            <path id="Path_32229" data-name="Path 32229" d="M401.109,331.549s-6.889-9.9-23.681-2.152-37.89,45.64-11.625,79.225c0,0,5.6-8.182,25.835-10.334S401.109,331.549,401.109,331.549Z" transform="translate(-353.407 -326.434)" fill="#a072ae"/>
            <g id="Group_850" data-name="Group 850" clip-path="url(#clip-path-17)">
              <path id="Path_32230" data-name="Path 32230" d="M391.2,328.126l-18.515,7.32L385.6,326.4Z" transform="translate(-340.05 -326.455)" fill="#a072ae" opacity="0.52" style="mix-blend-mode: multiply;isolation: isolate"/>
              <path id="Path_32231" data-name="Path 32231" d="M361.332,346.356s-17.063,43.294,13.076,44.154-13.076-44.154-13.076-44.154" transform="translate(-351.25 -312.628)" fill="#a072ae" opacity="0.52" style="mix-blend-mode: multiply;isolation: isolate"/>
            </g>
          </g>
          <g id="Group_853" data-name="Group 853" transform="translate(28.39 43.271)">
            <path id="Path_32233" data-name="Path 32233" d="M396.655,360.412l1.053,24.907-23.028,15.272a1.5,1.5,0,0,1-2.294-.985l-3.8-20.25,22.45-27.363Z" transform="translate(-368.591 -351.993)" fill="#e7b59d"/>
            <g id="Group_852" data-name="Group 852" clip-path="url(#clip-path-18)">
              <path id="Path_32234" data-name="Path 32234" d="M402.741,372.849s-4.155-3.581-6.96-6.387c0,0-7.32,21.1-29.28,18.516-14.764-1.737,14.49-17.04,14.49-17.04l14.7-11.111,8.456,6.2Z" transform="translate(-372.923 -348.643)" fill="#e7b59d" opacity="0.45" style="mix-blend-mode: multiply;isolation: isolate"/>
            </g>
          </g>
          <g id="Group_855" data-name="Group 855" transform="translate(9.387 15.444)">
            <path id="Path_32236" data-name="Path 32236" d="M357.462,370.008c.54-7.581,4.869-21.912,4.891-21.438.193-.924,2.291-10.547,6.3-12.55,4.21-2.1,21.749,3.508,21.749,5.614,0,1.673.892,13.53,6.892,18.682a9.521,9.521,0,0,0,5.737,2.365,12.112,12.112,0,0,1,9.135,5.172,121,121,0,0,1-12.643.442c-5.462,30.991-25.791,27.534-31.726,26.686C361.767,394.119,356.6,382.155,357.462,370.008Z" transform="translate(-357.367 -335.556)" fill="#e7b59d"/>
            <g id="Group_854" data-name="Group 854" clip-path="url(#clip-path-19)">
              <path id="Path_32237" data-name="Path 32237" d="M368.613,334.542c1.292,0,1.5,27.24,26.8,31.7s-9.147-26.107-9.147-26.107Z" transform="translate(-349.574 -336.258)" fill="#e7b59d" opacity="0.45" style="mix-blend-mode: multiply;isolation: isolate"/>
            </g>
          </g>
          <path id="Path_32239" data-name="Path 32239" d="M379.711,362.593s-10.7,3.21-15.587,2.125a.5.5,0,0,0-.579.659,27.8,27.8,0,0,1,1.488,5.167C365.033,371.767,376.04,369.932,379.711,362.593Z" transform="translate(-343.719 -301.377)" fill="#effdff"/>
          <path id="Path_32240" data-name="Path 32240" d="M375.835,354.977a3.463,3.463,0,0,0-.616-2.213,2.927,2.927,0,0,0-2.18-1.232,3.976,3.976,0,0,0-2.323.642,8.352,8.352,0,0,0-.892.709,7.957,7.957,0,0,0-.716.872,9.345,9.345,0,0,0,1.041-.366c.328-.134.667-.217.979-.345a5.238,5.238,0,0,1,1.823-.293,2.656,2.656,0,0,1,1.552.65A8.057,8.057,0,0,1,375.835,354.977Z" transform="translate(-339.844 -309.05)" fill="#9a6253"/>
          <path id="Path_32241" data-name="Path 32241" d="M361.341,350.777a2.81,2.81,0,0,1,1.212-1.405,2.37,2.37,0,0,1,2.02-.151,3.225,3.225,0,0,1,1.478,1.27,6.667,6.667,0,0,1,.406.826,6.032,6.032,0,0,1,.223.884,7.413,7.413,0,0,1-.635-.625c-.193-.21-.413-.389-.6-.591a4.274,4.274,0,0,0-1.232-.841,2.141,2.141,0,0,0-1.359-.059A6.417,6.417,0,0,0,361.341,350.777Z" transform="translate(-345.225 -310.753)" fill="#9a6253"/>
          <path id="Path_32242" data-name="Path 32242" d="M375.31,336.969s7.32,25.4,28.2,27.556-17.007-31-17.007-31h-21.1l-6.459,15.932S371.435,345.581,375.31,336.969Z" transform="translate(-346.883 -321.52)" fill="#a072ae"/>
          <path id="Path_32243" data-name="Path 32243" d="M368.591,337.207c.469,0,20.7-11.194,29.317-8.61s27.986,29.71,25.4,56.836-39.182,23.251-39.182,23.251,18.946-24.543,1.722-52.531L372.935,344.1Z" transform="translate(-340.201 -325.203)" fill="#a072ae"/>
          <rect id="Rectangle_2768" data-name="Rectangle 2768" width="32.274" height="16.572" transform="translate(45.783 58.81) rotate(-54.781)" fill="#61002f"/>
          <path id="Path_32244" data-name="Path 32244" d="M409.255,378.823s0-18.838-3.039-21.267-10.33-11.546-13.975-9.115-1.823,3.645-4.253,4.86-1.216,3.039-3.039,4.254-4.253,6.076-3.039,6.076h5.47s8.505,15.8,12.152,15.191l.608,2.431h9.115Z" transform="translate(-331.198 -311.466)" fill="#e7b59d"/>
          <path id="Path_32245" data-name="Path 32245" d="M391.758,364.044s-.279,76.07,6.034,80.28,23.155-.7,19.645-14.734S401.3,364.34,401.3,364.34Z" transform="translate(-324.149 -300.371)" fill="#e7b59d"/>
          <path id="Path_32246" data-name="Path 32246" d="M367.4,362.965l-3.875-2.152a53.392,53.392,0,0,0,4.121-6.2.36.36,0,0,1,.679.159A27.394,27.394,0,0,1,367.4,362.965Z" transform="translate(-343.711 -307.042)" fill="#e2a29d"/>
          <g id="Group_856" data-name="Group 856" transform="translate(32.189 35.436)">
            <path id="Path_32247" data-name="Path 32247" d="M377.326,354.086A9.188,9.188,0,0,0,371.064,348a.323.323,0,0,1,.173-.623,9.845,9.845,0,0,1,6.713,6.538c.124.4-.5.567-.623.171Z" transform="translate(-370.835 -347.365)" fill="#a072ae"/>
          </g>
          <g id="Group_857" data-name="Group 857" transform="translate(15.095 31.953)">
            <path id="Path_32248" data-name="Path 32248" d="M368.16,345.9a7.884,7.884,0,0,0-6.929,2.848.277.277,0,0,1-.432-.347,8.442,8.442,0,0,1,7.439-3.049c.355.039.276.587-.078.548Z" transform="translate(-360.738 -345.308)" fill="#a072ae"/>
          </g>
          <path id="Path_32249" data-name="Path 32249" d="M367.982,333.524l-.012.921c0,.334.005.665.015,1,.019.664.066,1.324.129,1.981a32.385,32.385,0,0,0,.625,3.9,31.529,31.529,0,0,0,2.656,7.373,31.162,31.162,0,0,0,4.388,6.411,34.679,34.679,0,0,0,5.763,5.113,34.452,34.452,0,0,1-5.348-5.456,29.691,29.691,0,0,1-5.873-13.74,30.885,30.885,0,0,1-.332-3.719c-.013-.62-.015-1.241.01-1.857q.018-.462.051-.924l.081-1Z" transform="translate(-340.632 -321.52)" fill="#a072ae"/>
        </g>
      </g>
    </g>
  </g>
</svg>
