<svg xmlns="http://www.w3.org/2000/svg" width="325.667" height="78.448" viewBox="0 0 325.667 78.448">
  <g id="Group_5" data-name="Group 5" transform="translate(-17.803 -366.502)">
    <g id="Company_Name" data-name="Company Name" transform="translate(100.141 378.587)">
      <path id="Path_1" data-name="Path 1" d="M449.464,425.321a1.414,1.414,0,0,1-1.131.428H433.928a6.93,6.93,0,0,0,1.892,4.7,6.142,6.142,0,0,0,4.5,1.671,10.689,10.689,0,0,0,3.236-.48,21.219,21.219,0,0,0,3.109-1.275,1.645,1.645,0,0,1,.719-.188,1.142,1.142,0,0,1,.921.418,1.46,1.46,0,0,1,.349.96,1.828,1.828,0,0,1-.074.492,1.509,1.509,0,0,1-.243.491A6.3,6.3,0,0,1,446.672,434a10.022,10.022,0,0,1-2.126.983,14.1,14.1,0,0,1-2.359.553,16.329,16.329,0,0,1-2.36.178,12.027,12.027,0,0,1-4.293-.753,9.744,9.744,0,0,1-5.765-5.714,11.616,11.616,0,0,1-.836-4.335,10.4,10.4,0,0,1,.783-3.865,10.87,10.87,0,0,1,2.148-3.426,11.015,11.015,0,0,1,3.279-2.393,10.089,10.089,0,0,1,4.453-.93,11.308,11.308,0,0,1,4.495.815,9.159,9.159,0,0,1,3.152,2.173,8.982,8.982,0,0,1,1.9,3.248,12.574,12.574,0,0,1,.688,3.793A1.476,1.476,0,0,1,449.464,425.321Zm-4.516-4.21a5.694,5.694,0,0,0-1.132-1.933,4.631,4.631,0,0,0-1.778-1.212,6.573,6.573,0,0,0-2.4-.408,5.508,5.508,0,0,0-2.231.439,4.873,4.873,0,0,0-1.735,1.275,6.776,6.776,0,0,0-1.174,1.943,7.306,7.306,0,0,0-.528,2.026h11.465A8.555,8.555,0,0,0,444.949,421.111Zm-22.668,21.51a9.109,9.109,0,0,1-3.373,1.587,17.354,17.354,0,0,1-4.252.492,14.705,14.705,0,0,1-5.141-.731,5.315,5.315,0,0,1-2.792-2.235,1.734,1.734,0,0,1-.3-.9,1.584,1.584,0,0,1,.445-1.106,1.411,1.411,0,0,1,1.079-.481,1.64,1.64,0,0,1,.593.125c.394.167.794.342,1.194.523a11.2,11.2,0,0,0,1.28.48,11.5,11.5,0,0,0,1.481.346,10.858,10.858,0,0,0,1.8.136,12.136,12.136,0,0,0,2.571-.251,5.47,5.47,0,0,0,1.978-.825,3.852,3.852,0,0,0,1.28-1.525,5.488,5.488,0,0,0,.454-2.372v-4.366a7.421,7.421,0,0,1-1.375,1.754,7.507,7.507,0,0,1-1.755,1.232,8.71,8.71,0,0,1-2,.72,9.336,9.336,0,0,1-2.1.241,9.579,9.579,0,0,1-3.977-.773,8.02,8.02,0,0,1-2.867-2.131,9.076,9.076,0,0,1-1.734-3.227,14.054,14.054,0,0,1-.583-4.19,15.115,15.115,0,0,1,.572-4.115,10.465,10.465,0,0,1,1.7-3.521,8.159,8.159,0,0,1,2.792-2.351,8.265,8.265,0,0,1,3.839-.856,11.941,11.941,0,0,1,2.253.209,7.687,7.687,0,0,1,2.052.7,7.516,7.516,0,0,1,1.8,1.3,13.1,13.1,0,0,1,1.492,1.7v-1.8a2.083,2.083,0,0,1,.275-.8,2.116,2.116,0,0,1,.529-.585,2.184,2.184,0,0,1,.7-.356,2.706,2.706,0,0,1,.783-.114,2.567,2.567,0,0,1,.856.145,2.356,2.356,0,0,1,.751.439,2.156,2.156,0,0,1,.539.72,2.374,2.374,0,0,1,.2,1.014v18.595a10.334,10.334,0,0,1-.8,4.294A7.405,7.405,0,0,1,422.281,442.62Zm-2.009-20.454a7.513,7.513,0,0,0-.942-2.319,4.812,4.812,0,0,0-1.745-1.671,5.414,5.414,0,0,0-2.7-.617,5.184,5.184,0,0,0-2.591.585,4.509,4.509,0,0,0-1.65,1.619,7.141,7.141,0,0,0-.877,2.435,15.608,15.608,0,0,0-.255,2.8,11.071,11.071,0,0,0,.424,3.3,6.6,6.6,0,0,0,1.153,2.225,4.64,4.64,0,0,0,1.723,1.326,5.175,5.175,0,0,0,2.116.439,5.342,5.342,0,0,0,2.168-.449,4.951,4.951,0,0,0,1.787-1.337,6.679,6.679,0,0,0,1.216-2.215,10.026,10.026,0,0,0,.455-3.227A13.26,13.26,0,0,0,420.272,422.166Zm-20.52,12.755a2.253,2.253,0,0,1-.741.407,2.664,2.664,0,0,1-.836.136,2.574,2.574,0,0,1-.793-.125,2.109,2.109,0,0,1-.7-.377,1.924,1.924,0,0,1-.5-.627,2.128,2.128,0,0,1-.211-.878v-1.567a8.349,8.349,0,0,1-1.173,1.515,6.8,6.8,0,0,1-1.671,1.275,8.427,8.427,0,0,1-2,.773,8.91,8.91,0,0,1-2.136.261,9.414,9.414,0,0,1-2.845-.418,6.728,6.728,0,0,1-2.285-1.211,5.778,5.778,0,0,1-2.061-4.367,6.088,6.088,0,0,1,.835-3.269,6.251,6.251,0,0,1,2.39-2.194,12.09,12.09,0,0,1,3.755-1.222,29.351,29.351,0,0,1,4.928-.376c.282,0,.632,0,1.047.011s.78.017,1.09.031V421.55a4.491,4.491,0,0,0-.307-1.776,2.91,2.91,0,0,0-.856-1.148,3.368,3.368,0,0,0-1.323-.628,7.214,7.214,0,0,0-1.7-.188,14.712,14.712,0,0,0-1.925.115,11.93,11.93,0,0,0-1.618.323,13.507,13.507,0,0,0-1.406.47q-.657.26-1.291.553a1.7,1.7,0,0,1-.634.125,1.387,1.387,0,0,1-.56-.114,1.508,1.508,0,0,1-.784-.773,1.3,1.3,0,0,1-.116-.533,1.056,1.056,0,0,1,.074-.408,2.712,2.712,0,0,1,.222-.408,5.719,5.719,0,0,1,3.151-2.183,17.178,17.178,0,0,1,5.162-.679,13.267,13.267,0,0,1,3.417.418,7.3,7.3,0,0,1,2.718,1.327,6.143,6.143,0,0,1,1.788,2.36,8.648,8.648,0,0,1,.645,3.521v11.387a2.279,2.279,0,0,1-.222.941A2.1,2.1,0,0,1,399.752,434.922Zm-3.924-9.485c-.113,0-.25,0-.412.009s-.332.011-.508.011h-1a24.265,24.265,0,0,0-2.666.147,9.143,9.143,0,0,0-2.4.574,4.354,4.354,0,0,0-1.734,1.212,3.173,3.173,0,0,0-.349,3.332,3.138,3.138,0,0,0,.856,1.108,3.651,3.651,0,0,0,1.28.657,6.043,6.043,0,0,0,1.586.24,5.953,5.953,0,0,0,2.083-.4,4.7,4.7,0,0,0,1.682-1.117,5.6,5.6,0,0,0,1.131-1.7,6.608,6.608,0,0,0,.455-2.4ZM375.636,442.62a9.12,9.12,0,0,1-3.374,1.587,17.352,17.352,0,0,1-4.252.492,14.7,14.7,0,0,1-5.141-.731,5.322,5.322,0,0,1-2.793-2.235,1.734,1.734,0,0,1-.3-.9,1.583,1.583,0,0,1,.444-1.106,1.411,1.411,0,0,1,1.079-.481,1.636,1.636,0,0,1,.593.125q.592.251,1.2.523a11.2,11.2,0,0,0,1.28.48,11.548,11.548,0,0,0,1.481.346,10.858,10.858,0,0,0,1.8.136,12.124,12.124,0,0,0,2.57-.251,5.466,5.466,0,0,0,1.978-.825,3.843,3.843,0,0,0,1.28-1.525,5.5,5.5,0,0,0,.455-2.372v-4.366a7.432,7.432,0,0,1-1.375,1.754A7.518,7.518,0,0,1,370.8,434.5a8.729,8.729,0,0,1-2,.72,9.343,9.343,0,0,1-2.1.241,9.582,9.582,0,0,1-3.977-.773,8.008,8.008,0,0,1-2.867-2.131,9.093,9.093,0,0,1-1.735-3.227,14.055,14.055,0,0,1-.582-4.19,15.091,15.091,0,0,1,.571-4.115,10.466,10.466,0,0,1,1.7-3.521,8.163,8.163,0,0,1,2.792-2.351,8.264,8.264,0,0,1,3.84-.856,11.934,11.934,0,0,1,2.252.209,7.669,7.669,0,0,1,2.052.7,7.53,7.53,0,0,1,1.8,1.3,13.2,13.2,0,0,1,1.492,1.7v-1.8a2.049,2.049,0,0,1,.274-.8,2.1,2.1,0,0,1,.529-.585,2.185,2.185,0,0,1,.7-.356,2.7,2.7,0,0,1,.783-.114,2.57,2.57,0,0,1,.857.145,2.344,2.344,0,0,1,.751.439,2.151,2.151,0,0,1,.539.72,2.369,2.369,0,0,1,.2,1.014v18.595a10.312,10.312,0,0,1-.8,4.294A7.4,7.4,0,0,1,375.636,442.62Zm-2.01-20.454a7.452,7.452,0,0,0-.941-2.319,4.812,4.812,0,0,0-1.745-1.671,5.409,5.409,0,0,0-2.7-.617,5.182,5.182,0,0,0-2.59.585,4.512,4.512,0,0,0-1.65,1.619,7.135,7.135,0,0,0-.878,2.435,15.673,15.673,0,0,0-.254,2.8,11.072,11.072,0,0,0,.423,3.3,6.6,6.6,0,0,0,1.153,2.225,4.633,4.633,0,0,0,1.724,1.326,5.17,5.17,0,0,0,2.115.439,5.342,5.342,0,0,0,2.169-.449,4.951,4.951,0,0,0,1.787-1.337,6.687,6.687,0,0,0,1.216-2.215,10.027,10.027,0,0,0,.455-3.227A13.2,13.2,0,0,0,373.626,422.166Zm-18.807,13.11a6.273,6.273,0,0,1-1.491.345,14.874,14.874,0,0,1-1.671.094,8.406,8.406,0,0,1-2.623-.376,4.391,4.391,0,0,1-1.925-1.244,5.758,5.758,0,0,1-1.195-2.287,12.663,12.663,0,0,1-.413-3.49v-10.4h-2.052a1.62,1.62,0,0,1-1.322-.522,1.738,1.738,0,0,1,.011-2.309,1.634,1.634,0,0,1,1.333-.533h2.285l.4-5.621a1.906,1.906,0,0,1,.265-.825,2.146,2.146,0,0,1,.561-.616,2.471,2.471,0,0,1,.741-.377,2.7,2.7,0,0,1,.8-.125,2.151,2.151,0,0,1,1.354.459,1.712,1.712,0,0,1,.592,1.442v5.663h3.237a1.608,1.608,0,0,1,1.312.533,1.739,1.739,0,0,1,.011,2.309,1.623,1.623,0,0,1-1.323.522h-3.237v8.692q0,1.484.053,2.507a6.106,6.106,0,0,0,.276,1.661,1.636,1.636,0,0,0,.7.918,2.59,2.59,0,0,0,1.322.283q.211,0,.465-.022c.17-.013.339-.031.508-.052s.328-.039.476-.053.264-.02.349-.02a1.55,1.55,0,0,1,1.248.522,1.755,1.755,0,0,1,.445,1.17,1.478,1.478,0,0,1-.413,1.087A2.949,2.949,0,0,1,354.819,435.276Zm-14.088-17.623a2.213,2.213,0,0,1-.72.459,2.632,2.632,0,0,1-1,.178,6.66,6.66,0,0,0-2.232.354,4.442,4.442,0,0,0-1.713,1.077,5.155,5.155,0,0,0-1.1,1.661,6.288,6.288,0,0,0-.391,2.4v9.361a2.179,2.179,0,0,1-.222,1.013,2.328,2.328,0,0,1-.572.721,2.361,2.361,0,0,1-.8.439,3,3,0,0,1-.92.146,2.8,2.8,0,0,1-.9-.146,2.516,2.516,0,0,1-.783-.429,2.065,2.065,0,0,1-.56-.72,2.327,2.327,0,0,1-.212-1.024v-16.3a2.175,2.175,0,0,1,.793-1.725,2.5,2.5,0,0,1,.8-.428,3.013,3.013,0,0,1,.92-.145,2.825,2.825,0,0,1,.867.136,2.464,2.464,0,0,1,.762.4,2.09,2.09,0,0,1,.561.669,2.128,2.128,0,0,1,.243.95c0,.014,0,.1.011.272s.011.359.011.575v.845a5.731,5.731,0,0,1,1.861-2.935,5.53,5.53,0,0,1,3.681-1.159,2.364,2.364,0,0,1,.942.178,2.232,2.232,0,0,1,.687.449,1.761,1.761,0,0,1,.412.628,2.006,2.006,0,0,1,0,1.462A1.8,1.8,0,0,1,340.731,417.653ZM322.157,432.4a9.992,9.992,0,0,1-3.47,2.413,13.792,13.792,0,0,1-9.794,0,9.681,9.681,0,0,1-5.511-5.9,11.889,11.889,0,0,1-.677-3.876,12.134,12.134,0,0,1,.677-3.917,9.647,9.647,0,0,1,5.511-5.923,13.8,13.8,0,0,1,9.794,0,10.012,10.012,0,0,1,3.47,2.413,9.837,9.837,0,0,1,2.062,3.51,12.143,12.143,0,0,1,.677,3.917,11.9,11.9,0,0,1-.677,3.876A9.855,9.855,0,0,1,322.157,432.4Zm-2.835-9.987a7.744,7.744,0,0,0-1.037-2.476,5.39,5.39,0,0,0-1.819-1.734,5.849,5.849,0,0,0-5.352,0,5.394,5.394,0,0,0-1.819,1.734,7.735,7.735,0,0,0-1.036,2.476,10.627,10.627,0,0,0,0,5.244,7.6,7.6,0,0,0,1.036,2.465,5.4,5.4,0,0,0,1.819,1.723,5.846,5.846,0,0,0,5.352,0,5.4,5.4,0,0,0,1.819-1.723,7.61,7.61,0,0,0,1.037-2.465,10.647,10.647,0,0,0,0-5.244Zm-21.99,12.432a2.344,2.344,0,0,1-.772.459,2.554,2.554,0,0,1-.877.157,2.4,2.4,0,0,1-1.608-.615,2.195,2.195,0,0,1-.539-.753,2.551,2.551,0,0,1-.2-1.055v-22.23l-9.371,21.247a3.542,3.542,0,0,1-1.353,1.766,3.547,3.547,0,0,1-.941.46,3.279,3.279,0,0,1-2.856-.418,3.471,3.471,0,0,1-1.322-1.808l-9.35-21.123v22.105a2.555,2.555,0,0,1-.2,1.055,2.2,2.2,0,0,1-.539.753,2.371,2.371,0,0,1-.761.459,2.478,2.478,0,0,1-1.735,0,2.235,2.235,0,0,1-.751-.459,2.274,2.274,0,0,1-.529-.753,2.555,2.555,0,0,1-.2-1.055V409.933a5.79,5.79,0,0,1,.329-2.069,3.729,3.729,0,0,1,.9-1.4,3.514,3.514,0,0,1,1.312-.794,4.843,4.843,0,0,1,1.565-.251,5.136,5.136,0,0,1,1.481.2,3.428,3.428,0,0,1,1.216.669,5.137,5.137,0,0,1,1.047,1.264,13.917,13.917,0,0,1,.974,1.985l8.419,19.117h.127l8.567-19.159a13.37,13.37,0,0,1,.973-1.974,5.333,5.333,0,0,1,1.036-1.253,3.208,3.208,0,0,1,1.2-.659,5.272,5.272,0,0,1,1.47-.188,4.686,4.686,0,0,1,1.534.251,3.435,3.435,0,0,1,1.29.794,3.808,3.808,0,0,1,.889,1.4,5.807,5.807,0,0,1,.328,2.069v23.108a2.561,2.561,0,0,1-.2,1.055A2.214,2.214,0,0,1,297.332,434.849Z" transform="translate(-263.159 -404.417)" fill="#282828" fill-rule="evenodd"/>
      <path id="Path_2" data-name="Path 2" d="M864.661,413.949a15.989,15.989,0,0,0,2.465.878q1.373.375,2.77.773,2.242.669,4.072,1.421a12.681,12.681,0,0,1,3.131,1.8,7.331,7.331,0,0,1,2.01,2.476,7.677,7.677,0,0,1,.709,3.437,8.7,8.7,0,0,1-.878,3.949,8.375,8.375,0,0,1-2.528,2.988,12.052,12.052,0,0,1-3.988,1.891,19.393,19.393,0,0,1-5.256.658,26.3,26.3,0,0,1-3.025-.177,26,26,0,0,1-2.94-.512,20.25,20.25,0,0,1-2.665-.815,11.615,11.615,0,0,1-2.179-1.086A5.5,5.5,0,0,1,854.9,430.3a2.555,2.555,0,0,1-.53-1.536,2.521,2.521,0,0,1,.222-1.025,3.685,3.685,0,0,1,.572-.908,2.991,2.991,0,0,1,.783-.659,1.7,1.7,0,0,1,.856-.25,2.222,2.222,0,0,1,.741.125,7.2,7.2,0,0,1,.729.3c.247.119.5.247.762.386a6.766,6.766,0,0,0,.835.376,25.256,25.256,0,0,0,3.279,1.17,13.731,13.731,0,0,0,3.808.522,10.1,10.1,0,0,0,2.042-.2A5.9,5.9,0,0,0,870.69,428a3.225,3.225,0,0,0,1.153-1.055,2.809,2.809,0,0,0,.422-1.568,2.88,2.88,0,0,0-.253-1.232,3.012,3.012,0,0,0-.7-.951,4.673,4.673,0,0,0-1.038-.71,10,10,0,0,0-1.248-.533l-.952-.334c-.183-.056-.359-.115-.528-.178s-.353-.122-.55-.178l-1.1-.312c-.241-.056-.445-.108-.614-.157s-.322-.1-.455-.146-.264-.1-.391-.147-.275-.1-.444-.156l-1.988-.689a23.288,23.288,0,0,1-3.3-1.442,8.656,8.656,0,0,1-2.242-1.693,6.018,6.018,0,0,1-1.28-2.142,8.586,8.586,0,0,1-.412-2.789,8.086,8.086,0,0,1,.878-3.782,8.223,8.223,0,0,1,2.517-2.883,12.284,12.284,0,0,1,3.977-1.839,19.663,19.663,0,0,1,5.257-.648,21.483,21.483,0,0,1,2.306.136,23.847,23.847,0,0,1,2.5.408,17.614,17.614,0,0,1,2.4.7,10.521,10.521,0,0,1,2.042,1,5.4,5.4,0,0,1,1.428,1.306,2.685,2.685,0,0,1,.539,1.629,2.284,2.284,0,0,1-.2.961,2.353,2.353,0,0,1-.54.753,2.491,2.491,0,0,1-.793.491,2.564,2.564,0,0,1-.941.178,2.507,2.507,0,0,1-1.164-.272q-1-.5-1.85-.858a14.33,14.33,0,0,0-1.7-.584,11.891,11.891,0,0,0-1.746-.334,16.979,16.979,0,0,0-1.978-.1,11.2,11.2,0,0,0-2,.178,6.5,6.5,0,0,0-1.757.564,3.629,3.629,0,0,0-1.248.992,2.5,2.5,0,0,0,.2,3.176A5.912,5.912,0,0,0,864.661,413.949ZM849.84,432.043a10.825,10.825,0,0,1-2.041.951,20.224,20.224,0,0,1-2.38.679,23.3,23.3,0,0,1-2.442.407,20.436,20.436,0,0,1-2.253.136,16.208,16.208,0,0,1-5.838-1.034,13.166,13.166,0,0,1-4.7-3.029,14.178,14.178,0,0,1-3.13-4.91,18.208,18.208,0,0,1-1.142-6.676,19.148,19.148,0,0,1,1.131-6.8,14.349,14.349,0,0,1,3.163-5.067,13.657,13.657,0,0,1,4.834-3.165,16.721,16.721,0,0,1,6.144-1.1,28.587,28.587,0,0,1,4.6.324,13.868,13.868,0,0,1,3.247.889,5.078,5.078,0,0,1,1.925,1.337,2.586,2.586,0,0,1,.634,1.672,2.1,2.1,0,0,1-.254,1.054,2.257,2.257,0,0,1-.666.742,2.853,2.853,0,0,1-.92.429,3.934,3.934,0,0,1-1.016.136q-.3,0-.592-.011a2.194,2.194,0,0,1-.571-.094q-.8-.208-1.533-.408t-1.439-.344q-.708-.147-1.417-.24a11.14,11.14,0,0,0-1.469-.094,9.374,9.374,0,0,0-2.994.47,5.515,5.515,0,0,0-2.444,1.661,8.566,8.566,0,0,0-1.639,3.227,18.671,18.671,0,0,0-.6,5.192,17.859,17.859,0,0,0,.487,4.355,9.637,9.637,0,0,0,1.449,3.281,6.464,6.464,0,0,0,2.411,2.068,7.478,7.478,0,0,0,3.374.72,8.361,8.361,0,0,0,1.629-.167q.846-.166,1.735-.428t1.809-.6q.92-.333,1.83-.668a2.369,2.369,0,0,1,.676-.083,2.278,2.278,0,0,1,.963.2,2.4,2.4,0,0,1,.751.533,2.279,2.279,0,0,1,.486.783,2.665,2.665,0,0,1,.169.951,2.344,2.344,0,0,1-.539,1.494A5.369,5.369,0,0,1,849.84,432.043Z" transform="translate(-636.489 -402.437)" fill="#82ca21" fill-rule="evenodd"/>
      <g id="Group_4" data-name="Group 4" transform="translate(0 35.249)">
        <g id="Group_3" data-name="Group 3">
          <path id="Path_3" data-name="Path 3" d="M426.771,507.936a6.215,6.215,0,0,0,.417-.684h74.487v.684Zm-46.027-.684h22.845a6.05,6.05,0,0,0,.416.684H380.328A6.006,6.006,0,0,0,380.744,507.252Zm-118.1,0h93.975a6.161,6.161,0,0,0,.417.684H262.64Z" transform="translate(-262.64 -507.252)" fill="#676769" fill-rule="evenodd"/>
          <g id="Group_2" data-name="Group 2" transform="translate(22.69 6.621)">
            <g id="Group_1" data-name="Group 1">
              <path id="Path_4" data-name="Path 4" d="M523.368,533.311h-4.744a2.158,2.158,0,0,0,2.317,2.332,4.478,4.478,0,0,0,1.87-.346l.209.873a5.479,5.479,0,0,1-2.246.416,3.127,3.127,0,0,1-3.322-3.386c0-2.027,1.2-3.622,3.167-3.622,2.205,0,2.791,1.929,2.791,3.164A4.594,4.594,0,0,1,523.368,533.311Zm-2.846-2.859a2.029,2.029,0,0,0-1.884,1.984h3.586A1.74,1.74,0,0,0,520.522,530.453Zm-5.607.111a2.532,2.532,0,0,0-.042,5.052,3.519,3.519,0,0,0,1.508-.333l.209.916a4.547,4.547,0,0,1-1.94.388,3.2,3.2,0,0,1-3.363-3.427,3.423,3.423,0,0,1,3.628-3.568,4.112,4.112,0,0,1,1.7.347l-.279.943A2.872,2.872,0,0,0,514.915,530.564Zm-5.817-1.971a.728.728,0,0,1-.74-.749.747.747,0,0,1,.768-.764.757.757,0,1,1-.028,1.513Zm-5.564,7.855-2.568-6.717h1.312l1.325,3.774a17.134,17.134,0,0,1,.544,1.721h.042c.153-.556.348-1.11.571-1.721l1.312-3.774h1.285l-2.651,6.717Zm-3.724-5.718a1.718,1.718,0,0,0-1.646,1.569,3.355,3.355,0,0,0-.056.568v3.582H496.9v-4.621c0-.791-.014-1.471-.056-2.1h1.075l.041,1.318h.056a2.025,2.025,0,0,1,1.87-1.471,1.324,1.324,0,0,1,.349.042v1.152A1.838,1.838,0,0,0,499.811,530.73Zm-9.219,2.581a2.158,2.158,0,0,0,2.317,2.332,4.475,4.475,0,0,0,1.869-.346l.21.873a5.483,5.483,0,0,1-2.248.416,3.127,3.127,0,0,1-3.32-3.386c0-2.027,1.2-3.622,3.168-3.622,2.2,0,2.791,1.929,2.791,3.164a4.6,4.6,0,0,1-.042.569Zm1.9-2.859a2.028,2.028,0,0,0-1.885,1.984h3.586A1.742,1.742,0,0,0,492.49,530.453Zm-4.282,3.442c0,1.443-1.074,2.692-3.292,2.692a4.883,4.883,0,0,1-2.4-.6l.307-1.013a4.319,4.319,0,0,0,2.177.61c1.242,0,1.967-.652,1.967-1.6,0-.874-.5-1.373-1.772-1.86-1.535-.541-2.483-1.332-2.483-2.651,0-1.457,1.213-2.54,3.041-2.54a4.281,4.281,0,0,1,2.079.459l-.334.984a3.772,3.772,0,0,0-1.787-.443c-1.283,0-1.772.763-1.772,1.4,0,.874.573,1.3,1.87,1.8C487.4,531.757,488.209,532.521,488.209,533.895Zm-14.52-.583a2.158,2.158,0,0,0,2.316,2.332,4.475,4.475,0,0,0,1.869-.346l.209.873a5.476,5.476,0,0,1-2.246.416,3.127,3.127,0,0,1-3.321-3.386c0-2.027,1.2-3.622,3.167-3.622,2.2,0,2.791,1.929,2.791,3.164a4.469,4.469,0,0,1-.042.569Zm1.9-2.859a2.027,2.027,0,0,0-1.883,1.984h3.585A1.741,1.741,0,0,0,475.586,530.453Zm-4.614,5.024c0,1.541-.307,2.485-.963,3.067a3.593,3.593,0,0,1-2.456.805,4.38,4.38,0,0,1-2.246-.556l.307-.929a3.829,3.829,0,0,0,1.981.527c1.255,0,2.176-.652,2.176-2.345V535.3h-.027a2.416,2.416,0,0,1-2.149,1.124,3.009,3.009,0,0,1-2.874-3.275c0-2.277,1.492-3.568,3.041-3.568a2.25,2.25,0,0,1,2.107,1.166h.028l.056-1.012h1.074c-.028.485-.056,1.026-.056,1.845Zm-1.215-3.095a1.721,1.721,0,0,0-.069-.555,1.768,1.768,0,0,0-1.716-1.291c-1.171,0-2.009.986-2.009,2.54,0,1.318.67,2.415,2,2.415a1.8,1.8,0,0,0,1.7-1.248,2.116,2.116,0,0,0,.1-.652Zm-6.081-1.652a1.72,1.72,0,0,0-1.647,1.569,3.505,3.505,0,0,0-.055.568v3.582H460.76v-4.621c0-.791-.014-1.471-.056-2.1h1.074l.042,1.318h.056a2.025,2.025,0,0,1,1.87-1.471,1.319,1.319,0,0,1,.348.042v1.152A1.835,1.835,0,0,0,463.676,530.73Zm-9.22,2.581a2.158,2.158,0,0,0,2.316,2.332,4.471,4.471,0,0,0,1.868-.346l.21.873a5.477,5.477,0,0,1-2.246.416,3.126,3.126,0,0,1-3.321-3.386c0-2.027,1.2-3.622,3.167-3.622,2.2,0,2.791,1.929,2.791,3.164a4.511,4.511,0,0,1-.042.569Zm1.9-2.859a2.027,2.027,0,0,0-1.883,1.984h3.585A1.741,1.741,0,0,0,456.354,530.453Zm-5.259-1.86a.728.728,0,0,1-.74-.749.747.747,0,0,1,.768-.764.757.757,0,1,1-.028,1.513Zm-3.694,1.971a2.532,2.532,0,0,0-.042,5.052,3.513,3.513,0,0,0,1.508-.333l.209.916a4.547,4.547,0,0,1-1.94.388,3.2,3.2,0,0,1-3.363-3.427,3.423,3.423,0,0,1,3.628-3.568,4.105,4.105,0,0,1,1.7.347l-.278.943A2.87,2.87,0,0,0,447.4,530.564Zm-6.359,2.012c0-1.083-.4-1.985-1.562-1.985a1.743,1.743,0,0,0-1.646,1.249,1.77,1.77,0,0,0-.083.569v4.039h-1.228v-4.9c0-.694-.014-1.263-.056-1.818h1.089l.069,1.109h.028a2.485,2.485,0,0,1,2.232-1.263c.935,0,2.387.556,2.387,2.858v4.012h-1.229Zm-9.428,4.025a3.2,3.2,0,0,1-3.237-3.455,3.289,3.289,0,0,1,3.349-3.568,3.188,3.188,0,0,1,3.25,3.456A3.291,3.291,0,0,1,431.613,536.6Zm.084-6.106c-1.451,0-2.079,1.332-2.079,2.609,0,1.471.851,2.581,2.05,2.581,1.173,0,2.052-1.1,2.052-2.609C433.72,531.937,433.148,530.494,431.7,530.494Zm-6.331-2.541c-2.205,0-3.67,1.4-3.67,3.859a3.408,3.408,0,0,0,3.613,3.761,4.893,4.893,0,0,0,1.982-.388l.251.957a6.049,6.049,0,0,1-2.483.444,4.383,4.383,0,0,1-4.647-4.732,4.667,4.667,0,0,1,4.912-4.913,5.072,5.072,0,0,1,2.232.416l-.293.985A4.443,4.443,0,0,0,425.366,527.953Zm-13.7,5.358a2.158,2.158,0,0,0,2.316,2.332,4.481,4.481,0,0,0,1.87-.346l.209.873a5.488,5.488,0,0,1-2.247.416A3.127,3.127,0,0,1,410.5,533.2c0-2.027,1.2-3.622,3.168-3.622,2.2,0,2.791,1.929,2.791,3.164a4.686,4.686,0,0,1-.042.569Zm1.9-2.859a2.028,2.028,0,0,0-1.884,1.984h3.586A1.741,1.741,0,0,0,413.566,530.453Zm-4.615,5.024c0,1.541-.307,2.485-.963,3.067a3.592,3.592,0,0,1-2.455.805,4.375,4.375,0,0,1-2.246-.556l.306-.929a3.83,3.83,0,0,0,1.982.527c1.255,0,2.177-.652,2.177-2.345V535.3h-.028a2.413,2.413,0,0,1-2.148,1.124,3.009,3.009,0,0,1-2.875-3.275c0-2.277,1.493-3.568,3.042-3.568a2.249,2.249,0,0,1,2.107,1.166h.028l.056-1.012h1.075c-.028.485-.056,1.026-.056,1.845Zm-1.214-3.095a1.729,1.729,0,0,0-.07-.555,1.767,1.767,0,0,0-1.716-1.291c-1.172,0-2.009.986-2.009,2.54,0,1.318.67,2.415,1.995,2.415a1.8,1.8,0,0,0,1.7-1.248,2.136,2.136,0,0,0,.1-.652Zm-7.629,3.22h-.042a2.521,2.521,0,0,1-2.065,1,1.919,1.919,0,0,1-2.065-1.929c0-1.623,1.451-2.512,4.06-2.5v-.139a1.387,1.387,0,0,0-1.535-1.554,3.38,3.38,0,0,0-1.757.5l-.279-.8a4.2,4.2,0,0,1,2.219-.6c2.064,0,2.567,1.4,2.567,2.748v2.513a9.4,9.4,0,0,0,.111,1.609h-1.116Zm-.084-2.582c-1.34-.028-2.86.208-2.86,1.513a1.084,1.084,0,0,0,1.158,1.165,1.679,1.679,0,0,0,1.633-1.124,1.267,1.267,0,0,0,.07-.388Zm-5.592,2.456c0,1.541-.307,2.485-.963,3.067a3.594,3.594,0,0,1-2.455.805,4.38,4.38,0,0,1-2.247-.556l.307-.929a3.83,3.83,0,0,0,1.981.527c1.255,0,2.177-.652,2.177-2.345V535.3h-.028a2.414,2.414,0,0,1-2.149,1.124,3.009,3.009,0,0,1-2.874-3.275c0-2.277,1.492-3.568,3.042-3.568a2.248,2.248,0,0,1,2.106,1.166h.028l.056-1.012h1.074c-.028.485-.056,1.026-.056,1.845Zm-1.214-3.095a1.74,1.74,0,0,0-.07-.555,1.768,1.768,0,0,0-1.717-1.291c-1.172,0-2.009.986-2.009,2.54,0,1.318.669,2.415,1.995,2.415a1.794,1.794,0,0,0,1.7-1.248,2.116,2.116,0,0,0,.1-.652Zm-7.6,1.9c0,.833.237,1.3.921,1.3a2.777,2.777,0,0,0,.712-.083l.056.916a3.019,3.019,0,0,1-1.088.166,1.707,1.707,0,0,1-1.326-.513,2.48,2.48,0,0,1-.474-1.748V530.66h-1.046v-.929h1.046v-1.61l1.2-.319v1.929h1.758v.929h-1.758Zm-3.458-3.553a1.718,1.718,0,0,0-1.646,1.569,3.393,3.393,0,0,0-.056.568v3.582h-1.213v-4.621c0-.791-.014-1.471-.057-2.1h1.075l.042,1.318h.056a2.025,2.025,0,0,1,1.869-1.471,1.33,1.33,0,0,1,.349.042v1.152A1.839,1.839,0,0,0,382.159,530.73Zm-7.824,5.871a3.2,3.2,0,0,1-3.237-3.455,3.288,3.288,0,0,1,3.349-3.568,3.189,3.189,0,0,1,3.251,3.456A3.291,3.291,0,0,1,374.335,536.6Zm.084-6.106c-1.451,0-2.079,1.332-2.079,2.609,0,1.471.851,2.581,2.051,2.581,1.172,0,2.051-1.1,2.051-2.609C376.442,531.937,375.87,530.494,374.419,530.494Zm-6.162,1.845c-.069-1.3-.154-2.872-.14-4.038h-.042c-.321,1.1-.712,2.263-1.186,3.553l-1.66,4.539h-.921l-1.521-4.456c-.447-1.319-.824-2.526-1.089-3.636h-.028c-.028,1.166-.1,2.735-.182,4.135l-.251,4.012H360.08l.656-9.354h1.549l1.6,4.524c.39,1.151.712,2.179.949,3.151h.042c.237-.945.572-1.971.99-3.151l1.674-4.524h1.549l.586,9.354h-1.186Zm-12.568-1.609a1.719,1.719,0,0,0-1.647,1.569,3.4,3.4,0,0,0-.056.568v3.582h-1.214v-4.621c0-.791-.014-1.471-.055-2.1h1.074l.042,1.318h.056a2.025,2.025,0,0,1,1.869-1.471,1.328,1.328,0,0,1,.349.042v1.152A1.838,1.838,0,0,0,355.689,530.73Zm-6.052,4.622h-.028a2.542,2.542,0,0,1-2.232,1.249c-1.06,0-2.33-.582-2.33-2.942v-3.927h1.228v3.719c0,1.277.391,2.137,1.507,2.137a1.72,1.72,0,0,0,1.73-1.735v-4.122h1.228v4.885c0,.694.013,1.305.055,1.832h-1.088ZM340.18,536.6a3.2,3.2,0,0,1-3.237-3.455,3.288,3.288,0,0,1,3.349-3.568,3.188,3.188,0,0,1,3.251,3.456A3.291,3.291,0,0,1,340.18,536.6Zm.084-6.106c-1.45,0-2.079,1.332-2.079,2.609,0,1.471.851,2.581,2.051,2.581,1.172,0,2.051-1.1,2.051-2.609C342.288,531.937,341.716,530.494,340.264,530.494Zm-5.955,5.954h-1.228v-3.969l-2.972-5.384h1.381l1.326,2.581c.362.708.642,1.277.935,1.929h.028c.265-.611.587-1.221.949-1.929l1.353-2.581h1.381l-3.153,5.37Zm117.428,0H450.51v-6.717h1.227Zm58,0h-1.228v-6.717h1.228Z" transform="translate(-330.109 -526.941)" fill="#676769" fill-rule="evenodd"/>
            </g>
          </g>
        </g>
      </g>
    </g>
    <g id="ICON" transform="translate(17.803 366.502)">
      <path id="Path_5" data-name="Path 5" d="M28.836,483.822,48.978,465.8l9.011,8.481,8.481-7.421,19.613,15.9S83.962,502.9,55.339,502.9C32.37,502.9,28.836,483.822,28.836,483.822Z" transform="translate(-25.126 -432.407)" fill="#fff" fill-rule="evenodd"/>
      <path id="Path_6" data-name="Path 6" d="M28.131,441.978l19.612-18.022,9.011,8.481,8.481-7.421,19.613,15.9s5.565-38.164-28.093-38.164C18.166,402.754,28.131,441.978,28.131,441.978Z" transform="translate(-23.891 -390.563)" fill="#82ca21" fill-rule="evenodd"/>
      <path id="Path_7" data-name="Path 7" d="M80.892,513.644v-3.71H84.6v3.71Zm-4.77,0v-3.71h3.71v3.71Zm3.71,1.06v3.711h-3.71V514.7Zm4.771,0v3.711H80.892V514.7Z" transform="translate(-56.51 -461.698)" fill="#82ca21" fill-rule="evenodd"/>
      <path id="Path_8" data-name="Path 8" d="M83,408.112a32.577,32.577,0,0,1-38.252,32.1L31.584,444.95l3.757-7.929a32.592,32.592,0,0,1,12.4-61.391v-4.887H45.1a2.121,2.121,0,0,1,0-4.241H55.7a2.121,2.121,0,0,1,0,4.241H53.047v4.886A32.6,32.6,0,0,1,83,408.112Zm-32.6,27.3a27.306,27.306,0,0,0,25.143-16.65l-16.4-15.684-4.961,5.177L67.527,421.1H60.371L41.655,403.076l-16.4,15.684A27.305,27.305,0,0,0,50.4,435.41Zm-27.3-27.3a27.448,27.448,0,0,0,.522,5.32l18.03-17.246,9.1,8.76,8.394-8.76,18.03,17.246a27.3,27.3,0,1,0-54.073-5.32Z" transform="translate(-17.803 -366.502)" fill="#282828" fill-rule="evenodd"/>
      <path id="Path_9" data-name="Path 9" d="M127.771,418.506a1.231,1.231,0,1,0,1.22,1.231A1.226,1.226,0,0,0,127.771,418.506Zm18.883,19.512a26.55,26.55,0,0,0-14.8-17.965c-1.8-.737-2.637,1.986-.725,2.868a23.565,23.565,0,0,1,12.36,15.159C144.23,440.546,147.018,439.989,146.654,438.018Z" transform="translate(-89.979 -401.017)" fill="#fff" fill-rule="evenodd"/>
    </g>
  </g>
</svg>
