<svg xmlns="http://www.w3.org/2000/svg" width="211.333" height="199.59" viewBox="0 0 211.333 199.59">
  <g id="Group_549" data-name="Group 549" transform="translate(-106.453 -89.008)">
    <g id="Group_513" data-name="Group 513" transform="translate(106.453 116.234)">
      <path id="Path_422" data-name="Path 422" d="M119.937,116.5c4.287,1.936,13.959,22.288,9.285,24.838-1.68.917-3.918-.5-5.267-3.465-1.959-4.3-4.971-9.513-7.183-13.257Z" transform="translate(-93.406 -81.475)" fill="#0faab2"/>
      <path id="Path_423" data-name="Path 423" d="M118.508,110.4a11.689,11.689,0,0,1,1.909,5.643c.159,3.2-.186,7.724,2.722,5.68-.181,3.27-4.751,6.522-7.283,4.964s-2.489-9.638-2.489-9.638Z" transform="translate(-97.711 -89.182)" fill="#aa4805"/>
      <g id="Group_502" data-name="Group 502" transform="translate(0 14.084)">
        <path id="Path_424" data-name="Path 424" d="M110.191,108.685s-2.713-1.606-3.141-1.42-.754,3.592-.516,3.947,3.422-.831,3.422-.831Z" transform="translate(-106.453 -107.25)" fill="#2e2b3d"/>
        <path id="Path_425" data-name="Path 425" d="M109.638,108.495a23.007,23.007,0,0,0-2.86,1.617c-.208.3.9,1.9,1.232,1.875s2.256-2.84,2.256-2.84Z" transform="translate(-106.076 -105.677)" fill="#2e2b3d"/>
      </g>
      <path id="Path_426" data-name="Path 426" d="M108.683,108.633a9.234,9.234,0,0,0-1.327,6.429c.383,3.148,4.058,7.645,2.661,10.951a2.426,2.426,0,0,1-3,1.635s5.27,6.452,13.023.385c5.994-4.692.057-14.668.057-14.668Z" transform="translate(-105.738 -91.418)" fill="#ba5604"/>
      <path id="Path_427" data-name="Path 427" d="M117.266,102.5s2.835-.426,3.743,2.937-1.544,6.723-1.544,6.723l-3.818-6.271Z" transform="translate(-94.828 -99.196)" fill="#ba5604"/>
      <path id="Path_428" data-name="Path 428" d="M120.042,126.33c4.3-3.363,2.464-9.427,1.082-12.6l-8.562-3.75s-1.044,1.078-1.1,4.06c-.032,1.748,3.032,8.632.249,11.511a3.427,3.427,0,0,1-4.694.394S112.289,132.4,120.042,126.33Z" transform="translate(-105.738 -89.715)" fill="#aa4805"/>
      <path id="Path_429" data-name="Path 429" d="M120.977,117.141c-.172-.505-.351-.983-.53-1.413-1.676,1.368-3.082,2.317-3.657,2.21-2.36-.433-7.17-3.7-9.058-9.235-.009.018-.034.066-.045.084.154,6.443,6.984,10.639,9.545,11.11C117.827,120.005,119.224,118.583,120.977,117.141Z" transform="translate(-104.895 -91.329)" fill="#aa4805"/>
      <path id="Path_430" data-name="Path 430" d="M128.366,124.9c2.219,8.689-8.277,18.868-8.277,18.868l-1.918-3.415a48.226,48.226,0,0,0,4.02-13.042C122.544,124.312,128.366,124.9,128.366,124.9Z" transform="translate(-91.636 -70.91)" fill="#0faab2"/>
      <g id="Group_505" data-name="Group 505" transform="translate(7.791 105.422)">
        <path id="Path_431" data-name="Path 431" d="M122.2,147.586a131.483,131.483,0,0,1-.07,14.371c-.711,7.446-.584,9.35-1.64,22.07s-2.049,21.011-2.049,21.011l-1.746.217s-4.919-20.92-4.069-27.958a65.991,65.991,0,0,1,3.872-14.489l-3.7-15.225Z" transform="translate(-106.566 -147.584)" fill="#ed9558"/>
        <path id="Path_432" data-name="Path 432" d="M115.986,152.439s-.6.718-1.438,1.78l.6,2.45s-.709,2.342-1.549,4.991a21.785,21.785,0,0,0,6.735-.514c.113-1.581.247-3.236.446-5.328.1-1,.159-2.142.2-3.324Z" transform="translate(-105.213 -141.445)" fill="#d87239"/>
        <path id="Path_433" data-name="Path 433" d="M121.609,147.644a133.186,133.186,0,0,1-.978,14.4c-1.18,7.459-1.173,9.368-3.032,22.116s-3.372,20.8-3.372,20.8l-1.76.217s-3.585-20.712-2.292-27.766a70.226,70.226,0,0,1,4.78-14.52l-2.731-15.254Z" transform="translate(-109.894 -147.511)" fill="#ffb476"/>
        <path id="Path_434" data-name="Path 434" d="M114.268,152.507s-.641.72-1.549,1.782l.439,2.455s-.838,1.8-1.843,4.452a33.47,33.47,0,0,0,6.73.439c.211-1.583.457-3.646.788-5.741.161-1.008.294-2.147.408-3.333Z" transform="translate(-108.097 -141.359)" fill="#ed9558"/>
        <g id="Group_503" data-name="Group 503" transform="translate(9.071 57.425)">
          <path id="Path_435" data-name="Path 435" d="M119.172,180.324s2.575,1.044,2.62,1.547-3.1.564-5.109.369c-.926-.091-1.012-3.05-1.852-4.69s-1.667-1.637.179-4.516l1.825,5.836Z" transform="translate(-113.9 -172.826)" fill="#2d313d"/>
          <path id="Path_436" data-name="Path 436" d="M116.491,172.942s.691,2.237,1.178,3.829a17.67,17.67,0,0,0,1.325,3.669,3.358,3.358,0,0,1-2.188.188c-.951-.365-1.015-2.552-2.618-5.014-.575-.881.725-2.6.725-2.6Z" transform="translate(-113.72 -172.942)" fill="#ed9558"/>
          <path id="Path_437" data-name="Path 437" d="M114.955,173.034a9.219,9.219,0,0,0,.183,2.19c.233,1.015,1.1,6.291,3.979,5.1,0,0-.876,1.966-2.083,1.329s-1.569-3.1-2.147-4.375S113.051,175.774,114.955,173.034Z" transform="translate(-113.845 -172.826)" fill="#2d313d"/>
          <path id="Path_438" data-name="Path 438" d="M113.947,174.381a35.3,35.3,0,0,1,.978,6.157h.414a23.331,23.331,0,0,1-.034-4.106Z" transform="translate(-113.839 -171.122)" fill="#2d313d"/>
        </g>
        <g id="Group_504" data-name="Group 504" transform="translate(1.402 57.425)">
          <path id="Path_439" data-name="Path 439" d="M115.54,180.324s2.52,1.044,2.541,1.547-3.125.564-5.127.369c-.922-.091-.856-3.05-1.61-4.69s-1.583-1.637.412-4.516l1.522,5.836Z" transform="translate(-110.513 -172.826)" fill="#2d313d"/>
          <path id="Path_440" data-name="Path 440" d="M113.229,172.942s.575,2.237.981,3.829a16.871,16.871,0,0,0,1.135,3.669,3.414,3.414,0,0,1-2.2.188c-.933-.365-.881-2.552-2.36-5.014-.528-.881.858-2.6.858-2.6Z" transform="translate(-110.317 -172.942)" fill="#ffb476"/>
          <path id="Path_441" data-name="Path 441" d="M111.7,173.034a9.136,9.136,0,0,0,.068,2.19c.181,1.015.781,6.291,3.716,5.1,0,0-.976,1.966-2.149,1.329s-1.413-3.1-1.923-4.375S109.648,175.774,111.7,173.034Z" transform="translate(-110.452 -172.826)" fill="#2d313d"/>
          <path id="Path_442" data-name="Path 442" d="M110.549,174.381a34.382,34.382,0,0,1,.659,6.157h.414a23.345,23.345,0,0,1,.179-4.106Z" transform="translate(-110.467 -171.122)" fill="#2d313d"/>
        </g>
      </g>
      <path id="Path_443" data-name="Path 443" d="M109.037,133.278s-7.523,18.1,4.848,46.457l20.256.423c7.088-25.148,2.86-45.7,2.86-45.7Z" transform="translate(-106.051 -60.253)" fill="#3d3d5b"/>
      <path id="Path_444" data-name="Path 444" d="M107.494,135.712l-.038-.177a13.709,13.709,0,0,1,.716-2.258l27.965,1.182s.269,2.015.378,2.831C136.5,137.3,120.733,140.2,107.494,135.712Z" transform="translate(-105.186 -60.253)" fill="#323249"/>
      <path id="Path_445" data-name="Path 445" d="M113.3,188.189c-11.45-28.814-4.291-46.46-4.291-46.46,2.874-7.652,9.3-12.792,10.48-15.136l11.2,1.415s-12.265-4.158-15.238,14.665c-2.883,18.257-2.781,40.329,18.667,45.939C134.111,188.612,121.022,191.164,113.3,188.189Z" transform="translate(-106.02 -68.706)" fill="#323249"/>
      <path id="Path_446" data-name="Path 446" d="M130.239,116.686s-2.09-7.088-1.517-10.15c-.845-6.753-17.31-8.626-20.583,2.1-3.481,11.409,5.544,18.359,9.07,19.006C119.133,127.993,130.239,116.686,130.239,116.686Z" transform="translate(-105.314 -101.031)" fill="#ba5604"/>
      <path id="Path_447" data-name="Path 447" d="M117.656,139.469c-.2-1.1-4.529-4.355-6.857-9.246-2.98-6.266-2.362-9.774-2.362-9.774,7.81-4.583,12.34-5.942,22.107-3.143l1.112,5.754s2.355,4.149,2.289,6.162c-.453,2.91-6,8.218-5.691,11.2Z" transform="translate(-104.013 -82.285)" fill="#1ac4c9"/>
      <path id="Path_448" data-name="Path 448" d="M109.947,118.547c.059.066,5.5,6.345,12.727,7.7a20.783,20.783,0,0,0,2.659-9.74C118.987,115.161,115.1,115.906,109.947,118.547Z" transform="translate(-102.036 -82.291)" fill="#f4e4ec"/>
      <path id="Path_449" data-name="Path 449" d="M107.772,147.846c3.218-9.294,10.949-14.215,10.659-15.841-.181-1.005-4.624-4.332-6.959-9.5,16.785,2.6,23.246-.745,23.246-.745l-.1.817c-.854,2.486-5.863,7.743-5.589,10.383.31,2.98,5.229,7.228,6.71,16.069C128.348,150,117.093,149.54,107.772,147.846Z" transform="translate(-104.786 -74.821)" fill="#0faab2"/>
      <g id="Group_506" data-name="Group 506" transform="translate(2.986 72.112)">
        <path id="Path_450" data-name="Path 450" d="M108.123,132.875c-.118.3-.242.6-.351.91,9.321,1.7,20.576,2.158,27.965,1.184-.054-.337-.147-.625-.213-.949C128.225,134.949,117.292,134.5,108.123,132.875Z" transform="translate(-107.772 -132.875)" fill="#dbb4d1"/>
      </g>
      <path id="Path_451" data-name="Path 451" d="M110.757,110.5s3.155,8.2,1.859,14.251l6.049.385,3.116-.885a24.5,24.5,0,0,1-1.9-8.476C119.716,112.151,110.757,110.5,110.757,110.5Z" transform="translate(-101.011 -89.059)" fill="#ed9558"/>
      <path id="Path_452" data-name="Path 452" d="M120.517,120.253a25.792,25.792,0,0,1-.734-4.445c-2.532-2.353-7.607-4.337-8.906-4.762.779,2.45,2.319,7.228,1.676,11.6-.836.317,3.872,3.007,5.319,1.356A18.3,18.3,0,0,0,120.517,120.253Z" transform="translate(-100.86 -88.368)" fill="#d87239"/>
      <path id="Path_453" data-name="Path 453" d="M122.635,127.953c.881-.188,2.063-1.938,2.849-2.865,1.667-1.968,3.159-4.309,1.549-8.945,0,0,2.473-12.577-7.668-12.654s-10.8,10.039-7.858,17.306A11.327,11.327,0,0,0,122.635,127.953Z" transform="translate(-101.992 -97.923)" fill="#ffb476"/>
      <path id="Path_454" data-name="Path 454" d="M116.822,103.6c-6.927,1.938-5.856,23.5,5.913,24.17a.993.993,0,0,1-.1.041,11.327,11.327,0,0,1-11.128-7.158C108.831,114.054,109.155,105.134,116.822,103.6Z" transform="translate(-101.988 -97.781)" fill="#ed9558"/>
      <path id="Path_455" data-name="Path 455" d="M116.968,107.285a5.313,5.313,0,0,0-1.277,4.355,3.706,3.706,0,0,0,2.64,2.853s-.392,1.773-1.984,1.877,1.148-1.705,1.148-1.705-2.235-1.187-2.557-2.933C114.484,109.251,116.968,107.285,116.968,107.285Z" transform="translate(-95.793 -93.122)" fill="#ed9558"/>
      <path id="Path_456" data-name="Path 456" d="M116.654,107.47c.059.267-.854.249-2.514.711-1.517.421-2.607,1.064-2.679.8s.679-1.18,2.45-1.7C115.624,106.784,116.543,106.959,116.654,107.47Z" transform="translate(-100.126 -93.5)" fill="#ba5604"/>
      <path id="Path_457" data-name="Path 457" d="M119.945,108.394c-.077.313-.269-.12-1.674-.48-1.132-.29-2.378-.31-2.364-.528.041-.659,1.418-.611,2.448-.26C119.761,107.606,119.995,108.188,119.945,108.394Z" transform="translate(-94.499 -93.643)" fill="#ba5604"/>
      <g id="Group_507" data-name="Group 507" transform="translate(16.296 24.125)">
        <path id="Path_458" data-name="Path 458" d="M114.1,112.189c-.027.077-.272.066-.349.041a.15.15,0,1,1,.1-.285C113.925,111.972,114.126,112.11,114.1,112.189Z" transform="translate(-113.649 -111.365)" fill="#93271c"/>
        <path id="Path_459" data-name="Path 459" d="M116.594,112.037c.054.063.276-.036.34-.091a.15.15,0,0,0,.016-.211.147.147,0,0,0-.208-.016C116.678,111.772,116.542,111.974,116.594,112.037Z" transform="translate(-109.94 -111.684)" fill="#93271c"/>
        <path id="Path_460" data-name="Path 460" d="M113.766,112.293l6.538-.491a4.045,4.045,0,0,1-3.016,2.237A4.376,4.376,0,0,1,113.766,112.293Z" transform="translate(-113.502 -111.535)" fill="#9a6335"/>
        <path id="Path_461" data-name="Path 461" d="M113.766,112.293l6.538-.491a4.045,4.045,0,0,1-3.016,2.237A4.376,4.376,0,0,1,113.766,112.293Z" transform="translate(-113.502 -111.535)" fill="#93271c"/>
        <path id="Path_462" data-name="Path 462" d="M113.984,112.308l5.292-.405a3.3,3.3,0,0,1-2.663,1.769A3.264,3.264,0,0,1,113.984,112.308Z" transform="translate(-113.226 -111.407)" fill="#f4e6e1"/>
        <path id="Path_463" data-name="Path 463" d="M113.984,112.308l5.292-.405-.269.421a5.073,5.073,0,0,0-2.328-.115,9.944,9.944,0,0,0-2.419.437S114.061,112.408,113.984,112.308Z" transform="translate(-113.226 -111.407)" fill="#d5b698"/>
      </g>
      <path id="Path_464" data-name="Path 464" d="M113.983,105.222c-6.8,4.135-3.46,12.971-3.46,12.971s1.128.765,1.574.648c.668-.177.231-.756.131-3.569.258-5.372,4.715-5.834,10.614-7.736a3.81,3.81,0,0,0,2.973-3.995S122,100.521,113.983,105.222Z" transform="translate(-102.344 -99.065)" fill="#ba5604"/>
      <g id="Group_508" data-name="Group 508" transform="translate(12.289 16.515)">
        <path id="Path_465" data-name="Path 465" d="M116.059,109.037s.222,1.794-2.231,1.66c-1.47-.159-1.726-1.169-1.572-1.236S116.059,109.037,116.059,109.037Z" transform="translate(-111.453 -107.422)" fill="#562824"/>
        <path id="Path_466" data-name="Path 466" d="M116.486,109.939l-3.673.539-.933-.236a3.918,3.918,0,0,1,1.957-1.8C114.991,108.075,116.45,108.555,116.486,109.939Z" transform="translate(-111.88 -108.324)" fill="#562824"/>
        <path id="Path_467" data-name="Path 467" d="M115.953,109.706c-.066-.618-.722-1.377-2.031-1.123-1.291.249-1.827,1.264-1.547,1.88C112.846,111.488,116.034,111.57,115.953,109.706Z" transform="translate(-111.346 -108.059)" fill="#f4e6e1"/>
        <path id="Path_468" data-name="Path 468" d="M112.709,109.909a1.406,1.406,0,1,0,1.39-1.424A1.406,1.406,0,0,0,112.709,109.909Z" transform="translate(-110.832 -108.12)" fill="#562824"/>
      </g>
      <g id="Group_509" data-name="Group 509" transform="translate(21.293 15.909)">
        <path id="Path_469" data-name="Path 469" d="M115.868,109s.195,1.3,2.015.983c1.381-.242,1.483-1.148,1-.967A16.139,16.139,0,0,1,115.868,109Z" transform="translate(-115.841 -106.873)" fill="#562824"/>
        <path id="Path_470" data-name="Path 470" d="M115.883,110.182c.589.233,1.875-.125,3.188-.5l.65-.3a2.343,2.343,0,0,0-2.423-1.286A1.877,1.877,0,0,0,115.883,110.182Z" transform="translate(-115.856 -108.056)" fill="#562824"/>
        <path id="Path_471" data-name="Path 471" d="M115.893,109.583a1.533,1.533,0,0,1,1.852-1.277c1.289.134,1.558,1.246,1.338,1.649C118.457,111.1,115.866,111.283,115.893,109.583Z" transform="translate(-115.809 -107.758)" fill="#f4e6e1"/>
        <path id="Path_472" data-name="Path 472" d="M116.2,109.567a1.3,1.3,0,1,0,1.279-1.313A1.3,1.3,0,0,0,116.2,109.567Z" transform="translate(-115.419 -107.806)" fill="#562824"/>
      </g>
      <path id="Path_473" data-name="Path 473" d="M123.707,116.276l-1.1,5.673-3.453-3.419L117.1,122.9l-6.579-5.068a12.347,12.347,0,0,1,2.588-1.033c1.563-.523,3.61.179,5.256.07,1.044-.068,1.626-1.078,2.779-.971C122.235,116,123.707,116.276,123.707,116.276Z" transform="translate(-101.305 -82.235)" fill="#dbb4d1"/>
      <path id="Path_474" data-name="Path 474" d="M112.537,114.9l-1.765,3.661,5.623,4,2.128-4.549Z" transform="translate(-100.993 -83.491)" fill="#f4e4ec"/>
      <path id="Path_475" data-name="Path 475" d="M118.687,117.124l-1.075,4.732-3.417-3.574,2.418-3.592Z" transform="translate(-96.664 -83.759)" fill="#f4e4ec"/>
      <g id="Group_510" data-name="Group 510" transform="translate(6.472 19.293)">
        <path id="Path_476" data-name="Path 476" d="M109.315,111.819a2.145,2.145,0,1,0,2.018-2.265A2.144,2.144,0,0,0,109.315,111.819Z" transform="translate(-109.311 -109.55)" fill="#ed9558"/>
        <path id="Path_477" data-name="Path 477" d="M110.955,109.886a1.35,1.35,0,0,1,.829.245,1.185,1.185,0,1,0-.233,2.326,1.091,1.091,0,0,0,.281-.072,1.346,1.346,0,0,1-.716.279,1.39,1.39,0,1,1-.161-2.776Z" transform="translate(-108.891 -109.128)" fill="#d87239"/>
      </g>
      <path id="Path_478" data-name="Path 478" d="M109.541,117.969c-7.962,3.365,9.67,33.964,15.487,30.51,1.941-1.153,1.834-3.721-1.209-10.134C120.968,135.573,114.982,115.9,109.541,117.969Z" transform="translate(-105.117 -79.804)" fill="#1ac4c9"/>
      <g id="Group_512" data-name="Group 512" transform="translate(38.449 70.987)">
        <g id="Group_511" data-name="Group 511" transform="translate(2.249)">
          <g id="wrist_left" data-name="wrist left">
            <path id="Path_479" data-name="Path 479" d="M124.685,134.937a5.514,5.514,0,0,1,1.674-1.121c.824-.36,1.963-.63,3.021-1.037a4.443,4.443,0,0,1,1.135-.394c.136.084.063.7-.849,1.13a12.777,12.777,0,0,0-1.855,1.125Z" transform="translate(-124.096 -132.378)" fill="#ffb476"/>
            <path id="Path_480" data-name="Path 480" d="M124.833,136.252a18.341,18.341,0,0,0,5.387.736c2.529-.138,3.209-.623,3.177-.892s-.482-.1-1.334-.009c-.7.079-1.415.238-1.409.113a6.585,6.585,0,0,1,1.694-.394c.249-.025,1.968-.276,1.97-.707,0-.412-1.227-.222-1.9-.118a7.152,7.152,0,0,1-1.642.052,7.857,7.857,0,0,1,1.762-.224c.249-.02,2.095-.129,2.133-.528s-.387-.491-1.963-.353a9.446,9.446,0,0,1-1.88.1c.016-.356,3.272-.1,3.349-.722.039-.312-.693-.31-1.653-.263-.981.05-2.62.233-3.462.177a5.955,5.955,0,0,0-4.051.913S123.818,135.319,124.833,136.252Z" transform="translate(-124.425 -131.571)" fill="#ffb476"/>
          </g>
        </g>
        <path id="Path_481" data-name="Path 481" d="M126.088,135.916l-2.656.227.331-2.859,2.51.507Z" transform="translate(-123.432 -131.234)" fill="#ffb476"/>
      </g>
      <path id="Path_482" data-name="Path 482" d="M117.652,126.886c7.688,9.337,21.713,14.26,21.713,14.26l-.421,3.56s-16.622-.423-26.554-11.051Z" transform="translate(-98.948 -68.336)" fill="#1ac4c9"/>
      <path id="Path_483" data-name="Path 483" d="M125.619,104.531c1.44,2.937-12.892,8.635-16.617,4-1.966-2.448,1.891-5.9,6.495-6.907C119.613,100.718,124.357,101.957,125.619,104.531Z" transform="translate(-103.896 -100.655)" fill="#ce6f09"/>
      <path id="Path_484" data-name="Path 484" d="M117.164,103.071c2.072-.917,2.543,4.026,1.619,4.488S115.749,103.7,117.164,103.071Z" transform="translate(-93.51 -98.594)" fill="#ce6f09"/>
      <path id="Path_485" data-name="Path 485" d="M114.608,116.823l-.426.1a46.852,46.852,0,0,0,2.86,8.014c.1.02.181.057.276.075,0,0,.05-.086.131-.236A45.884,45.884,0,0,1,114.608,116.823Z" transform="translate(-96.68 -81.061)" fill="#dbb4d1"/>
    </g>
    <g id="Group_524" data-name="Group 524" transform="translate(171.102 109.849)">
      <path id="Path_486" data-name="Path 486" d="M152.914,175.256s-.061,2.054,2.6,3.286,2.833.956,2.731,1.78-7.466.41-7.482-.548a31.418,31.418,0,0,0,.276-4.518C150.887,173.067,152.914,175.256,152.914,175.256Z" transform="translate(-115.077 -2.014)" fill="#2d313d"/>
      <g id="Group_514" data-name="Group 514" transform="translate(1.488 173.138)">
        <path id="Path_487" data-name="Path 487" d="M143.617,175.51a8.588,8.588,0,0,1-3.8,2.847c-2.64,1.067-4.321.827-4.144,1.54s10.342.356,10.277-.476a23.85,23.85,0,0,1-.67-3.911C145.243,173.612,143.617,175.51,143.617,175.51Z" transform="translate(-135.658 -174.667)" fill="#2d313d"/>
      </g>
      <path id="Path_488" data-name="Path 488" d="M152.524,100.345c6.909,1.338,3.768,19.636-2.4,20.639C145.284,121.772,140.662,98.37,152.524,100.345Z" transform="translate(-122.315 -95.662)" fill="#ba5604"/>
      <path id="Path_489" data-name="Path 489" d="M145.427,114.208c-3.528-1.27-5.886,6.83-8.01,16.3-1.13,5.03-4.21,15.58.41,17.677C146.726,152.225,153.044,116.948,145.427,114.208Z" transform="translate(-134.546 -78.149)" fill="#323249"/>
      <path id="Path_490" data-name="Path 490" d="M168.916,131.5l-29.555,4.389c.242,64.445-.772,93.648-.772,93.648l4.362.847s6.483-21.71,7.489-28.388c.727-4.821-.829-17.79-.829-17.79l3.666-26.122,2.534.086a250.529,250.529,0,0,1,4.864,26.993c.711,5.358.12,11.749.856,17.8,1.094,9,2.722,17.94,3.607,27.145h5.073s3.082-22.449,2.4-28.884c-.575-5.4-1.882-17.023-1.882-17.023l.129-43.966Z" transform="translate(-130.465 -56.12)" fill="#3d3d5b"/>
      <path id="Path_491" data-name="Path 491" d="M159.028,131.5l-12.62,1.821c1.345,9.821,4.058,18.1,5.236,18.846,1.517.967,6.486-1.941,9.113-3.8l.115-8.132Z" transform="translate(-120.577 -56.12)" fill="#323249"/>
      <path id="Path_492" data-name="Path 492" d="M138.916,134.142c-.007.845-.016,1.669-.025,2.5.269.127,11.044,5.1,31.382,1.746l.05-.254.02-1.354-.564-2.665C164.628,134.067,145.929,134.119,138.916,134.142Z" transform="translate(-130.083 -52.831)" fill="#323249"/>
      <path id="Path_493" data-name="Path 493" d="M153.734,136.279l-14.366-1.325c.106,62.026-.779,90.206-.779,90.206l4.362.847s6.483-21.71,7.489-28.388c.727-4.821-.829-17.79-.829-17.79l3.666-26.122,2.534.086L154,151.334Z" transform="translate(-130.465 -51.748)" fill="#323249"/>
      <path id="Path_494" data-name="Path 494" d="M170.776,162.168s2.086-28.547-.1-46.342c0,0-5.451-3.118-17.183-2.871-8.666.183-13.769,2.93-13.769,2.93-2.3,8.791-1.092,15.687-.645,26.382.3,7.127.233,19.428.233,19.428A63.545,63.545,0,0,0,170.776,162.168Z" transform="translate(-130.747 -79.584)" fill="#f7e8f0"/>
      <path id="Path_495" data-name="Path 495" d="M150.793,115.542l-.75-1.323-1.9,1.393-1.991.023-1.945-1.533-.9,1.569,1.979,2.013.822,2.462h0c-.716,3.055-3.1,13.637-3.589,20.732l3.259,6.7,3.358-6.282c-.643-5.906-1.1-18.178-1.2-21.3l1.107-2.362Z" transform="translate(-125.49 -78.116)" fill="#dbb4d1"/>
      <path id="Path_496" data-name="Path 496" d="M138.375,121.589c.24,3.107.546,6.409.7,9.984.3,7.127.233,19.428.233,19.428a63.545,63.545,0,0,0,31.461.473s1.058-14.5.876-29.276l-.17-.8S151.985,124.678,138.375,121.589Z" transform="translate(-130.735 -68.891)" fill="#dbb4d1"/>
      <path id="Path_497" data-name="Path 497" d="M145.483,115.96l-.58-.05c-.023.242-2.142,24.034-.781,44.027.188.016.394.023.584.036C143.341,140,145.461,116.2,145.483,115.96Z" transform="translate(-124.044 -75.83)" fill="#ba8cb3"/>
      <path id="Path_498" data-name="Path 498" d="M145.7,119.958l-2.09,3.607-2.212-9.547a38.886,38.886,0,0,1,8.263-1.062,48.916,48.916,0,0,1,9.294.632l-7.693,9.491-1.524-3.121-2.038,3.336Z" transform="translate(-126.913 -79.583)" fill="#dbb4d1"/>
      <path id="Path_499" data-name="Path 499" d="M153.56,105.556s-1.587,11.508.6,17.5c-3.492,1.282-10.281,3.016-11.416-.22,0,0,.557-1.85.2-6.9Z" transform="translate(-125.207 -88.923)" fill="#e08344"/>
      <path id="Path_500" data-name="Path 500" d="M141.923,113.659s.405,4.14,6.173,4.307a10,10,0,0,0,8.537-4.434A37.135,37.135,0,0,0,141.923,113.659Z" transform="translate(-126.249 -79.659)" fill="#ed9558"/>
      <path id="Path_501" data-name="Path 501" d="M153.255,107.951l-1.332-1.572-8.558,1.085c.181,2.563-.419,11.71-.516,12.795,1.1,1.264,3.607,3.485,8.522,5.195a8.732,8.732,0,0,0,4.321-3.723,5.89,5.89,0,0,0-1.843-.34C152.317,116.665,153.255,107.951,153.255,107.951Z" transform="translate(-125.078 -87.882)" fill="#d1652f"/>
      <path id="Path_502" data-name="Path 502" d="M144.474,113.908l1.218,2.76,1.04-2.76,1.194,2.847-2.263,2.087L143.3,116.5Z" transform="translate(-124.513 -78.361)" fill="#e5c3da"/>
      <g id="Group_515" data-name="Group 515" transform="translate(16.041 35.595)">
        <path id="Path_503" data-name="Path 503" d="M147.712,116.219s.319,15.254.983,22.061l-3.428,6.241-3.182-6.732c.673-8.356,4.035-21.57,4.035-21.57Z" transform="translate(-142.085 -111.034)" fill="#28283d"/>
        <path id="Path_504" data-name="Path 504" d="M145.4,115.484l-1.928-1.555-.918,1.561,1.957,2.033.659-.886Z" transform="translate(-141.489 -113.929)" fill="#28283d"/>
        <path id="Path_505" data-name="Path 505" d="M144.78,115.382l1.91-1.371.734,1.331-1.772,2.067-1.028-.69Z" transform="translate(-138.874 -113.827)" fill="#28283d"/>
        <path id="Path_506" data-name="Path 506" d="M146.3,114.616h-1.992l-.889,2.039.793,2.471,1.743.04,1.217-2.523Z" transform="translate(-140.396 -113.061)" fill="#323249"/>
      </g>
      <path id="Path_507" data-name="Path 507" d="M146.27,116.2l-2.588,5.937-1.8-7.492L143.9,112.1Z" transform="translate(-126.301 -80.65)" fill="#f7e8f0"/>
      <path id="Path_508" data-name="Path 508" d="M144.813,116.85l2.5,5.937,6.5-7.693-2.589-3.513Z" transform="translate(-122.595 -81.303)" fill="#f7e8f0"/>
      <path id="Path_509" data-name="Path 509" d="M139.71,128.28l-.109-11.873-.6,0,.106,11.4c.168.19.328.39.505.571Z" transform="translate(-129.941 -75.201)" fill="#dbb4d1"/>
      <path id="Path_510" data-name="Path 510" d="M153.064,113.227s-4.574,5.025-6.574,20.476,3.453,38.35,5.453,39.623,10-4.18,10.723-5.088-.867-17.1-.793-23.454-1.449-29.48-1.449-29.48A29.034,29.034,0,0,0,153.064,113.227Z" transform="translate(-121.022 -79.223)" fill="#3d3d5b"/>
      <path id="Path_511" data-name="Path 511" d="M145.735,113.417s-1.012,8.413-1.012,26.042,1.27,31.627-.183,32.9-5.27-4.18-5.634-5.634.5-19.935.423-23.024c-.181-7.453-3.478-18.572.9-28.418A27.333,27.333,0,0,1,145.735,113.417Z" transform="translate(-131.25 -78.982)" fill="#323249"/>
      <path id="Path_512" data-name="Path 512" d="M142.533,116.3s.018.068-1.746-5.91c0,0-1.963-1-2.292-2.113-1.2-4.069,10.911-14.314,22-8.127C168.322,104.513,142.533,116.3,142.533,116.3Z" transform="translate(-130.688 -98.211)" fill="#ba5604"/>
      <path id="Path_513" data-name="Path 513" d="M156.1,115.07c-.084,5.661-.457,5.562-4.948,9.649-.962.876-4.137,1.171-5.025.75s-1.008-1.261-2.312-3.073a14.629,14.629,0,0,1-2.536-5.439c-.267-1.633-.2-2.758-.362-3.92-.3-2.235-.931-4.2-1.1-6.771-.165-2.534,2.693-4.427,6.511-4.7C155.067,100.937,155.4,104.589,156.1,115.07Z" transform="translate(-128.928 -94.057)" fill="#ffb476"/>
      <path id="Path_514" data-name="Path 514" d="M146.818,123.908c6.273-4.873,3.963-19.86,1.033-21.781,5.578.53,5.1,5.79,5.014,13.325-.115,4.108-.623,5.295-5.242,8.886-.99.768-4.063.815-4.885.342a1.431,1.431,0,0,1-.326-.263C143.586,124.694,145.966,124.57,146.818,123.908Z" transform="translate(-125.632 -93.258)" fill="#ed9558"/>
      <path id="Path_515" data-name="Path 515" d="M142.6,105.321a4.25,4.25,0,0,1,1.187,1.411c1.61,3.585-1.676,4.205-1.384,5.086.428,1.282,2.967.6,2.967.6-.188.915-3.057.938-3.456-.369-.469-1.538,2.878-1.721,1.585-5.141A10.617,10.617,0,0,0,142.6,105.321Z" transform="translate(-126.318 -89.22)" fill="#ed9558"/>
      <path id="Path_516" data-name="Path 516" d="M154.937,103.6s-.842,1.957-5.084.623c-8.963-2.819-10.064,2.12-10.064,2.12S140.5,95.641,154.937,103.6Z" transform="translate(-128.947 -95.122)" fill="#ba5604"/>
      <path id="Path_517" data-name="Path 517" d="M150.074,110.22l-.736,2.948-1.359.258s.274-8.3-2.987-11.35C144.992,102.077,152.334,100.605,150.074,110.22Z" transform="translate(-122.368 -93.424)" fill="#ba5604"/>
      <g id="Group_516" data-name="Group 516" transform="translate(26.496 16.591)">
        <path id="Path_518" data-name="Path 518" d="M146.743,108.261a2.291,2.291,0,1,0,1.816-2.681A2.29,2.29,0,0,0,146.743,108.261Z" transform="translate(-146.702 -105.537)" fill="#ed9558"/>
        <path id="Path_519" data-name="Path 519" d="M147.846,108.388a1.074,1.074,0,0,0-.476-2.095,1.287,1.287,0,0,1,.473-.233,1.273,1.273,0,1,1-.306,2.342A1.086,1.086,0,0,0,147.846,108.388Z" transform="translate(-145.857 -104.924)" fill="#d1652f"/>
      </g>
      <g id="Group_519" data-name="Group 519" transform="translate(12.063 16.315)">
        <g id="Group_517" data-name="Group 517" transform="translate(7.411)">
          <path id="Path_520" data-name="Path 520" d="M144.006,107.316c-1.021-.892.077-1.8,1.193-1.891a3.152,3.152,0,0,1,2.72,1.157l-.206.161S144.212,107.527,144.006,107.316Z" transform="translate(-143.601 -105.416)" fill="#562824"/>
          <path id="Path_521" data-name="Path 521" d="M143.82,107.138a1.305,1.305,0,0,1,1.232-1.506,2.625,2.625,0,0,1,2.457.962C147.543,106.911,145.074,108.859,143.82,107.138Z" transform="translate(-143.378 -105.178)" fill="#f7eee2"/>
          <path id="Path_522" data-name="Path 522" d="M146.6,106.114a1.4,1.4,0,0,0-.027-.14,2.5,2.5,0,0,0-1.628-.414,1.612,1.612,0,0,0-.938.451c0,.036-.02.068-.02.1a1.307,1.307,0,1,0,2.613,0Z" transform="translate(-143.118 -105.256)" fill="#562824"/>
        </g>
        <g id="Group_518" data-name="Group 518" transform="translate(0 1.043)">
          <path id="Path_523" data-name="Path 523" d="M140.713,107.674c-.965-.842.066-1.7,1.119-1.789a2.532,2.532,0,0,1,2.342,1.137l-.195.152S140.905,107.873,140.713,107.674Z" transform="translate(-140.328 -105.876)" fill="#562824"/>
          <path id="Path_524" data-name="Path 524" d="M140.536,107.523c-.154-.328.109-1.239,1.157-1.452a2.04,2.04,0,0,1,2.092.981C143.817,107.353,141.718,109.149,140.536,107.523Z" transform="translate(-140.117 -105.671)" fill="#f7eee2"/>
          <path id="Path_525" data-name="Path 525" d="M141.391,106.054a1.6,1.6,0,0,0-.609.263,1.173,1.173,0,0,0-.048.236,1.2,1.2,0,0,0,2.4.077A1.57,1.57,0,0,0,141.391,106.054Z" transform="translate(-139.815 -105.71)" fill="#562824"/>
        </g>
      </g>
      <path id="Path_526" data-name="Path 526" d="M149.025,104.22c-.22-.423-1.352.423-3.007.829s-2.953.12-2.887.818c.077.822,1.6,1.069,3.254.657C148.529,105.989,149.279,104.71,149.025,104.22Z" transform="translate(-124.725 -90.758)" fill="#aa4805"/>
      <path id="Path_527" data-name="Path 527" d="M140.027,107.167c.283.376.833-.215,1.936-.817s2.19-.75,1.941-1.406c-.288-.77-1.384-.639-2.482-.029C140,105.7,139.7,106.737,140.027,107.167Z" transform="translate(-128.796 -90.371)" fill="#aa4805"/>
      <path id="Path_528" data-name="Path 528" d="M146.446,105.821c-1.9-3.216,5.564-6.264,6.791-4.049C154.623,104.274,148.416,109.157,146.446,105.821Z" transform="translate(-120.919 -94.664)" fill="#ce6f09"/>
      <path id="Path_529" data-name="Path 529" d="M139.068,106.731c-1.42-1.809,6.968-9.912,16.269-7.951,3.784.8,4.017,3.569,1.705,5.258-2.074,1.515-6.021.913-9.239.879C141.219,104.846,140.137,108.094,139.068,106.731Z" transform="translate(-130.058 -97.876)" fill="#ce6f09"/>
      <g id="Group_520" data-name="Group 520" transform="translate(15.943 25.32)">
        <path id="Path_530" data-name="Path 530" d="M142.044,111.462a11.416,11.416,0,0,1,3.4-1.443c1.954-.31,1.909.716,2.038.614s-.242-1.517-2.106-1.193A4.676,4.676,0,0,0,142.044,111.462Z" transform="translate(-142.042 -109.392)" fill="#d87239"/>
        <path id="Path_531" data-name="Path 531" d="M144.735,110.584c-.057-.215-.5-.281-.994-.149s-.842.414-.784.63.5.281.994.147S144.794,110.8,144.735,110.584Z" transform="translate(-140.892 -108.159)" fill="#ed9558"/>
      </g>
      <path id="Path_532" data-name="Path 532" d="M143.072,122.514c-.442,2.554-.811,5.1-.987,7.315l3.182,6.732,3.428-6.241c-.2-2.022-.362-4.79-.5-7.679C146.505,122.65,144.791,122.609,143.072,122.514Z" transform="translate(-126.044 -67.479)" fill="#232335"/>
      <g id="Group_521" data-name="Group 521" transform="translate(10.439 29.372)">
        <path id="Path_533" data-name="Path 533" d="M144.214,112.323a1.4,1.4,0,0,1-.568,1.848,2.388,2.388,0,0,1-.913-.17Z" transform="translate(-135.663 -109.738)" fill="#ed9558"/>
        <path id="Path_534" data-name="Path 534" d="M141.108,113.683c-1.067,2.292-1.5,3.476-1.5,3.476l3.442.7.673-2.946Z" transform="translate(-139.611 -108.018)" fill="#ed9558"/>
        <path id="Path_535" data-name="Path 535" d="M140.272,116.846c.813-2.151,2.93-5.58,3.542-5.659s.761.716.761.716.616-.322.967-.127c.374.206.222.858.222.858s.666-.328.953.054a.907.907,0,0,1,.068.856c.505.045,1.508.392-1.372,2.867-1.445,1.241-2.924,2.009-3.118,2.48C141.823,119.43,140.272,116.846,140.272,116.846Z" transform="translate(-138.775 -111.181)" fill="#ffb476"/>
        <path id="Path_536" data-name="Path 536" d="M142.294,117.324c.195-.471,1.39-.981,3.118-2.48.62-.539,2.124-1.755,1.714-2.423.1.7-1.583,1.916-2.473,2.364a6.809,6.809,0,0,1-4.382.494S141.748,117.91,142.294,117.324Z" transform="translate(-138.775 -109.614)" fill="#ed9558"/>
        <path id="Path_537" data-name="Path 537" d="M142.4,112.285c.156.118.593-.514.944-.3s-.032.931.079,1.055.756-.491,1.094-.292-.136.919-.038,1.055.437-.136.666.183-.34,1.085-.34,1.085a1.251,1.251,0,0,0,.507-.494.882.882,0,0,0,0-.854.7.7,0,0,0-.505-.181.907.907,0,0,0-.068-.856c-.288-.383-.953-.054-.953-.054s.152-.652-.222-.858c-.351-.195-.967.127-.967.127s-.143-.793-.761-.716C142.481,111.327,142.248,112.167,142.4,112.285Z" transform="translate(-136.797 -111.181)" fill="#ed9558"/>
      </g>
      <g id="Group_523" data-name="Group 523" transform="translate(0 68.376)">
        <path id="Path_538" data-name="Path 538" d="M138.317,129.542c1.422-.258,4.466-1.137,4.466-1.137l.183,4.246-3.813-.562Z" transform="translate(-130.809 -128.405)" fill="#ed9558"/>
        <g id="Group_522" data-name="Group 522" transform="translate(0 1.075)">
          <path id="Path_539" data-name="Path 539" d="M137.016,128.992s-1.47,1.594-1.676,1.959a5.225,5.225,0,0,0-.26,2.45c.419.152.616-.279.84-1.644l1.433-1.624Z" transform="translate(-135.001 -128.737)" fill="#ed9558"/>
          <path id="Path_540" data-name="Path 540" d="M136.665,129.809a18.177,18.177,0,0,0-.865,1.773c-.023.211.58,1.461.8,1.443s1.216-.793.949-1.042c-.127-.118-.14-.679-.319-1.164A4.382,4.382,0,0,0,136.665,129.809Z" transform="translate(-133.992 -127.704)" fill="#ed9558"/>
          <path id="Path_541" data-name="Path 541" d="M136.687,129.421a18.594,18.594,0,0,0-1.218,2.613,4.747,4.747,0,0,0,.833,2.179c.442.048.421-.716-.057-2.043l1.044-1.721Z" transform="translate(-134.413 -128.195)" fill="#ed9558"/>
          <path id="Path_542" data-name="Path 542" d="M136.63,130.184a4.963,4.963,0,0,0-.423,1.495c.1.256,1.053.285,1.252.156s.537-.915.426-1S136.63,130.184,136.63,130.184Z" transform="translate(-133.492 -127.23)" fill="#ed9558"/>
          <path id="Path_543" data-name="Path 543" d="M136.651,131.846s1.039.333,4.794-1.4l-.106-.738S135.516,130.992,136.651,131.846Z" transform="translate(-133.101 -127.834)" fill="#ed9558"/>
          <path id="Path_544" data-name="Path 544" d="M141.739,128.955s-5.347-.258-5.8.179.9,2.978,1.411,3.087a37.8,37.8,0,0,0,4.837-1.1S142.814,129.127,141.739,128.955Z" transform="translate(-133.927 -128.88)" fill="#ffb476"/>
          <path id="Path_545" data-name="Path 545" d="M135.944,129.09a3.449,3.449,0,0,0,2.969,1.268,3.675,3.675,0,0,0,2.647-1.406C141.243,128.936,136.7,128.734,135.944,129.09Z" transform="translate(-133.81 -128.878)" fill="#ed9558"/>
        </g>
        <path id="Path_546" data-name="Path 546" d="M138.813,129.012c.933.376,1.067,1.9-.888,2.62l1.723-.072.469-1.316-.417-1.42Z" transform="translate(-131.304 -127.875)" fill="#ed9558"/>
      </g>
      <path id="Path_547" data-name="Path 547" d="M145,114.554,149.1,116.3s-1.862,31.509-9.6,31.625C127.958,148.1,145,114.554,145,114.554Z" transform="translate(-134.388 -77.545)" fill="#3d3d5b"/>
      <path id="Path_548" data-name="Path 548" d="M161.742,142.289c.059-5.1-.913-21.029-1.3-27.089-3.66-.018-5.476,9.473-7.21,18.37-.679,3.474-1.386,6.875-1.785,9.835h0c-1.4.367-3.268.813-5.29,1.282.2,2.928.528,5.847.938,8.617a42.088,42.088,0,0,0,7.788-.5c.077-.011.156-.02.233-.038l.059-.009,0-.011c2.665-.643,4.948-4.808,6.563-10.138C161.745,142.5,161.74,142.386,161.742,142.289Z" transform="translate(-120.891 -76.728)" fill="#323249"/>
      <path id="Path_549" data-name="Path 549" d="M158.079,114.237c-4.239-1.6-6.191,8.657-8.057,18.216-1.771,9.081-3.761,17.686.143,19.081C159.175,154.758,164.927,116.82,158.079,114.237Z" transform="translate(-118.676 -78.156)" fill="#3d3d5b"/>
      <path id="Path_550" data-name="Path 550" d="M163.191,135.966c-8.46,1.66-23.334-.851-23.334-.851l-.827-3.875s14.4-3.044,20.435-4.622S163.191,135.966,163.191,135.966Z" transform="translate(-129.906 -62.486)" fill="#3d3d5b"/>
    </g>
    <g id="Group_538" data-name="Group 538" transform="translate(228.937 108.231)">
      <g id="Group_527" data-name="Group 527" transform="translate(2.175 91.862)">
        <path id="Path_551" data-name="Path 551" d="M169.951,138.454c.72,2,.521,5.385.152,5.745a.423.423,0,0,1-.666-.027s-.168.537-.557.562c-.356.025-.505-.414-.505-.414s-.233.473-.618.362a.579.579,0,0,1-.41-.5c-.494.2-1.277.46-.6-2.652.342-1.563.947-2.822.838-3.236C167.634,137.693,169.951,138.454,169.951,138.454Z" transform="translate(-155.199 -138.062)" fill="#ed9558"/>
        <g id="case" transform="translate(0 3.473)">
          <g id="Group_526" data-name="Group 526">
            <path id="Path_552" data-name="Path 552" d="M185.014,161.119H162.876a1.371,1.371,0,0,1-1.37-1.372l0-16.76a1.371,1.371,0,0,1,1.372-1.372h22.111a1.37,1.37,0,0,1,1.37,1.37l.029,16.76A1.37,1.37,0,0,1,185.014,161.119Z" transform="translate(-161.501 -137.044)" fill="#3c2f28"/>
            <path id="Path_553" data-name="Path 553" d="M183.05,161.119H164.4a1.25,1.25,0,0,1-1.25-1.25v-17a1.25,1.25,0,0,1,1.25-1.25H183.02a1.249,1.249,0,0,1,1.248,1.248l.032,17.007A1.251,1.251,0,0,1,183.05,161.119Z" transform="translate(-159.414 -137.044)" fill="#473a3a"/>
            <g id="Group_525" data-name="Group 525" transform="translate(8.334)">
              <path id="Path_554" data-name="Path 554" d="M166.5,143.851l-1.11-.222a4.866,4.866,0,0,1,4.645-4.033,4.455,4.455,0,0,1,4.371,4.076l-1.123.136c-.014-.125-.419-3.08-3.247-3.08C167.17,140.728,166.529,143.722,166.5,143.851Z" transform="translate(-164.915 -139.596)" fill="#32251c"/>
              <path id="Path_555" data-name="Path 555" d="M167.246,142.092h-2.063l0-.855h2.063Z" transform="translate(-165.181 -137.521)" fill="#9cbee0"/>
              <path id="Path_556" data-name="Path 556" d="M170.734,142.092h-2.064l0-.855h2.063Z" transform="translate(-160.77 -137.521)" fill="#9cbee0"/>
            </g>
          </g>
        </g>
        <path id="Path_557" data-name="Path 557" d="M167.21,142.277c-.421-.063-.256-.63-.183-1.243.081-.686.115-1.094.423-1.067.346.029.344.731.3,1.3C167.71,141.758,167.74,142.356,167.21,142.277Z" transform="translate(-154.632 -135.655)" fill="#ffb476"/>
        <path id="Path_558" data-name="Path 558" d="M167.684,142.3c-.426-.029-.3-.607-.281-1.225.027-.688.029-1.1.337-1.1.349,0,.4.7.4,1.268C168.141,141.749,168.216,142.343,167.684,142.3Z" transform="translate(-154.08 -135.633)" fill="#ffb476"/>
        <path id="Path_559" data-name="Path 559" d="M168.13,141.9c-.349,0-.285-.478-.3-.983-.02-.564-.043-.9.208-.915.285-.018.371.55.405,1.01C168.47,141.422,168.567,141.9,168.13,141.9Z" transform="translate(-153.517 -135.607)" fill="#ffb476"/>
        <path id="Path_560" data-name="Path 560" d="M166.8,141.942c-.292-.075-.349-.5-.256-1.055.088-.507.281-1.017.611-.983.349.036.376.666.294,1.223C167.373,141.62,167.19,142.042,166.8,141.942Z" transform="translate(-155.181 -135.735)" fill="#ffb476"/>
        <path id="Path_561" data-name="Path 561" d="M167.445,140.651a1.226,1.226,0,0,1-.072-.448.677.677,0,0,0-.109-.206.264.264,0,0,0-.084-.05c-.025-.016-.048-.041-.077-.043l-.009,0a.4.4,0,0,0-.3.161.794.794,0,0,0-.075.093,1.166,1.166,0,0,0-.093.192,2.128,2.128,0,0,0-.091.265c.134.405.371.752.768.607a.248.248,0,0,0,.1-.063l.009-.036A3.375,3.375,0,0,0,167.445,140.651Z" transform="translate(-155.13 -135.733)" fill="#ed9558"/>
        <path id="Path_562" data-name="Path 562" d="M169.328,138.393s.734,1.542-1.164,2.8c-1.5.994-.07,1.717-.777,1.975s-.962-1.021-.892-1.474a21.608,21.608,0,0,0,1.094-3.528Z" transform="translate(-155.2 -137.933)" fill="#ffb476"/>
      </g>
      <path id="Path_563" data-name="Path 563" d="M172.178,114.322c-5.507,3.091-5.448,15.177-5.691,30.445s.426,23.479.426,23.479l3.848.333s2.717-6.517,4.18-21.085S172.178,114.322,172.178,114.322Z" transform="translate(-153.087 -76.221)" fill="#f7e8f0"/>
      <path id="Path_564" data-name="Path 564" d="M166.441,133.319c.077,9.054.464,13.852.464,13.852l3.848.333s2.142-5.159,3.646-16.518Z" transform="translate(-153.079 -55.147)" fill="#e5c3da"/>
      <path id="Path_565" data-name="Path 565" d="M182.813,175.256s.174,2.054-2.742,3.286-3.127.956-2.971,1.78,8.392.41,8.361-.548a28.643,28.643,0,0,1-.539-4.518C184.976,173.067,182.813,175.256,182.813,175.256Z" transform="translate(-139.648 -0.396)" fill="#2d313d"/>
      <g id="Group_528" data-name="Group 528" transform="translate(14.341 174.68)">
        <path id="Path_566" data-name="Path 566" d="M174.733,175.477A8.294,8.294,0,0,1,171,178.323c-2.616,1.067-4.3.829-4.108,1.54s10.351.356,10.265-.473a24.47,24.47,0,0,1-.761-3.913C176.313,173.579,174.733,175.477,174.733,175.477Z" transform="translate(-166.873 -174.634)" fill="#2d313d"/>
      </g>
      <path id="Path_567" data-name="Path 567" d="M184.672,100.495c5.435,2.933-1.11,21.715-5.562,20.132C174.366,118.942,172.883,97.071,184.672,100.495Z" transform="translate(-141.504 -94.165)" fill="#822d0f"/>
      <path id="Path_568" data-name="Path 568" d="M197.717,131.5,168.9,135.885s.636,35.463.833,46.951c.1,5.926,1.01,47.273,1.01,47.273h4.325s5.258-25.225,4.876-30.146.969-17.127.969-17.127l1.615-27.132a267.657,267.657,0,0,1,4.88,29.263c1.454,12.226,3.025,27.673,4.226,45.142h4.921s4.006-24.231,3.784-29.643-2.158-16.264-2.158-16.264l1.112-43.966Z" transform="translate(-149.966 -54.503)" fill="#3d3d5b"/>
      <path id="Path_569" data-name="Path 569" d="M181.121,196.132c-.365,11.1-6.017,29.643-6.017,29.643h-4.325s-.908-41.346-1.01-47.273c-.172-10-.985-36.285-.883-43.579l10.623.91v13.223l3.055,2.314L180.949,178.5S181.259,191.938,181.121,196.132Z" transform="translate(-149.998 -50.17)" fill="#323249"/>
      <path id="Path_570" data-name="Path 570" d="M168.9,140.684s.023-4.2-.034-7.634l30.762,2.5-.417,4.941C197.968,142.484,176.622,144.744,168.9,140.684Z" transform="translate(-150.012 -52.538)" fill="#323249"/>
      <path id="Path_571" data-name="Path 571" d="M200.289,161.739c.99-1.32,1.753-26.969-.365-45.753,0,0-5.283-3.293-16.663-3.03-8.4.192-13.433,3.112-13.433,3.112-2.819,7.652-.976,16.54-.543,27.829.29,7.525-.387,17.222.353,18.144.356.442,7.185,1.653,14.312,1.649C191.688,163.687,199.772,162.428,200.289,161.739Z" transform="translate(-150.737 -77.966)" fill="#f7e8f0"/>
      <path id="Path_572" data-name="Path 572" d="M184.392,105.668s-2.6,11.255-.408,17.245c-3.492,1.282-10.283,3.016-11.418-.22,0,0,.559-1.85.206-6.9Z" transform="translate(-145.334 -87.164)" fill="#e08344"/>
      <path id="Path_573" data-name="Path 573" d="M175.788,119.544l-2.111,3.442-2.312-8.968a36.613,36.613,0,0,1,8.012-1.062,46.036,46.036,0,0,1,9.013.632l-7.462,9.491-1.477-3.121-1.757,2.736Z" transform="translate(-146.852 -77.966)" fill="#dbb4d1"/>
      <path id="Path_574" data-name="Path 574" d="M171.742,113.659s.405,4.14,6.173,4.307a10.653,10.653,0,0,0,8.777-4.434A38.584,38.584,0,0,0,171.742,113.659Z" transform="translate(-146.376 -78.042)" fill="#ed9558"/>
      <path id="Path_575" data-name="Path 575" d="M183.706,107.686l-1.966-1.307-8.556,1.085c.179,2.563-.419,11.71-.516,12.795,1.1,1.264,3.607,3.485,8.522,5.195a10.364,10.364,0,0,0,4.588-3.723,12.119,12.119,0,0,0-2.113-.34C182.137,116.665,183.706,107.686,183.706,107.686Z" transform="translate(-145.203 -86.265)" fill="#d1652f"/>
      <path id="Path_576" data-name="Path 576" d="M171.721,114.7c.17-6.479-3-6.882-2.222-10.351,1.837-8.164,23.927-10.032,23.959-.063C193.479,110.1,171.721,114.7,171.721,114.7Z" transform="translate(-149.369 -97.497)" fill="#822d0f"/>
      <path id="Path_577" data-name="Path 577" d="M185.718,115.541c-.838,5.745-1.2,5.6-6.311,9.217-1.094.774-4.357.7-5.2.161s-.858-1.4-1.941-3.4a14.84,14.84,0,0,1-1.855-5.831c-.052-1.692.161-2.828.156-4.029-.009-2.308-.387-4.382-.215-7.013.168-2.6,3.322-4.18,7.237-4C186.556,101.05,186.407,104.8,185.718,115.541Z" transform="translate(-148.191 -93.536)" fill="#ffb476"/>
      <path id="Path_578" data-name="Path 578" d="M176.4,123.52c7.02-4.208,6.669-19.717,3.947-22.018,5.6,1.2,4.411,6.495,3.32,14.144-.664,4.162-1.336,5.306-6.508,8.406-1.11.663-4.237.342-5.007-.236a1.466,1.466,0,0,1-.3-.308C173.015,123.932,175.448,124.089,176.4,123.52Z" transform="translate(-146.231 -92.432)" fill="#ed9558"/>
      <path id="Path_579" data-name="Path 579" d="M173.416,104.434a4.278,4.278,0,0,1,1.019,1.576c1.157,3.836-2.262,4.074-2.083,5,.263,1.356,2.935.96,2.935.96-.315.908-3.232.587-3.462-.788-.272-1.619,3.152-1.406,2.294-5.034A10.627,10.627,0,0,0,173.416,104.434Z" transform="translate(-146.292 -88.725)" fill="#ed9558"/>
      <path id="Path_580" data-name="Path 580" d="M186.143,103.737s1.907,4.035-2.224,2.172c0,0-1.32-3.891-7.887-3.954-5.093-.048-5.686,3.465-5.686,3.465S172.535,93.922,186.143,103.737Z" transform="translate(-148.142 -94.62)" fill="#822d0f"/>
      <g id="Group_529" data-name="Group 529" transform="translate(24.424 25.244)">
        <path id="Path_581" data-name="Path 581" d="M174.354,108.97c.032.084.283.05.362.016a.171.171,0,0,0,.086-.215.146.146,0,0,0-.2-.086C174.521,108.719,174.322,108.886,174.354,108.97Z" transform="translate(-167.501 -108.611)" fill="#562824"/>
        <path id="Path_582" data-name="Path 582" d="M171.74,109.01c-.05.072-.285-.018-.353-.07a.166.166,0,0,1-.029-.226.149.149,0,0,1,.215-.038C171.641,108.729,171.792,108.938,171.74,109.01Z" transform="translate(-171.326 -108.645)" fill="#562824"/>
        <path id="Path_583" data-name="Path 583" d="M178.223,108.765l-6.782.011a4.074,4.074,0,0,0,3.238,2.185C176.847,111,178.223,108.765,178.223,108.765Z" transform="translate(-171.181 -108.492)" fill="#9a6335"/>
        <path id="Path_584" data-name="Path 584" d="M178.223,108.765l-6.782.011a4.074,4.074,0,0,0,3.238,2.185C176.847,111,178.223,108.765,178.223,108.765Z" transform="translate(-171.181 -108.492)" fill="#562824"/>
        <path id="Path_585" data-name="Path 585" d="M177.281,108.852l-5.492,0a3.3,3.3,0,0,0,2.849,1.7A3.494,3.494,0,0,0,177.281,108.852Z" transform="translate(-170.74 -108.382)" fill="#f7eee2"/>
        <path id="Path_586" data-name="Path 586" d="M177.281,108.852l-5.492,0,.3.435a5.064,5.064,0,0,1,2.4-.319,9.729,9.729,0,0,1,2.523.272S177.206,108.967,177.281,108.852Z" transform="translate(-170.74 -108.382)" fill="#d5b698"/>
      </g>
      <path id="Path_587" data-name="Path 587" d="M180.4,110.422l-.976,1.558-1.413.1s1.06-7.4-2.622-10.6C175.389,101.475,181.938,99.509,180.4,110.422Z" transform="translate(-141.764 -92.641)" fill="#822d0f"/>
      <g id="Group_530" data-name="Group 530" transform="translate(37.111 17.687)">
        <path id="Path_588" data-name="Path 588" d="M176.932,107.823a2.308,2.308,0,0,0,2.482,2.167,2.385,2.385,0,0,0,2.2-2.509,2.31,2.31,0,0,0-2.484-2.167A2.383,2.383,0,0,0,176.932,107.823Z" transform="translate(-176.928 -105.307)" fill="#ed9558"/>
        <path id="Path_589" data-name="Path 589" d="M177.933,108.18a1.12,1.12,0,0,0,.974-1.232,1.081,1.081,0,0,0-1.175-.953,1.341,1.341,0,0,1,.512-.181,1.286,1.286,0,0,1,1.44,1.13,1.324,1.324,0,0,1-1.15,1.454,1.277,1.277,0,0,1-.913-.24A1.1,1.1,0,0,0,177.933,108.18Z" transform="translate(-176.052 -104.679)" fill="#d1652f"/>
      </g>
      <path id="Path_590" data-name="Path 590" d="M179.458,106.2c-.256.419-1.347-.516-3.01-1.035s-3.007-.306-2.887-1.017c.14-.833,1.714-.992,3.376-.467C179.084,104.364,179.755,105.718,179.458,106.2Z" transform="translate(-144.085 -90.056)" fill="#822d0f"/>
      <path id="Path_591" data-name="Path 591" d="M170.254,105.853c.236.414.876-.12,2.074-.6s2.323-.5,2.16-1.2c-.19-.817-1.323-.813-2.518-.328C170.422,104.356,169.982,105.375,170.254,105.853Z" transform="translate(-148.352 -90.039)" fill="#822d0f"/>
      <path id="Path_592" data-name="Path 592" d="M177.453,104.964c-1.517-2.792,4.955-5.24,5.931-3.318C184.484,103.816,179.027,107.861,177.453,104.964Z" transform="translate(-139.444 -93.116)" fill="#933914"/>
      <g id="Group_533" data-name="Group 533" transform="translate(22.605 16.75)">
        <g id="Group_531" data-name="Group 531" transform="translate(7.656)">
          <path id="Path_593" data-name="Path 593" d="M174.21,106.648c-.9-1.046.353-1.814,1.5-1.751a3.177,3.177,0,0,1,2.579,1.549l-.231.136S174.387,106.89,174.21,106.648Z" transform="translate(-173.904 -104.893)" fill="#562824"/>
          <path id="Path_594" data-name="Path 594" d="M174.061,106.454c-.111-.376.315-1.32,1.476-1.354,1.187-.036,2.357.962,2.344,1.313C177.866,106.741,175.067,108.372,174.061,106.454Z" transform="translate(-173.725 -104.634)" fill="#f7eee2"/>
          <path id="Path_595" data-name="Path 595" d="M176.806,106.242a1.26,1.26,0,0,0-.7-1.125,1.834,1.834,0,0,0-.6-.127,1.507,1.507,0,0,0-.7.2,1.086,1.086,0,0,0-.156.111,1.27,1.27,0,0,0-.152.138,1.364,1.364,0,0,0-.353.9,1.269,1.269,0,0,0,.349.865,1.9,1.9,0,0,0,1.6.231A1.374,1.374,0,0,0,176.806,106.242Z" transform="translate(-173.603 -104.773)" fill="#562824"/>
        </g>
        <g id="Group_532" data-name="Group 532" transform="translate(0 0.014)">
          <path id="Path_596" data-name="Path 596" d="M170.813,106.561c-.849-.987.326-1.717,1.406-1.658a2.551,2.551,0,0,1,2.2,1.479l-.22.127S170.979,106.789,170.813,106.561Z" transform="translate(-170.523 -104.9)" fill="#562824"/>
          <path id="Path_597" data-name="Path 597" d="M170.672,106.394c-.106-.353.3-1.241,1.393-1.311a2.054,2.054,0,0,1,1.97,1.284C174.021,106.677,171.621,108.206,170.672,106.394Z" transform="translate(-170.354 -104.672)" fill="#f7eee2"/>
          <path id="Path_598" data-name="Path 598" d="M173.282,106.141a1.191,1.191,0,0,0-.326-.813,1.662,1.662,0,0,0-1.03-.34,1.389,1.389,0,0,0-.559.177,1.289,1.289,0,0,0-.6,1.069,1.2,1.2,0,0,0,.7,1.082,1.866,1.866,0,0,0,1.105-.023A1.3,1.3,0,0,0,173.282,106.141Z" transform="translate(-170.215 -104.79)" fill="#562824"/>
        </g>
      </g>
      <path id="Path_599" data-name="Path 599" d="M187.653,102.846c.1-5.824-13.75-6.153-14.545-3.331C171.688,104.561,187.6,105.946,187.653,102.846Z" transform="translate(-144.762 -97.126)" fill="#933914"/>
      <g id="Group_535" data-name="Group 535" transform="translate(0 75.453)">
        <g id="Group_534" data-name="Group 534">
          <g id="wrist_left-2" data-name="wrist left">
            <path id="Path_600" data-name="Path 600" d="M168.358,132.351a5.632,5.632,0,0,0-1.88-.827c-.892-.213-2.083-.281-3.218-.5a4.533,4.533,0,0,0-1.207-.193c-.125.109.061.718,1.051.983a13.032,13.032,0,0,1,2.063.8Z" transform="translate(-158.671 -130.816)" fill="#ffb476"/>
            <path id="Path_601" data-name="Path 601" d="M170.786,133.842a18.683,18.683,0,0,1-5.274,1.7c-2.563.313-3.331-.054-3.347-.328s.464-.19,1.336-.247c.718-.045,1.463-.014,1.433-.138a6.744,6.744,0,0,0-1.769-.093c-.254.02-2.025.072-2.1-.358-.075-.412,1.191-.442,1.88-.455a7.248,7.248,0,0,0,1.655-.242,7.972,7.972,0,0,0-1.807.091c-.256.023-2.126.245-2.235-.149s.3-.562,1.907-.7a9.78,9.78,0,0,0,1.9-.24c-.077-.356-3.3.482-3.49-.127-.1-.308.641-.437,1.612-.559.992-.125,2.672-.233,3.508-.442a6.069,6.069,0,0,1,4.226.192S171.636,132.723,170.786,133.842Z" transform="translate(-160.54 -130.21)" fill="#ffb476"/>
          </g>
        </g>
        <path id="Path_602" data-name="Path 602" d="M165.38,134.127l2.706-.247-.843-2.81-2.427.957Z" transform="translate(-155.134 -130.494)" fill="#ffb476"/>
      </g>
      <g id="Group_536" data-name="Group 536" transform="translate(18.822 84.815)">
        <path id="Path_603" data-name="Path 603" d="M168.852,134.977l.007,2.369c12.845,3.682,28.169.469,30.694-.122l-.048-2.246C180,138.8,168.852,134.977,168.852,134.977Z" transform="translate(-168.852 -134.916)" fill="#723c1e"/>
        <path id="Path_604" data-name="Path 604" d="M169.4,134.95l1.939.363v3.514H169.4Z" transform="translate(-168.157 -134.95)" fill="#323249"/>
        <path id="Path_605" data-name="Path 605" d="M172.05,135.351l1.939.363v3.514H172.05Z" transform="translate(-164.808 -134.443)" fill="#323249"/>
        <path id="Path_606" data-name="Path 606" d="M176.839,135.432l1.939.073v3.8h-1.939Z" transform="translate(-158.752 -134.341)" fill="#323249"/>
        <path id="Path_607" data-name="Path 607" d="M180.451,135.03l1.939.062v3.27h-1.939Z" transform="translate(-154.184 -134.849)" fill="#323249"/>
        <rect id="Rectangle_27" data-name="Rectangle 27" width="5.695" height="3.393" transform="translate(10.877 1.333)" fill="#9ea8dd"/>
        <rect id="Rectangle_28" data-name="Rectangle 28" width="4.483" height="2.181" transform="translate(11.483 1.939)" fill="#723c1e"/>
      </g>
      <path id="Path_608" data-name="Path 608" d="M168.769,147.2c-.061,4.391-.118,7.983.319,8.526.356.442,7.185,1.653,14.312,1.649,7.738,0,15.822-1.261,16.339-1.95.849-1.135,1.529-20.225.36-37.5l-10.883,21.029Z" transform="translate(-150.188 -71.656)" fill="#e5c3da"/>
      <path id="Path_609" data-name="Path 609" d="M175.306,160.291c.072-7.638-.14-16.805-.351-25.712-.136-5.777-.279-13.5-.34-18.972l-.58,0c.059,5.478.2,13.2.337,18.979.213,8.9.426,18.067.358,25.689C174.921,160.287,175.116,160.289,175.306,160.291Z" transform="translate(-143.475 -74.596)" fill="#dbb4d1"/>
      <path id="Path_610" data-name="Path 610" d="M190.845,114.483c-3.934-2.249-7.482,7.57-10.836,16.715-3.184,8.687-6.508,16.869-2.874,18.864C185.523,154.667,197.2,118.117,190.845,114.483Z" transform="translate(-141.56 -76.429)" fill="#f7e8f0"/>
      <path id="Path_611" data-name="Path 611" d="M174.357,113.908l1.218,2.76,1.04-2.76,1.194,2.846-2.263,2.087-2.481-2.091Z" transform="translate(-144.703 -76.744)" fill="#e5c3da"/>
      <g id="Group_537" data-name="Group 537" transform="translate(26.845 38.839)">
        <path id="Path_612" data-name="Path 612" d="M177.175,116.938a187.8,187.8,0,0,1,2.437,29.095L176,152.043l-3.6-5.892c1.125-11.282,3.188-29.213,3.188-29.213Z" transform="translate(-172.395 -111.751)" fill="#28283d"/>
        <path id="Path_613" data-name="Path 613" d="M175.338,116.2l-1.928-1.555-.918,1.561,1.957,2.033.659-.886Z" transform="translate(-172.272 -114.648)" fill="#28283d"/>
        <path id="Path_614" data-name="Path 614" d="M174.716,116.1l1.91-1.372.734,1.331-1.772,2.067-1.028-.69Z" transform="translate(-169.658 -114.545)" fill="#28283d"/>
        <path id="Path_615" data-name="Path 615" d="M176.237,115.335h-1.992l-.889,2.039.793,2.471,1.743.041,1.217-2.523Z" transform="translate(-171.179 -113.78)" fill="#323249"/>
      </g>
      <path id="Path_616" data-name="Path 616" d="M176.089,116.2l-2.588,5.937-1.8-7.492,2.018-2.543Z" transform="translate(-146.427 -79.032)" fill="#f7e8f0"/>
      <path id="Path_617" data-name="Path 617" d="M174.632,116.85l2.5,5.937,6.5-7.693-2.589-3.513Z" transform="translate(-142.721 -79.686)" fill="#f7e8f0"/>
      <path id="Path_618" data-name="Path 618" d="M195.347,134.122c-7.826,7.894-29.208,7.731-29.208,7.731l-.956-3.807s15.793-4.026,24.774-12.421Z" transform="translate(-154.67 -61.927)" fill="#f7e8f0"/>
    </g>
    <g id="Group_539" data-name="Group 539" transform="translate(153.55 129.816)">
      <path id="Path_619" data-name="Path 619" d="M137.92,119.243l-1.737,1.03c-1.282-2.165-.62-4-.091-5.478l.195-.548a3.779,3.779,0,0,0-1.033-4.38,3.688,3.688,0,0,0-4.239-.3,3.527,3.527,0,0,0-1.744,2.93,3.681,3.681,0,0,0,1.721,3.164l-1.132,1.669a5.654,5.654,0,0,1-2.607-4.894,5.534,5.534,0,0,1,2.733-4.606A5.707,5.707,0,0,1,138.2,114.9l-.2.582C137.507,116.831,137.125,117.9,137.92,119.243Z" transform="translate(-127.251 -107.028)" fill="#ffa140"/>
      <rect id="Rectangle_29" data-name="Rectangle 29" width="2.271" height="2.272" transform="translate(9.567 14.481) rotate(-30.64)" fill="#ffa140"/>
    </g>
    <g id="Group_540" data-name="Group 540" transform="translate(207.146 91.125)">
      <path id="Path_620" data-name="Path 620" d="M155.21,103.779l-1.945-.541c.675-2.423,2.457-3.218,3.89-3.857l.53-.24a3.777,3.777,0,0,0,2.446-3.775,3.687,3.687,0,0,0-2.715-3.27,3.53,3.53,0,0,0-3.324.77A3.687,3.687,0,0,0,153,96.3l-1.988.337a5.661,5.661,0,0,1,1.728-5.27,5.537,5.537,0,0,1,5.218-1.216,5.708,5.708,0,0,1,.582,10.82l-.562.256C156.663,101.812,155.628,102.273,155.21,103.779Z" transform="translate(-150.918 -89.943)" fill="#ffa140"/>
      <rect id="Rectangle_30" data-name="Rectangle 30" width="2.272" height="2.272" transform="translate(1.892 14.609) rotate(15.56)" fill="#ffa140"/>
    </g>
    <g id="Group_541" data-name="Group 541" transform="translate(219.046 119.728)">
      <path id="Path_621" data-name="Path 621" d="M160.723,118.881l-2.267-.77c.958-2.822,3.121-3.646,4.86-4.307l.645-.249a4.48,4.48,0,0,0,3.143-4.309,4.372,4.372,0,0,0-3-4.049,4.188,4.188,0,0,0-3.986.693,4.363,4.363,0,0,0-1.517,3.992l-2.378.267a6.706,6.706,0,0,1,2.394-6.123,6.566,6.566,0,0,1,6.257-1.1,6.767,6.767,0,0,1-.023,12.847l-.684.267C162.575,116.649,161.318,117.126,160.723,118.881Z" transform="translate(-156.173 -102.574)" fill="#ffa140"/>
      <rect id="Rectangle_31" data-name="Rectangle 31" width="2.693" height="2.693" transform="translate(1.659 17.065) rotate(18.744)" fill="#ffa140"/>
    </g>
    <g id="Group_542" data-name="Group 542" transform="translate(164.906 89.008)">
      <path id="Path_622" data-name="Path 622" d="M141.622,105.129l-2.364.385c-.478-2.942,1.046-4.685,2.271-6.085l.453-.523a4.478,4.478,0,0,0,.754-5.279,4.375,4.375,0,0,0-4.549-2.169,4.189,4.189,0,0,0-3.2,2.482,4.371,4.371,0,0,0,.532,4.237l-1.972,1.352A6.71,6.71,0,0,1,132.792,93a6.563,6.563,0,0,1,5.011-3.9,6.766,6.766,0,0,1,6.006,11.354l-.478.557C142.208,102.287,141.323,103.3,141.622,105.129Z" transform="translate(-132.265 -89.008)" fill="#ffa140"/>
      <rect id="Rectangle_32" data-name="Rectangle 32" width="2.693" height="2.693" transform="translate(7.157 18.146) rotate(-9.227)" fill="#ffa140"/>
    </g>
    <g id="Group_548" data-name="Group 548" transform="translate(282.028 110.014)">
      <g id="Group_546" data-name="Group 546" transform="translate(8.534 4.651)">
        <path id="Path_623" data-name="Path 623" d="M202.529,116.756a.352.352,0,0,1-.1-.027l-14.3-6.3a.366.366,0,0,1-.19-.489l3.918-8.9a.372.372,0,0,1,.491-.19l14.3,6.293a.39.39,0,0,1,.2.206.367.367,0,0,1-.007.285l-3.92,8.9A.375.375,0,0,1,202.529,116.756Z" transform="translate(-187.55 -99.729)" fill="#ffa140"/>
        <g id="Group_545" data-name="Group 545">
          <path id="Path_624" data-name="Path 624" d="M202.37,116.273a.3.3,0,0,1-.1-.027l-14.3-6.293a.389.389,0,0,1-.2-.206.367.367,0,0,1,.007-.285l3.92-8.9a.366.366,0,0,1,.489-.19l14.3,6.293a.36.36,0,0,1,.2.206.367.367,0,0,1-.007.285l-3.918,8.9A.371.371,0,0,1,202.37,116.273Z" transform="translate(-187.754 -100.338)" fill="#ffa140"/>
          <g id="Group_543" data-name="Group 543" transform="translate(7.373 4.774)">
            <path id="Path_625" data-name="Path 625" d="M192.609,108.126a2.136,2.136,0,0,1-.566-.168,1.758,1.758,0,0,1-1-2,.314.314,0,0,1,.389-.249.325.325,0,0,1,.249.39,1.111,1.111,0,0,0,.62,1.255c.725.319.994,0,1.171-.4.113-.26.156-.648-.541-1.309-.822-.784-1.1-1.495-.829-2.113a1.648,1.648,0,0,1,3.012,1.32.325.325,0,0,1-.428.177.33.33,0,0,1-.179-.428.867.867,0,0,0-.473-1.184c-.847-.378-1.2.077-1.332.38-.186.421.27.978.682,1.372.752.716.978,1.386.688,2.047A1.305,1.305,0,0,1,192.609,108.126Z" transform="translate(-191.009 -102.219)" fill="#fff"/>
            <path id="Path_626" data-name="Path 626" d="M191.523,108.723a.3.3,0,0,1-.086-.023.329.329,0,0,1-.168-.433l2.477-5.623a.322.322,0,0,1,.433-.168.329.329,0,0,1,.168.433l-2.477,5.621A.329.329,0,0,1,191.523,108.723Z" transform="translate(-190.716 -102.446)" fill="#fff"/>
          </g>
          <g id="Group_544" data-name="Group 544" transform="translate(3.895 4.99)">
            <path id="Path_627" data-name="Path 627" d="M190.543,102.551a.929.929,0,1,0,.24.068A.956.956,0,0,0,190.543,102.551ZM191.6,104l.009,0Z" transform="translate(-189.474 -102.542)" fill="#fff"/>
            <path id="Path_628" data-name="Path 628" d="M194.653,104.36a.938.938,0,0,0-.99.548.926.926,0,0,0,.478,1.227.933.933,0,0,0,.752-1.707A.955.955,0,0,0,194.653,104.36Zm1.058,1.449h0Z" transform="translate(-184.278 -100.254)" fill="#fff"/>
          </g>
          <path id="Path_629" data-name="Path 629" d="M201.8,115.176l-.1-.048-13.61-5.965.045-.1,3.687-8.408.1.045,13.608,5.967-.043.1Zm-13.418-6.13,13.3,5.831,3.551-8.1-13.3-5.829Z" transform="translate(-187.331 -99.943)" fill="#fff"/>
        </g>
      </g>
      <g id="Group_547" data-name="Group 547">
        <path id="Path_630" data-name="Path 630" d="M201.159,125.347a18.612,18.612,0,0,1-11.438-3.639l-5.163,1.411a.454.454,0,0,1-.541-.6l2.095-5.29a10.571,10.571,0,0,1-.874-2.876c-1.076-7.33,5.761-14.43,15.243-15.822s18.069,3.435,19.151,10.763a12.064,12.064,0,0,1-3.693,10.186,20.143,20.143,0,0,1-11.547,5.634A22.013,22.013,0,0,1,201.159,125.347Zm-11.336-4.588a.456.456,0,0,1,.285.1c3.546,2.883,8.843,4.137,14.149,3.356a19.245,19.245,0,0,0,11.031-5.372,11.168,11.168,0,0,0,3.447-9.421c-1.008-6.837-9.151-11.323-18.121-10-8.988,1.32-15.483,7.958-14.48,14.794a9.73,9.73,0,0,0,.879,2.8.449.449,0,0,1,.014.362l-1.834,4.631,4.511-1.232A.437.437,0,0,1,189.823,120.759Z" transform="translate(-183.985 -98.284)" fill="#ffa140"/>
      </g>
    </g>
  </g>
</svg>
