<svg xmlns="http://www.w3.org/2000/svg" xmlns:xlink="http://www.w3.org/1999/xlink" width="227.203" height="232.315" viewBox="0 0 227.203 232.315">
  <defs>
    <linearGradient id="linear-gradient" x1="0.5" x2="0.5" y2="1" gradientUnits="objectBoundingBox">
      <stop offset="0" stop-color="#82ca21"/>
      <stop offset="1" stop-color="#416511" stop-opacity="0.569"/>
    </linearGradient>
  </defs>
  <g id="Group_587" data-name="Group 587" transform="translate(-1853.059 -480.653)">
    <ellipse id="Ellipse_3" data-name="Ellipse 3" cx="92.269" cy="8.734" rx="92.269" ry="8.734" transform="translate(1883.013 695.5)" opacity="0.04"/>
    <g id="Group_580" data-name="Group 580" transform="translate(1979.483 507.407)">
      <g id="Group_578" data-name="Group 578" transform="translate(0 11.773)">
        <g id="Group_551" data-name="Group 551" transform="translate(0 25.811)">
          <g id="Group_550" data-name="Group 550">
            <path id="Path_632" data-name="Path 632" d="M2676.391,908.072l-.029-.193-.021-.152-.036-.286c-.023-.187-.042-.369-.061-.55-.036-.361-.064-.716-.089-1.071-.049-.708-.076-1.41-.085-2.113a39.409,39.409,0,0,1,.169-4.221l8.354.8a31.244,31.244,0,0,0-.132,3.312c.007.554.029,1.109.067,1.654.019.273.041.544.067.808l.042.387.022.182.017.121Z" transform="translate(-2676.067 -899.486)" fill="none"/>
          </g>
          <path id="Path_633" data-name="Path 633" d="M2700.853,906.863l-.838-.031c.02-.474.045-.947.083-1.419l.836.065C2700.9,905.939,2700.872,906.4,2700.853,906.863Z" transform="translate(-2696.335 -904.502)" fill-rule="evenodd"/>
          <path id="Path_634" data-name="Path 634" d="M2700.712,923.386l-.839.028c-.017-.474-.021-.947-.02-1.421l.839.005C2700.692,922.461,2700.7,922.924,2700.712,923.386Z" transform="translate(-2696.2 -918.536)" fill-rule="evenodd"/>
          <path id="Path_635" data-name="Path 635" d="M2701.3,939.549l-.833.1c-.055-.474-.095-.947-.126-1.421l.837-.055C2701.206,938.63,2701.244,939.091,2701.3,939.549Z" transform="translate(-2696.609 -932.227)" fill-rule="evenodd"/>
        </g>
        <g id="Group_553" data-name="Group 553" transform="translate(0.172 17.357)">
          <g id="Group_552" data-name="Group 552">
            <path id="Path_636" data-name="Path 636" d="M2677.189,852.9a34.467,34.467,0,0,1,.666-4.239,28.668,28.668,0,0,1,1.272-4.215l7.821,3.044a23.313,23.313,0,0,0-1.4,6.206Z" transform="translate(-2677.189 -844.451)" fill="none"/>
          </g>
          <path id="Path_637" data-name="Path 637" d="M2708.564,858.153l-.8-.239c.063-.23.142-.455.213-.683s.153-.452.234-.677l.789.285c-.078.217-.158.433-.225.653S2708.625,857.931,2708.564,858.153Z" transform="translate(-2703.064 -854.696)" fill-rule="evenodd"/>
          <path id="Path_638" data-name="Path 638" d="M2704.615,874.083l-.823-.162c.046-.233.091-.466.146-.7s.1-.465.164-.695l.815.2c-.061.223-.107.449-.16.674S2704.66,873.857,2704.615,874.083Z" transform="translate(-2699.705 -868.215)" fill-rule="evenodd"/>
          <path id="Path_639" data-name="Path 639" d="M2702.094,890.3l-.834-.094.087-.706.1-.7.829.131-.1.686Z" transform="translate(-2697.563 -881.98)" fill-rule="evenodd"/>
        </g>
        <g id="Group_555" data-name="Group 555" transform="translate(2.11 9.276)">
          <g id="Group_554" data-name="Group 554">
            <path id="Path_640" data-name="Path 640" d="M2689.8,799.924c.138-.347.274-.695.431-1.038.076-.172.151-.344.23-.516l.249-.511c.154-.333.365-.7.556-1.052.093-.176.212-.357.32-.535s.218-.356.34-.534l.379-.533c.066-.089.123-.176.2-.265l.215-.264.217-.262c.074-.087.142-.174.226-.26q.242-.257.489-.51c.041-.042.081-.084.124-.126l.135-.123.272-.243.275-.24c.092-.08.2-.153.294-.229.2-.149.4-.3.608-.441s.432-.27.651-.4l4.164,7.287a1.609,1.609,0,0,1-.153.093c-.051.034-.1.079-.152.115a.812.812,0,0,0-.079.058c-.026.025-.051.049-.078.072l-.081.07-.041.034c-.014.013-.026.029-.04.043-.053.058-.108.115-.164.17a.8.8,0,0,0-.082.1l-.083.1-.085.1a1.325,1.325,0,0,0-.083.114c-.055.079-.111.157-.168.234s-.109.176-.165.262-.113.17-.165.274l-.16.294c-.027.051-.054.092-.082.152l-.082.169-.165.336c-.053.114-.1.231-.153.346-.106.228-.2.467-.292.7Z" transform="translate(-2689.803 -791.843)" fill="none"/>
          </g>
          <path id="Path_641" data-name="Path 641" d="M2731.833,816.124l-.6-.592.129-.134.139-.125.281-.249a3.4,3.4,0,0,1,.294-.233l.3-.225.474.692-.269.2a2.854,2.854,0,0,0-.263.208l-.252.223-.125.112Z" transform="translate(-2724.873 -811.076)" fill="#0f0a3c" fill-rule="evenodd"/>
          <path id="Path_642" data-name="Path 642" d="M2721.561,828.253l-.721-.429c.13-.206.254-.415.39-.618s.281-.4.43-.6l.664.514c-.136.18-.265.368-.4.552S2721.683,828.06,2721.561,828.253Z" transform="translate(-2716.072 -821.269)" fill="#0f0a3c" fill-rule="evenodd"/>
          <path id="Path_643" data-name="Path 643" d="M2714.156,842.676l-.775-.324.29-.657c.1-.218.208-.431.312-.647l.75.375c-.1.207-.205.412-.3.622Z" transform="translate(-2709.76 -833.489)" fill-rule="evenodd"/>
        </g>
        <g id="Group_557" data-name="Group 557" transform="translate(8.319 7.801)">
          <g id="Group_556" data-name="Group 556">
            <path id="Path_644" data-name="Path 644" d="M2730.224,783.717a11.323,11.323,0,0,1,2.827-1.128c.241-.059.48-.1.722-.149.12-.021.242-.048.36-.063l.354-.042.354-.038c.118-.013.237-.025.349-.027q.344-.015.686-.024c.057,0,.115,0,.17,0l.165,0,.33.011c.218.009.445.012.652.036l.632.063.158.017.151.023.3.047c.2.033.407.061.6.1l.58.121.29.062c.095.022.186.047.279.07l.556.144-2.211,8.1-.357-.092c-.059-.015-.12-.032-.177-.046l-.172-.035-.343-.073c-.114-.024-.219-.034-.329-.053l-.163-.026-.081-.014-.077-.007-.306-.03a2.8,2.8,0,0,0-.289-.015l-.141-.006-.07,0c-.023,0-.043,0-.065,0q-.128.007-.256.009a.612.612,0,0,0-.12.01l-.115.014-.115.01a1.041,1.041,0,0,0-.1.021c-.066.016-.138.023-.2.038a2.959,2.959,0,0,0-.665.264Z" transform="translate(-2730.224 -782.242)" fill="none"/>
          </g>
          <path id="Path_645" data-name="Path 645" d="M2778.774,807.808l.124-.83c.481.067.952.17,1.421.279l-.2.816C2779.674,807.969,2779.226,807.871,2778.774,807.808Z" transform="translate(-2771.316 -803.178)" fill="#0f0a3c" fill-rule="evenodd"/>
          <path id="Path_646" data-name="Path 646" d="M2762.535,806.9l-.074-.836a3.666,3.666,0,0,1,.371-.024l.37-.013c.124-.008.245,0,.369.005l.368.013-.048.838-.34-.012c-.114,0-.227-.013-.34-.005l-.338.012A3.141,3.141,0,0,0,2762.535,806.9Z" transform="translate(-2757.509 -802.376)" fill="#0f0a3c" fill-rule="evenodd"/>
          <path id="Path_647" data-name="Path 647" d="M2745.953,808.716l-.352-.762a3.052,3.052,0,0,1,.348-.148l.353-.136c.119-.042.241-.072.361-.108s.241-.073.363-.1l.191.818c-.11.023-.215.06-.323.089s-.216.058-.321.095l-.312.121A2.484,2.484,0,0,0,2745.953,808.716Z" transform="translate(-2743.239 -803.589)" fill="#0f0a3c" fill-rule="evenodd"/>
        </g>
        <g id="Group_559" data-name="Group 559" transform="translate(16.628 8.499)">
          <g id="Group_558" data-name="Group 558">
            <path id="Path_648" data-name="Path 648" d="M2786.523,786.783a31.837,31.837,0,0,1,4.086,1.45c1.28.546,2.5,1.136,3.687,1.746l-3.844,7.46c-1.047-.538-2.094-1.042-3.126-1.483a23.585,23.585,0,0,0-3.013-1.077Z" transform="translate(-2784.312 -786.783)" fill="none"/>
          </g>
          <path id="Path_649" data-name="Path 649" d="M2824.552,823.786l.359-.759c.428.2.848.411,1.27.621l-.378.749C2825.387,824.19,2824.973,823.98,2824.552,823.786Z" transform="translate(-2818.371 -817.459)" fill="#0f0a3c" fill-rule="evenodd"/>
          <path id="Path_650" data-name="Path 650" d="M2809.705,817.124l.314-.779.656.272c.219.089.433.19.649.285l-.341.767c-.212-.092-.422-.192-.637-.279Z" transform="translate(-2805.804 -811.805)" fill="#0f0a3c" fill-rule="evenodd"/>
          <path id="Path_651" data-name="Path 651" d="M2794.522,811.6l.242-.8c.46.132.907.3,1.357.449l-.287.789C2795.4,811.884,2794.965,811.725,2794.522,811.6Z" transform="translate(-2792.954 -807.107)" fill="#0f0a3c" fill-rule="evenodd"/>
        </g>
        <g id="Group_561" data-name="Group 561" transform="translate(22.768 11.695)">
          <g id="Group_560" data-name="Group 560">
            <path id="Path_652" data-name="Path 652" d="M2828.127,807.588c2.373,1.224,4.616,2.538,6.818,3.879l-4.375,7.162c-2.091-1.274-4.191-2.5-6.288-3.581Z" transform="translate(-2824.283 -807.588)" fill="none"/>
          </g>
          <path id="Path_653" data-name="Path 653" d="M2867.553,847.271l.428-.722.6.359.6.364-.435.718-.6-.362Z" transform="translate(-2860.906 -840.564)" fill="#0f0a3c" fill-rule="evenodd"/>
          <path id="Path_654" data-name="Path 654" d="M2853.446,839.049l.412-.731c.411.227.814.466,1.221.7l-.421.726C2854.254,839.511,2853.853,839.274,2853.446,839.049Z" transform="translate(-2848.966 -833.598)" fill="#0f0a3c" fill-rule="evenodd"/>
          <path id="Path_655" data-name="Path 655" d="M2839.2,831.207l.391-.743c.419.214.828.445,1.242.667l-.4.736C2840.015,831.647,2839.61,831.419,2839.2,831.207Z" transform="translate(-2836.905 -826.95)" fill="#0f0a3c" fill-rule="evenodd"/>
        </g>
        <g id="Group_563" data-name="Group 563" transform="translate(29.056 15.574)">
          <g id="Group_562" data-name="Group 562">
            <path id="Path_656" data-name="Path 656" d="M2869.591,832.84l1.59.964c.528.316,1.055.634,1.583.942s1.056.615,1.584.92,1.055.6,1.582.885l-4.036,7.359c-.578-.314-1.141-.636-1.708-.956s-1.125-.646-1.677-.974-1.107-.656-1.657-.986l-1.634-.992Z" transform="translate(-2865.217 -832.84)" fill="none"/>
          </g>
          <path id="Path_657" data-name="Path 657" d="M2909.747,872.395l.416-.729,1.214.685-.408.734Z" transform="translate(-2902.906 -865.702)" fill="#0f0a3c" fill-rule="evenodd"/>
          <path id="Path_658" data-name="Path 658" d="M2895.6,864.181l.429-.722,1.2.707-.423.725Z" transform="translate(-2890.933 -858.756)" fill="#0f0a3c" fill-rule="evenodd"/>
          <path id="Path_659" data-name="Path 659" d="M2881.629,855.787l.437-.717c.4.241.795.486,1.194.724l-.433.719C2882.426,856.274,2882.029,856.029,2881.629,855.787Z" transform="translate(-2879.108 -851.655)" fill="#0f0a3c" fill-rule="evenodd"/>
        </g>
        <g id="Group_565" data-name="Group 565" transform="translate(35.733 19.285)">
          <g id="Group_564" data-name="Group 564">
            <path id="Path_660" data-name="Path 660" d="M2912.723,857c1.054.577,2.108,1.134,3.15,1.635a33.178,33.178,0,0,0,3.065,1.312l-2.839,7.9a41.331,41.331,0,0,1-3.868-1.648c-1.223-.588-2.393-1.207-3.543-1.837Z" transform="translate(-2908.687 -857.004)" fill="none"/>
          </g>
          <path id="Path_661" data-name="Path 661" d="M2953.58,894.7l.333-.77c.21.1.423.178.635.267l.318.131.321.122-.3.784-.33-.126-.327-.134C2954.014,894.881,2953.794,894.8,2953.58,894.7Z" transform="translate(-2946.684 -888.257)" fill="#0f0a3c" fill-rule="evenodd"/>
          <path id="Path_662" data-name="Path 662" d="M2938.681,887.843l.374-.752.622.306.626.295-.353.761-.638-.3Z" transform="translate(-2934.073 -882.47)" fill="#0f0a3c" fill-rule="evenodd"/>
          <path id="Path_663" data-name="Path 663" d="M2924.164,880.378l.4-.738c.41.216.817.439,1.229.65l-.386.745C2924.989,880.821,2924.578,880.6,2924.164,880.378Z" transform="translate(-2921.787 -876.163)" fill="#0f0a3c" fill-rule="evenodd"/>
        </g>
        <g id="Group_567" data-name="Group 567" transform="translate(43.146 22.232)">
          <g id="Group_566" data-name="Group 566">
            <path id="Path_664" data-name="Path 664" d="M2959.779,876.184c.488.168.974.332,1.419.44l.168.043.084.022.08.016.316.065a1.443,1.443,0,0,0,.15.025l.145.021.145.023c.046.006.087.007.131.011l.129.012a.856.856,0,0,0,.124.009q.111,0,.222.005c.065,0,.122-.011.183-.011.015,0,.032,0,.044,0l.035-.008c.023,0,.046-.008.07-.01a.857.857,0,0,0,.311-.1l4.248,7.238c-.127.075-.255.148-.384.22s-.265.128-.4.189-.268.122-.4.18-.271.1-.407.148-.274.093-.411.137-.271.072-.408.107a7.786,7.786,0,0,1-.808.166l-.4.057-.2.026c-.066.007-.127.01-.191.015-.252.016-.509.033-.758.039s-.481-.006-.721-.013c-.123,0-.232-.013-.347-.022l-.34-.03c-.113-.011-.229-.02-.338-.033l-.322-.047-.321-.049c-.107-.016-.215-.032-.314-.054l-.607-.125-.152-.032-.144-.036-.289-.073c-.776-.193-1.482-.43-2.182-.673Z" transform="translate(-2956.94 -876.184)" fill="none"/>
          </g>
          <path id="Path_665" data-name="Path 665" d="M3001.336,903l-.124-.83a5.273,5.273,0,0,0,.618-.127c.1-.028.2-.066.3-.1l.148-.05c.048-.02.094-.043.141-.065l.338.768c-.056.025-.112.052-.169.076l-.175.06c-.117.038-.233.084-.352.116A6.067,6.067,0,0,1,3001.336,903Z" transform="translate(-2994.411 -897.891)" fill="#0f0a3c" fill-rule="evenodd"/>
          <path id="Path_666" data-name="Path 666" d="M2985.151,904.471l.136-.828c.22.03.439.074.658.086l.329.029c.109.007.217.005.326.009l-.013.839c-.121,0-.242,0-.363-.01l-.36-.032C2985.623,904.55,2985.388,904.5,2985.151,904.471Z" transform="translate(-2980.817 -899.425)" fill="#0f0a3c" fill-rule="evenodd"/>
          <path id="Path_667" data-name="Path 667" d="M2969.09,900.541l.264-.8c.215.078.433.136.65.2s.436.122.654.178l-.2.815c-.23-.059-.461-.115-.687-.187S2969.313,900.621,2969.09,900.541Z" transform="translate(-2967.224 -896.125)" fill="#0f0a3c" fill-rule="evenodd"/>
        </g>
        <g id="Group_569" data-name="Group 569" transform="translate(49.74 18.45)">
          <g id="Group_568" data-name="Group 568">
            <path id="Path_668" data-name="Path 668" d="M2999.866,855.912a1.172,1.172,0,0,0,.3-.273c.034-.05.072-.089.111-.142s.077-.122.119-.18a.3.3,0,0,0,.031-.051l.03-.056.063-.11.032-.055.017-.027.01-.023c.014-.03.029-.059.044-.088a1.857,1.857,0,0,0,.107-.269c.018-.066.024-.1.022-.087s0,0,0,0l7.846-2.983a8.294,8.294,0,0,1,.517,3.7q-.024.234-.054.468c-.022.153-.05.3-.078.45s-.062.288-.1.429-.07.281-.112.412a10.215,10.215,0,0,1-.574,1.487l-.166.334-.042.083-.042.075-.084.15-.17.3-.086.149c-.028.049-.058.1-.092.15-.132.2-.266.4-.4.6s-.308.406-.465.605l-.121.15-.135.15-.274.3a7.755,7.755,0,0,1-.6.573c-.107.093-.206.187-.322.275s-.231.175-.349.26-.233.171-.355.252-.252.154-.378.228Z" transform="translate(-2999.866 -851.567)" fill="none"/>
          </g>
          <path id="Path_669" data-name="Path 669" d="M3029.7,865.782l-.835-.086a3.512,3.512,0,0,0-.074-1.211l.818-.192A4.349,4.349,0,0,1,3029.7,865.782Z" transform="translate(-3024.347 -862.339)" fill="#0f0a3c" fill-rule="evenodd"/>
          <path id="Path_670" data-name="Path 670" d="M3024.964,881.258l-.725-.424a6.337,6.337,0,0,0,.553-1.166l.793.274A7.184,7.184,0,0,1,3024.964,881.258Z" transform="translate(-3020.495 -875.351)" fill="#0f0a3c" fill-rule="evenodd"/>
          <path id="Path_671" data-name="Path 671" d="M3015.157,894.317l-.506-.669.126-.092.117-.105c.077-.071.157-.139.233-.211l.216-.233c.035-.039.073-.076.107-.117l.1-.127.655.524-.113.144c-.038.047-.082.091-.123.136l-.25.269c-.089.085-.182.165-.273.248l-.138.123Z" transform="translate(-3012.38 -886.434)" fill="#0f0a3c" fill-rule="evenodd"/>
        </g>
        <g id="Group_571" data-name="Group 571" transform="translate(47.109 11.41)">
          <g id="Group_570" data-name="Group 570">
            <path id="Path_672" data-name="Path 672" d="M2986.257,815.758s0,0,0,0-.006-.007-.006-.011-.009-.016-.015-.026a.148.148,0,0,1-.008-.017l-.015-.021a1.63,1.63,0,0,0-.176-.228,4.1,4.1,0,0,0-.316-.315c-.13-.114-.277-.235-.44-.357a11.3,11.3,0,0,0-1.152-.74c-.428-.244-.9-.482-1.385-.711l3.564-7.6c.649.3,1.3.635,1.968,1.013a19.648,19.648,0,0,1,2.015,1.3c.34.253.682.53,1.022.832a12.435,12.435,0,0,1,1.015,1.018,9.962,9.962,0,0,1,.962,1.272l.113.178.109.188c.072.126.143.248.21.388s.137.268.2.414.125.288.181.435Z" transform="translate(-2982.744 -805.734)" fill="none"/>
          </g>
          <path id="Path_673" data-name="Path 673" d="M2997.676,830.969l-.417.728c-.393-.225-.8-.438-1.207-.64l.371-.753C2996.846,830.513,2997.265,830.733,2997.676,830.969Z" transform="translate(-2994.008 -826.53)" fill="#0f0a3c" fill-rule="evenodd"/>
          <path id="Path_674" data-name="Path 674" d="M3011.479,839.346l-.543.64a11.3,11.3,0,0,0-1.07-.8l.465-.7A12.2,12.2,0,0,1,3011.479,839.346Z" transform="translate(-3005.699 -833.456)" fill="#0f0a3c" fill-rule="evenodd"/>
          <path id="Path_675" data-name="Path 675" d="M3023.15,850.414l-.739.4a5.423,5.423,0,0,0-.739-1.028l.622-.563A6.272,6.272,0,0,1,3023.15,850.414Z" transform="translate(-3015.692 -842.541)" fill="#0f0a3c" fill-rule="evenodd"/>
        </g>
        <g id="Group_573" data-name="Group 573" transform="translate(40.509 8.565)">
          <g id="Group_572" data-name="Group 572">
            <path id="Path_676" data-name="Path 676" d="M2946.376,797.656c-.979-.459-2.045-.885-3.153-1.292s-2.259-.8-3.447-1.193l2.663-7.959c1.2.4,2.428.814,3.679,1.274s2.525.964,3.822,1.571Z" transform="translate(-2939.776 -787.213)" fill="none"/>
          </g>
          <path id="Path_677" data-name="Path 677" d="M2952.355,812.889l-.273.794-1.322-.448.267-.8Z" transform="translate(-2949.073 -808.564)" fill="#0f0a3c" fill-rule="evenodd"/>
          <path id="Path_678" data-name="Path 678" d="M2967.754,818.255l-.3.785q-.648-.246-1.3-.479l.282-.791Q2967.1,818.006,2967.754,818.255Z" transform="translate(-2962.1 -813.076)" fill="#0f0a3c" fill-rule="evenodd"/>
          <path id="Path_679" data-name="Path 679" d="M2982.864,824.113l-.343.766q-.628-.282-1.271-.54l.315-.778Q2982.218,823.826,2982.864,824.113Z" transform="translate(-2974.879 -817.978)" fill="#0f0a3c" fill-rule="evenodd"/>
        </g>
        <g id="Group_575" data-name="Group 575" transform="translate(32.072 6.606)">
          <g id="Group_574" data-name="Group 574">
            <path id="Path_680" data-name="Path 680" d="M2893.288,784.379l-1.819-.613-.234-.081-.118-.041-.17-.065q-.34-.13-.677-.268c-.225-.1-.451-.214-.674-.325s-.445-.243-.664-.374a10.54,10.54,0,0,1-2.4-2,10.834,10.834,0,0,1-1.677-2.561l7.587-3.589a2.468,2.468,0,0,0,.375.587,2.147,2.147,0,0,0,.487.4,3.186,3.186,0,0,0,.33.175c.068.023.135.049.2.077l.049.022.1.036.212.073,1.754.591Z" transform="translate(-2884.851 -774.461)" fill="none"/>
          </g>
          <path id="Path_681" data-name="Path 681" d="M2909.672,789.473l-.622.563c-.088-.092-.163-.194-.245-.291a3.458,3.458,0,0,1-.232-.3l-.216-.312c-.066-.107-.128-.216-.193-.325l.729-.417c.057.1.112.193.171.288l.19.274a2.807,2.807,0,0,0,.2.264C2909.529,789.3,2909.595,789.393,2909.672,789.473Z" transform="translate(-2904.583 -786.252)" fill="#0f0a3c" fill-rule="evenodd"/>
          <path id="Path_682" data-name="Path 682" d="M2921.358,800.78l-.362.757-.338-.167c-.111-.059-.217-.128-.326-.192l-.162-.1-.081-.049-.077-.056-.307-.224.512-.665.27.2.067.049.071.043.143.086c.1.056.189.118.288.17Z" transform="translate(-2914.352 -796.15)" fill="#0f0a3c" fill-rule="evenodd"/>
          <path id="Path_683" data-name="Path 683" d="M2936.731,807.635l-.267.8-1.33-.451.273-.793Z" transform="translate(-2927.41 -802.16)" fill="#0f0a3c" fill-rule="evenodd"/>
        </g>
        <g id="Group_577" data-name="Group 577" transform="translate(30.805)">
          <g id="Group_576" data-name="Group 576">
            <path id="Path_684" data-name="Path 684" d="M2877.871,741.652a12.646,12.646,0,0,1-.9-2.668,15.544,15.544,0,0,1-.341-2.563,18.261,18.261,0,0,1,.042-2.439c.032-.4.077-.8.135-1.2.014-.1.029-.2.046-.3s.033-.2.052-.307.039-.21.061-.318l.036-.171.021-.1.031-.133,8.149,2.005.006-.026,0,.007,0,.019-.012.06-.027.145c-.01.05-.018.1-.027.158s-.017.108-.025.164c-.032.221-.058.45-.076.677a9.821,9.821,0,0,0-.024,1.328,5.629,5.629,0,0,0,.448,2.069Z" transform="translate(-2876.604 -731.458)" fill="none"/>
          </g>
          <path id="Path_685" data-name="Path 685" d="M2901.53,742.442l-.837-.065q.056-.723.177-1.44l.827.143C2901.621,741.531,2901.565,741.986,2901.53,742.442Z" transform="translate(-2896.993 -739.482)" fill-rule="evenodd"/>
          <path id="Path_686" data-name="Path 686" d="M2901.308,759.168l-.835.09a13,13,0,0,1-.075-1.456h.839A12.236,12.236,0,0,0,2901.308,759.168Z" transform="translate(-2896.743 -753.755)" fill="#0f0a3c" fill-rule="evenodd"/>
          <path id="Path_687" data-name="Path 687" d="M2903.26,774.885l-.783.3a10.26,10.26,0,0,1-.417-1.424l.821-.174A9.343,9.343,0,0,0,2903.26,774.885Z" transform="translate(-2898.149 -767.116)" fill="#0f0a3c" fill-rule="evenodd"/>
        </g>
      </g>
      <g id="Group_579" data-name="Group 579" transform="translate(28.479)">
        <path id="Path_688" data-name="Path 688" d="M2874.555,665.583l-3.426.9-9.666-11.662Z" transform="translate(-2861.463 -654.819)" fill="#4c78ff"/>
        <path id="Path_689" data-name="Path 689" d="M2867.482,670.731l3.647-4.25-9.666-11.662,6.582,12.384Z" transform="translate(-2861.463 -654.819)" fill="#0f0a3c"/>
        <path id="Path_690" data-name="Path 690" d="M2862.558,668.295l5.486-1.092-6.582-12.383Z" transform="translate(-2861.463 -654.819)" fill="#4c78ff"/>
      </g>
    </g>
    <g id="Group_581" data-name="Group 581" transform="translate(1928.93 550.981)">
      <path id="Path_691" data-name="Path 691" d="M2355.966,1091.66h66.527a8.994,8.994,0,0,0,8.993-8.993V947.475a8.995,8.995,0,0,0-8.993-8.993h-66.524a9,9,0,0,0-9,8.993v135.19A8.995,8.995,0,0,0,2355.966,1091.66Z" transform="translate(-2346.973 -938.482)" fill="#3c415e"/>
      <rect id="Rectangle_33" data-name="Rectangle 33" width="75.59" height="115.464" transform="translate(4.461 15.846)" fill="#faf9f9"/>
      <path id="Path_692" data-name="Path 692" d="M2573.119,978.149h10.564a2.641,2.641,0,1,0,0-5.282h-10.564a2.641,2.641,0,0,0,0,5.282Z" transform="translate(-2536.145 -967.585)" fill="#faf9f9"/>
    </g>
    <g id="Group_583" data-name="Group 583" transform="translate(1933.371 586.396)">
      <circle id="Ellipse_4" data-name="Ellipse 4" cx="26.898" cy="26.898" r="26.898" transform="translate(0 38.04) rotate(-45)" fill="url(#linear-gradient)"/>
      <g id="Group_582" data-name="Group 582" transform="translate(18.507 27.761)">
        <path id="Path_693" data-name="Path 693" d="M2505.02,1372.327l-8.069-11.238a3.153,3.153,0,0,1,.722-4.4h0a3.153,3.153,0,0,1,4.4.722l6.147,8.562,22.193-15.649a3.153,3.153,0,0,1,4.394.76h0a3.153,3.153,0,0,1-.76,4.394l-24.886,17.548A2.983,2.983,0,0,1,2505.02,1372.327Z" transform="translate(-2496.359 -1349.747)" fill="#faf9f9"/>
      </g>
    </g>
    <g id="Group_584" data-name="Group 584" transform="translate(1940.844 627.594)">
      <path id="Path_694" data-name="Path 694" d="M2459.4,1708.581s1.617,13.069,1.078,19.671-1.078,12.665-1.078,12.665H2456.7l-1.01-17.044-2.358-5.592-.707,5.477a5.028,5.028,0,0,1-3.047,4l-12.145,5.079-1.212-2.156,10.326-7.178a1.816,1.816,0,0,0,.775-1.379l.755-12.461Z" transform="translate(-2434.426 -1666.897)" fill="#738598"/>
      <path id="Path_695" data-name="Path 695" d="M2497.547,1533.392l-2.021-2.425s-7.545,4.042-8.757,4.985-8.624,2.021-10.24,5.794-3.907,9.027-3.907,9.027l3.1,1.886,3.436-5.322-.27,11.992s5.929,3.773,11.318-1.078l.27-16.572Z" transform="translate(-2465.234 -1516.567)" fill="#fb7668"/>
      <path id="Path_696" data-name="Path 696" d="M2610.209,1453.98l2.021-2.425-2.829-10.375s.135-2.29-.808-3.1-1.482-1.078-2.156-.674,1.482,1.347.809,2.56c0,0-.809-.4-.943-.808s-.943-.135-.539.539a16.741,16.741,0,0,0,1.751,2.021l1.752,8.353-1.078,1.482Z" transform="translate(-2577.828 -1437.222)" fill="#c69c6d"/>
      <path id="Path_697" data-name="Path 697" d="M2436.514,1661.349l-6.2,8.623a1.941,1.941,0,0,1-1.482,1.078,2.174,2.174,0,0,0-1.751,1.617c-.27.674-1.078,1.078-.809-.943a3.129,3.129,0,0,1,2.56-2.829l4.581-9.432Z" transform="translate(-2425.96 -1625.324)" fill="#c69c6d"/>
      <path id="Path_698" data-name="Path 698" d="M2513.906,1521.342a2.289,2.289,0,0,0,2.245.116c1.373-.658,3.157-1.7,3.157-2.7,0-1.617.134-3.234-2.29-4.446a10.27,10.27,0,0,1-5.255-6.333c-.673-2.695-1.212-4.716-2.964-4.985s-4.985.27-5.12,3.1.673,9.97,2.021,12.4,2.021,5.794,4.312,5.12,1.347-1.752,1.886-2.156A1.8,1.8,0,0,1,2513.906,1521.342Z" transform="translate(-2491.508 -1492.841)" fill="#333"/>
      <path id="Path_699" data-name="Path 699" d="M2572.237,1919.088l1.318,1.412a.362.362,0,0,1-.264.609H2569.9a.362.362,0,0,1-.362-.362v-1.659Z" transform="translate(-2547.266 -1845.067)" fill="#333"/>
      <path id="Path_700" data-name="Path 700" d="M2427.539,1854.583v1.664a.362.362,0,0,1-.645.226l-2.285-2.856a.362.362,0,0,1,.148-.562l1.568-.627Z" transform="translate(-2424.53 -1788.646)" fill="#333"/>
    </g>
    <g id="Group_585" data-name="Group 585" transform="translate(2017.871 636.851)">
      <path id="Path_701" data-name="Path 701" d="M2991.238,1620.144l-9.147-.854s-2.2-1.1-3.9,0-1.829,1.952-1.342,2.073,1.951-1.341,2.683-1.22c.288.048.331.246.276.47a.425.425,0,0,0,.51.523l1.531-.383,3.9,1.391,4.39.561Z" transform="translate(-2968.82 -1600.166)" fill="#c69c6d"/>
      <path id="Path_702" data-name="Path 702" d="M3055.424,1567.059s-4.466,6.79-2.514,11.18,2.927,3.537,2.927,3.537,5.123.122,6.22.122-.244-7.561-.976-8.415S3055.424,1567.059,3055.424,1567.059Z" transform="translate(-3032.992 -1556.371)" fill="#fb7668"/>
      <path id="Path_703" data-name="Path 703" d="M3048.31,1522.238s-3.659.111-3.154-4.953a2.19,2.19,0,0,1,1.17-1.748,2.238,2.238,0,0,1,1.984-.007c1.951.854,3.049,1.829,2.927,3.293S3048.31,1522.238,3048.31,1522.238Z" transform="translate(-3026.807 -1512.565)" fill="#c69c6d"/>
      <path id="Path_704" data-name="Path 704" d="M3048.34,1501.3s-1.83-.122-.244-3.049c1.071-1.978,5.976.122,6.22,3.293s.732,5.61,2.683,6.586,2.805,7.074,3.9,7.2-4.268,2.195-5.732,2.195.183-2.256-1.89-5.549-3.293-6.22-2.561-7.318c.239-.358.478-.729.691-1.067a.978.978,0,0,0-.622-1.48A10.041,10.041,0,0,1,3048.34,1501.3Z" transform="translate(-3028.789 -1497.482)" fill="#333"/>
      <path id="Path_705" data-name="Path 705" d="M3063.892,1702.321h1.952s3.049-16.221,2.683-22.44,1-16.175,1-16.175l-4.536-.046s-1.891,7.988-1.159,12.989S3063.892,1702.321,3063.892,1702.321Z" transform="translate(-3042.511 -1638.133)" fill="#3c415e"/>
      <path id="Path_706" data-name="Path 706" d="M3076.538,1702.046h1.952s1.463-6.952.731-12.318-.854-9.635.244-13.781,2.2-9.269-.975-12.684H3071.9s.183,10.915,2.134,18.111S3076.538,1702.046,3076.538,1702.046Z" transform="translate(-3049.487 -1637.797)" fill="#3c415e"/>
      <path id="Path_707" data-name="Path 707" d="M3044.778,1914.943l-3.647,2.634a.3.3,0,0,0,.174.537h5.017a.3.3,0,0,0,.3-.285l.111-2.886Z" transform="translate(-3023.336 -1850.816)" fill="#333"/>
      <path id="Path_708" data-name="Path 708" d="M3085.163,1914.546l-3.226,2.33a.262.262,0,0,0,.154.475h4.438a.262.262,0,0,0,.262-.252l.1-2.553Z" transform="translate(-3057.885 -1850.48)" fill="#333"/>
      <path id="Path_709" data-name="Path 709" d="M2981.191,1591.17s-1.586-.854-2.073,2.073-1.1,5.366-1.1,5.366l-15.61.61s-1.281.671,4.146,1.342a72.442,72.442,0,0,0,12.5.054,1.272,1.272,0,0,0,1.021-.656C2981.028,1598.217,2983.494,1593.173,2981.191,1591.17Z" transform="translate(-2956.699 -1576.68)" fill="#c69c6d"/>
      <path id="Path_710" data-name="Path 710" d="M2939.849,1597.984h0a.3.3,0,0,0-.3-.3h-8.6l-4.372-7.562a.325.325,0,0,0-.4-.139h0a.324.324,0,0,0-.159.464l4.567,7.847h8.964A.3.3,0,0,0,2939.849,1597.984Z" transform="translate(-2925.969 -1575.75)" fill="#333"/>
    </g>
    <g id="Group_586" data-name="Group 586" transform="translate(1914.701 510.885)">
      <path id="Path_711" data-name="Path 711" d="M2297.809,710.83l1.631,4.613,1.98-4.474,4.613-1.631-4.474-1.98-1.631-4.613-1.98,4.474-4.613,1.631Z" transform="translate(-2287.346 -698.861)" fill="#ffda32"/>
      <path id="Path_712" data-name="Path 712" d="M2256.949,771.343l.949,2.685,1.153-2.6,2.685-.949-2.6-1.153-.95-2.685-1.153,2.6-2.685.949Z" transform="translate(-2254.344 -752.938)" fill="#ffda32"/>
      <path id="Path_713" data-name="Path 713" d="M2264.363,680.52l.617,1.745.75-1.693,1.745-.617-1.693-.749-.617-1.745-.749,1.693-1.745.617Z" transform="translate(-2261.391 -677.461)" fill="#ffda32"/>
      <path id="Path_714" data-name="Path 714" d="M2362.9,693.125l.472,1.335.573-1.295,1.335-.472-1.295-.573-.472-1.335-.573,1.295-1.335.472Z" transform="translate(-2345.127 -688.738)" fill="#ffda32"/>
      <path id="Path_715" data-name="Path 715" d="M2311.737,831.686l.472,1.335.573-1.295,1.335-.472-1.295-.573-.472-1.335-.573,1.295-1.335.472Z" transform="translate(-2301.825 -806.015)" fill="#ffda32"/>
      <path id="Path_716" data-name="Path 716" d="M2421.876,757.076l.472,1.335.573-1.295,1.335-.472-1.295-.573-.472-1.335-.573,1.295-1.335.472Z" transform="translate(-2395.045 -742.866)" fill="#ffda32"/>
      <path id="Path_717" data-name="Path 717" d="M2376.651,804.288l1.171,3.311,1.422-3.212,3.311-1.171-3.212-1.422-1.171-3.311-1.421,3.212-3.312,1.171Z" transform="translate(-2355.144 -779.893)" fill="#ffda32"/>
    </g>
    <path id="Path_718" data-name="Path 718" d="M2664.9,636.894a3.424,3.424,0,1,0,3.424-3.423A3.424,3.424,0,0,0,2664.9,636.894Z" transform="translate(-687.136 -129.343)" fill="#ff666a"/>
    <path id="Path_719" data-name="Path 719" d="M2970.54,957.47a2.445,2.445,0,1,0,2.445-2.445A2.445,2.445,0,0,0,2970.54,957.47Z" transform="translate(-945.823 -401.503)" fill="#ff666a"/>
    <path id="Path_720" data-name="Path 720" d="M2528,842.123a1.712,1.712,0,1,0,1.711-1.712A1.712,1.712,0,0,0,2528,842.123Z" transform="translate(-571.266 -304.495)" fill="#ff666a"/>
    <circle id="Ellipse_5" data-name="Ellipse 5" cx="2.201" cy="2.201" r="2.201" transform="translate(1905.759 542.888) rotate(-3.17)" fill="#ff666a"/>
    <path id="Path_721" data-name="Path 721" d="M3136.093,1043.919a2.935,2.935,0,1,0,2.934-2.934A2.934,2.934,0,0,0,3136.093,1043.919Z" transform="translate(-1085.944 -474.258)" fill="#ff666a"/>
    <path id="Path_722" data-name="Path 722" d="M3078.786,1158.288a2.69,2.69,0,1,0,2.69-2.69A2.69,2.69,0,0,0,3078.786,1158.288Z" transform="translate(-1037.44 -571.265)" fill="#ff666a"/>
    <circle id="Ellipse_6" data-name="Ellipse 6" cx="2.69" cy="2.69" r="2.69" transform="translate(2018.224 611.965) rotate(-45)" fill="#ff666a"/>
    <path id="Path_723" data-name="Path 723" d="M3187.032,1399.027a1.467,1.467,0,1,0,1.467-1.467A1.467,1.467,0,0,0,3187.032,1399.027Z" transform="translate(-1129.058 -776.059)" fill="#ff666a"/>
    <circle id="Ellipse_7" data-name="Ellipse 7" cx="2.445" cy="2.445" r="2.445" transform="matrix(0.122, -0.993, 0.993, 0.122, 2074.81, 651.017)" fill="#ff666a"/>
    <path id="Path_724" data-name="Path 724" d="M2047.265,1619.192a1.956,1.956,0,1,0,1.957-1.956A1.956,1.956,0,0,0,2047.265,1619.192Z" transform="translate(-164.374 -961.99)" fill="#ff666a"/>
    <ellipse id="Ellipse_8" data-name="Ellipse 8" cx="2.934" cy="3.179" rx="2.934" ry="3.179" transform="translate(1853.059 614.165)" fill="#ff666a"/>
    <path id="Path_725" data-name="Path 725" d="M1974.04,1106.615a1.956,1.956,0,1,0,1.956-1.956A1.956,1.956,0,0,0,1974.04,1106.615Z" transform="translate(-102.397 -528.151)" fill="#ff666a"/>
    <path id="Path_726" data-name="Path 726" d="M1964.489,883.512a1.712,1.712,0,1,0,1.712-1.712A1.712,1.712,0,0,0,1964.489,883.512Z" transform="translate(-94.313 -339.526)" fill="#ff666a"/>
    <path id="Path_727" data-name="Path 727" d="M2445.228,509.79a3.668,3.668,0,1,0,3.668-3.668A3.668,3.668,0,0,0,2445.228,509.79Z" transform="translate(-501.205 -21.557)" fill="#ff666a"/>
    <path id="Path_728" data-name="Path 728" d="M3005.561,482.609a1.956,1.956,0,1,0,1.956-1.956A1.956,1.956,0,0,0,3005.561,482.609Z" transform="translate(-975.464 0)" fill="#ff666a"/>
  </g>
</svg>
