<svg xmlns="http://www.w3.org/2000/svg" xmlns:xlink="http://www.w3.org/1999/xlink" width="125.258" height="214.046" viewBox="0 0 125.258 214.046">
  <defs>
    <linearGradient id="linear-gradient" x1="0.5" y1="1" x2="0.5" gradientUnits="objectBoundingBox">
      <stop offset="0" stop-color="#82ca21"/>
      <stop offset="1" stop-color="#416511" stop-opacity="0.871"/>
    </linearGradient>
    <clipPath id="clip-path">
      <ellipse id="SVGID" cx="14.382" cy="13.817" rx="14.382" ry="13.817" transform="translate(0 15.553) rotate(-32.731)" fill="#ee5758"/>
    </clipPath>
    <linearGradient id="linear-gradient-2" x1="0.5" y1="1" x2="0.5" gradientUnits="objectBoundingBox">
      <stop offset="0" stop-color="#005679"/>
      <stop offset="1" stop-color="#071a23"/>
    </linearGradient>
    <linearGradient id="linear-gradient-4" x1="0.5" y1="1" x2="0.5" gradientUnits="objectBoundingBox">
      <stop offset="0" stop-color="#005679"/>
      <stop offset="0.186" stop-color="#005173"/>
      <stop offset="0.434" stop-color="#014662"/>
      <stop offset="0.717" stop-color="#043246"/>
      <stop offset="1" stop-color="#071a23"/>
    </linearGradient>
    <linearGradient id="linear-gradient-5" x1="0.5" y1="1" x2="0.5" gradientUnits="objectBoundingBox">
      <stop offset="0.279" stop-color="#0183a2"/>
      <stop offset="0.631" stop-color="#005679"/>
      <stop offset="0.64" stop-color="#005476"/>
      <stop offset="1" stop-color="#071a23"/>
    </linearGradient>
    <linearGradient id="linear-gradient-6" x1="0.5" y1="1" x2="0.5" gradientUnits="objectBoundingBox">
      <stop offset="0" stop-color="#005679"/>
      <stop offset="0.25" stop-color="#005375"/>
      <stop offset="0.456" stop-color="#014c6b"/>
      <stop offset="0.646" stop-color="#02405a"/>
      <stop offset="0.825" stop-color="#042f42"/>
      <stop offset="0.997" stop-color="#061a23"/>
      <stop offset="1" stop-color="#071a23"/>
    </linearGradient>
  </defs>
  <g id="Group_501" data-name="Group 501" transform="translate(-1299.54 -288.417)">
    <path id="Path_368" data-name="Path 368" d="M1383.478,288.419l-73.658,0c-5.652,0-10.275,4.869-10.276,10.82l0,162.99c0,5.951,4.623,10.82,10.275,10.82l73.658,0c5.651,0,10.275-4.868,10.275-10.82l0-162.99C1393.753,293.288,1389.129,288.419,1383.478,288.419Z" fill="url(#linear-gradient)" style="mix-blend-mode: multiply;isolation: isolate"/>
    <path id="Path_369" data-name="Path 369" d="M1388.888,298.053l-68.626,0c-5.265,0-9.573,4.7-9.573,10.449l0,157.408c0,5.747,4.307,10.449,9.573,10.45l68.626,0c5.265,0,9.573-4.7,9.573-10.449l0-157.408C1398.461,302.755,1394.153,298.053,1388.888,298.053Z" transform="translate(-7.67 -6.631)" fill="#fff"/>
    <g id="Group_494" data-name="Group 494" transform="translate(1315.903 304.979)">
      <g id="Group_486" data-name="Group 486" transform="translate(0 61.119)">
        <path id="Path_370" data-name="Path 370" d="M1361.932,565.565h-6.488a3.421,3.421,0,0,1-3.417-3.417V555.66a3.421,3.421,0,0,1,3.417-3.417h6.488a3.421,3.421,0,0,1,3.417,3.417v6.488A3.421,3.421,0,0,1,1361.932,565.565Zm-6.488-11.938a2.035,2.035,0,0,0-2.033,2.033v6.488a2.035,2.035,0,0,0,2.033,2.033h6.488a2.035,2.035,0,0,0,2.033-2.033V555.66a2.035,2.035,0,0,0-2.033-2.033Z" transform="translate(-1352.027 -547.674)" fill="#c2d3e8"/>
        <path id="Path_371" data-name="Path 371" d="M1361.932,628.22h-6.488a3.421,3.421,0,0,1-3.417-3.417v-6.488a3.421,3.421,0,0,1,3.417-3.417h6.488a3.421,3.421,0,0,1,3.417,3.417V624.8A3.421,3.421,0,0,1,1361.932,628.22Zm-6.488-11.938a2.035,2.035,0,0,0-2.033,2.033V624.8a2.035,2.035,0,0,0,2.033,2.033h6.488a2.035,2.035,0,0,0,2.033-2.033v-6.488a2.035,2.035,0,0,0-2.033-2.033Z" transform="translate(-1352.027 -590.796)" fill="#c2d3e8"/>
        <path id="Path_372" data-name="Path 372" d="M1361.932,690.006h-6.488a3.421,3.421,0,0,1-3.417-3.417V680.1a3.421,3.421,0,0,1,3.417-3.417h6.488a3.421,3.421,0,0,1,3.417,3.417v6.488A3.421,3.421,0,0,1,1361.932,690.006Zm-6.488-11.938a2.035,2.035,0,0,0-2.033,2.033v6.488a2.035,2.035,0,0,0,2.033,2.033h6.488a2.035,2.035,0,0,0,2.033-2.033V680.1a2.035,2.035,0,0,0-2.033-2.033Z" transform="translate(-1352.027 -633.319)" fill="#c2d3e8"/>
        <g id="Group_469" data-name="Group 469" transform="translate(20.031 6.615)">
          <g id="Group_468" data-name="Group 468">
            <g id="Group_465" data-name="Group 465" transform="translate(6.495)">
              <rect id="Rectangle_14" data-name="Rectangle 14" width="37.419" height="1.353" rx="0.677" fill="#c2d3e8"/>
            </g>
            <g id="Group_466" data-name="Group 466" transform="translate(0 3.939)">
              <rect id="Rectangle_15" data-name="Rectangle 15" width="43.913" height="1.353" rx="0.677" fill="#c2d3e8"/>
            </g>
            <g id="Group_467" data-name="Group 467" transform="translate(0 7.878)">
              <rect id="Rectangle_16" data-name="Rectangle 16" width="39.583" height="1.353" rx="0.677" fill="#c2d3e8"/>
            </g>
          </g>
        </g>
        <g id="Group_474" data-name="Group 474" transform="translate(20.031 25.505)">
          <g id="Group_473" data-name="Group 473">
            <g id="Group_470" data-name="Group 470" transform="translate(6.495)">
              <rect id="Rectangle_17" data-name="Rectangle 17" width="37.419" height="1.353" rx="0.677" fill="#c2d3e8"/>
            </g>
            <g id="Group_471" data-name="Group 471" transform="translate(0 3.939)">
              <rect id="Rectangle_18" data-name="Rectangle 18" width="43.913" height="1.353" rx="0.677" fill="#c2d3e8"/>
            </g>
            <g id="Group_472" data-name="Group 472" transform="translate(0 7.878)">
              <rect id="Rectangle_19" data-name="Rectangle 19" width="17.935" height="1.353" rx="0.677" fill="#c2d3e8"/>
            </g>
          </g>
        </g>
        <g id="Group_479" data-name="Group 479" transform="translate(20.031 45.41)">
          <g id="Group_478" data-name="Group 478">
            <g id="Group_475" data-name="Group 475" transform="translate(6.495)">
              <rect id="Rectangle_20" data-name="Rectangle 20" width="37.419" height="1.353" rx="0.677" fill="#c2d3e8"/>
            </g>
            <g id="Group_476" data-name="Group 476" transform="translate(0 3.939)">
              <rect id="Rectangle_21" data-name="Rectangle 21" width="43.913" height="1.353" rx="0.677" fill="#c2d3e8"/>
            </g>
            <g id="Group_477" data-name="Group 477" transform="translate(0 7.878)">
              <path id="Path_373" data-name="Path 373" d="M1416.746,709.867a.56.56,0,0,1-.468-.616v-.121a.56.56,0,0,1,.468-.616h34.318a.559.559,0,0,1,.468.616v.121a.559.559,0,0,1-.468.616Z" transform="translate(-1416.278 -708.514)" fill="#c2d3e8"/>
            </g>
          </g>
        </g>
        <g id="Group_485" data-name="Group 485" transform="translate(1.384 66.312)">
          <g id="Group_484" data-name="Group 484">
            <g id="Group_480" data-name="Group 480">
              <path id="Path_374" data-name="Path 374" d="M1418.892,751.642h-61.9a.618.618,0,0,1-.528-.677h0a.618.618,0,0,1,.528-.677h61.9a.618.618,0,0,1,.528.677h0A.618.618,0,0,1,1418.892,751.642Z" transform="translate(-1356.467 -750.289)" fill="#c2d3e8"/>
            </g>
            <g id="Group_481" data-name="Group 481" transform="translate(0 3.939)">
              <path id="Path_375" data-name="Path 375" d="M1395.871,764.276h-38.779a.654.654,0,0,1-.625-.677h0a.654.654,0,0,1,.625-.677h38.779a.654.654,0,0,1,.625.677h0A.654.654,0,0,1,1395.871,764.276Z" transform="translate(-1356.467 -762.923)" fill="#c2d3e8"/>
            </g>
            <g id="Group_482" data-name="Group 482" transform="translate(0 11.99)">
              <path id="Path_376" data-name="Path 376" d="M1395.871,790.1h-38.779a.654.654,0,0,1-.625-.677h0a.654.654,0,0,1,.625-.677h38.779a.654.654,0,0,1,.625.677h0A.654.654,0,0,1,1395.871,790.1Z" transform="translate(-1356.467 -788.748)" fill="#c2d3e8"/>
            </g>
            <g id="Group_483" data-name="Group 483" transform="translate(0 7.878)">
              <path id="Path_377" data-name="Path 377" d="M1415.25,776.91h-58.255a.618.618,0,0,1-.528-.676h0a.618.618,0,0,1,.528-.677h58.255a.618.618,0,0,1,.528.677h0A.618.618,0,0,1,1415.25,776.91Z" transform="translate(-1356.467 -775.557)" fill="#c2d3e8"/>
            </g>
          </g>
        </g>
        <path id="Path_378" data-name="Path 378" d="M1364.775,552.521a1.161,1.161,0,0,1-.767-.288l-3.732-3.262a1.166,1.166,0,0,1,1.535-1.756l2.871,2.51,10.692-11.756a1.166,1.166,0,0,1,1.726,1.569l-11.461,12.6A1.163,1.163,0,0,1,1364.775,552.521Z" transform="translate(-1357.43 -537.587)" fill="#005679"/>
        <path id="Path_379" data-name="Path 379" d="M1364.775,613.112a1.161,1.161,0,0,1-.767-.288l-3.732-3.262a1.166,1.166,0,0,1,1.535-1.756l2.871,2.51,10.692-11.756a1.166,1.166,0,0,1,1.726,1.569l-11.461,12.6A1.163,1.163,0,0,1,1364.775,613.112Z" transform="translate(-1357.43 -579.288)" fill="#005679"/>
        <path id="Path_380" data-name="Path 380" d="M1364.775,674.9a1.161,1.161,0,0,1-.767-.288l-3.732-3.262a1.166,1.166,0,0,1,1.535-1.756l2.871,2.51,10.692-11.756a1.166,1.166,0,0,1,1.726,1.569l-11.461,12.6A1.164,1.164,0,0,1,1364.775,674.9Z" transform="translate(-1357.43 -621.812)" fill="#005679"/>
      </g>
      <g id="Group_493" data-name="Group 493" transform="translate(11.682 0)">
        <g id="Group_488" data-name="Group 488" transform="translate(5.111 39.343)">
          <path id="Path_381" data-name="Path 381" d="M1434.995,471.084h-27.443a1.674,1.674,0,0,1-1.658-1.673h0a1.662,1.662,0,0,1,1.648-1.673h27.444a1.673,1.673,0,0,1,1.658,1.673h0A1.662,1.662,0,0,1,1434.995,471.084Z" transform="translate(-1405.893 -467.739)" fill="#c2d3e8" style="mix-blend-mode: multiply;isolation: isolate"/>
          <g id="Group_487" data-name="Group 487" transform="translate(0 5.675)">
            <rect id="Rectangle_22" data-name="Rectangle 22" width="26.202" height="0.968" rx="0.484" transform="translate(4.548)" fill="#c2d3e8" style="mix-blend-mode: multiply;isolation: isolate"/>
            <rect id="Rectangle_23" data-name="Rectangle 23" width="30.75" height="0.968" rx="0.484" transform="translate(0 2.816)" fill="#c2d3e8" style="mix-blend-mode: multiply;isolation: isolate"/>
            <rect id="Rectangle_24" data-name="Rectangle 24" width="27.718" height="0.968" rx="0.484" transform="translate(0 5.633)" fill="#c2d3e8" style="mix-blend-mode: multiply;isolation: isolate"/>
          </g>
        </g>
        <g id="Group_492" data-name="Group 492" transform="translate(0)">
          <ellipse id="Ellipse_1" data-name="Ellipse 1" cx="13.874" cy="14.041" rx="13.874" ry="14.041" transform="matrix(0.992, -0.125, 0.125, 0.992, 6.227, 8.317)" fill="#c2d3e8" style="mix-blend-mode: multiply;isolation: isolate"/>
          <g id="Group_491" data-name="Group 491">
            <g id="Group_490" data-name="Group 490">
              <ellipse id="SVGID-2" data-name="SVGID" cx="14.382" cy="13.817" rx="14.382" ry="13.817" transform="translate(0 15.553) rotate(-32.731)" fill="#ee5758"/>
              <g id="Group_489" data-name="Group 489" clip-path="url(#clip-path)">
                <path id="Path_382" data-name="Path 382" d="M1446.814,412.64c-.5.325-1.939.124-2.419.392a5.623,5.623,0,0,1-2.532.223c.085-2.31,1.247-4.646,1.346-6.771.875,1.954,1.907.881,2.92-.456C1446.033,408.1,1446.865,410.551,1446.814,412.64Z" transform="translate(-1425.538 -385.924)" fill="#f5a8a9"/>
                <path id="Path_383" data-name="Path 383" d="M1445.73,408.137a2.78,2.78,0,0,0,.314.649,1.807,1.807,0,0,0,1.063.772,1.711,1.711,0,0,0,1.485-.452c.135-.11.265-.227.391-.346a13.671,13.671,0,0,1-.231-2.731c-1.013,1.338-2.045,2.411-2.92.456a1.568,1.568,0,0,1-.05.57c-.026.21-.071.418-.1.628A1.067,1.067,0,0,0,1445.73,408.137Z" transform="translate(-1428.161 -385.924)" fill="#db979b"/>
                <path id="Path_384" data-name="Path 384" d="M1439.756,427.92c-.077-.8-.155-1.593-.242-2.389q-.106-.968-.227-1.929c-.084-.659-.162-1.333-.251-2.011a23.875,23.875,0,0,0-1.216-5.993.8.8,0,0,1-.051-.161,26.64,26.64,0,0,0-3.649-1.069c0,.63-.554,2.112-1.807,2.1-.783-.008-1.685-1.138-1.686-2.1a21.5,21.5,0,0,0-3.735,1.086c-.621.129-1.154,3.7-1.245,4.158-.392,2-.821,3.969-1.158,5.975l-.01.059q-.19,1.137-.371,2.274Z" transform="translate(-1413.319 -391.664)" fill="#00414f"/>
                <path id="Path_385" data-name="Path 385" d="M1417.5,417.838l.033-.007a19.809,19.809,0,0,0-2.65,1.357,7.981,7.981,0,0,0-2.818,2.748,15.369,15.369,0,0,0-1.6,3.451,4.376,4.376,0,0,0,1.35,1.516,15.658,15.658,0,0,0,2.614,1.236c.395-.695.753-1.116.913-1.487.277-1.462.629-3.183.917-4.656C1416.344,421.533,1416.877,417.967,1417.5,417.838Z" transform="translate(-1403.925 -394.047)" fill="#0a87b1"/>
                <path id="Path_386" data-name="Path 386" d="M1473.138,421.757a7.211,7.211,0,0,0-2.613-2.785c-.714-.41-2.64-1.183-2.6-1.174.011.054,1.02,4.253,1.268,6.153.089.678.083.694.167,1.352a8.787,8.787,0,0,0,1.341,2.917,12.09,12.09,0,0,0,2.478-1.2,3.855,3.855,0,0,0,1.287-1.236A18.77,18.77,0,0,0,1473.138,421.757Z" transform="translate(-1443.474 -394.024)" fill="#0a87b1"/>
                <path id="Path_387" data-name="Path 387" d="M1439.421,386.262a6.569,6.569,0,0,0,.887,2.854,3.192,3.192,0,0,0,2.486,1.524,3.679,3.679,0,0,0,3.132-2.056,9.6,9.6,0,0,0,.9-3.747,5.849,5.849,0,0,0-.313-3.2,2.287,2.287,0,0,0-.76-.884,2.756,2.756,0,0,0-.773-.333,4.743,4.743,0,0,0-3.562.39C1439.3,381.992,1439.182,384.184,1439.421,386.262Z" transform="translate(-1423.797 -368.173)" fill="#f5a8a9"/>
                <path id="Path_388" data-name="Path 388" d="M1445.244,374.326c-.007-.145-.087-.341-.222-.279l-.085.273c-.2.057-.379-.107-.513-.255-.158-.176-.316-.353-.466-.537a4.021,4.021,0,0,0-.315-.422c-.02-.03-.041-.06-.06-.09a5.883,5.883,0,0,0-.539-.82,2.927,2.927,0,0,0-2.21-.743,1.018,1.018,0,0,0-.23-.021,8.165,8.165,0,0,0-1.038.1,3.871,3.871,0,0,0-.906.23,2.181,2.181,0,0,0-1.262,1.189,1.424,1.424,0,0,0-.057.2,3.9,3.9,0,0,0-1.4,1.527,3.807,3.807,0,0,0-.486,2.739,3.545,3.545,0,0,1,.228,1.593c.032.308.054.618.068.929a.586.586,0,0,0,.824.155.91.91,0,0,0,.215-.654q.054-1.034.109-2.067a.811.811,0,0,1,.081-.374.969.969,0,0,1,.292-.269,3.744,3.744,0,0,0,1.078-1.211,4.523,4.523,0,0,0,1.408.914,6.432,6.432,0,0,0,2.984.264c.279-.032.88,1.771.9,2.728.008.354.076.788.417.889.223.065.735-3.787.229-4.625a1.2,1.2,0,0,1,.214-.094A1.493,1.493,0,0,0,1445.244,374.326Z" transform="translate(-1421.072 -362.114)" fill="url(#linear-gradient-2)"/>
                <path id="Path_389" data-name="Path 389" d="M1438.239,397.186c-.022-.533-.129-1.1-.119-1.633a.452.452,0,0,0-.232-.066.427.427,0,0,0-.264.045.664.664,0,0,0-.243.426,3.243,3.243,0,0,0-.039,1.625,1.669,1.669,0,0,0,.951,1.157.234.234,0,0,0,.164.017A7.4,7.4,0,0,1,1438.239,397.186Z" transform="translate(-1422.367 -378.666)" fill="#db979b"/>
                <path id="Path_390" data-name="Path 390" d="M1462.293,395.957a.609.609,0,0,0-.212-.426.412.412,0,0,0-.261-.045.874.874,0,0,0-.544.3.253.253,0,0,0-.061.031c0,.313-.013.627-.025.946a9.605,9.605,0,0,1-.129,1.6,4.487,4.487,0,0,1-.123.441.665.665,0,0,0,.235-.066,1.848,1.848,0,0,0,1.037-1.157A3.254,3.254,0,0,0,1462.293,395.957Z" transform="translate(-1438.668 -378.666)" fill="#db979b"/>
              </g>
            </g>
          </g>
        </g>
      </g>
    </g>
    <g id="Group_500" data-name="Group 500" transform="translate(1370.668 378.678)">
      <path id="Path_391" data-name="Path 391" d="M1547.3,591.107a7.6,7.6,0,0,1,.156,1.935l1.775.337c-.232-1.322-.417-2.354-.437-2.579-.055-.6.356-2.229.141-2.65a7.748,7.748,0,0,0-1.724-1.88c-.491-.3-.434-.217-1.662-.2s-.9.941-.665,1.028,1.543.168,1.84.6-.192,1.23-.192,1.23a5.925,5.925,0,0,1-1.1-.632C1545.257,588.1,1547.037,590.507,1547.3,591.107Z" transform="translate(-1539.37 -583.518)" fill="#f5a8a9"/>
      <g id="Group_495" data-name="Group 495" transform="translate(0 0)">
        <path id="Path_392" data-name="Path 392" d="M1528.493,579.432l-.8-1.457,1.661.083Z" transform="translate(-1527.69 -577.964)" fill="#00b2cf"/>
        <path id="Path_393" data-name="Path 393" d="M1527.862,578.328l-.172-.379.416-.012Z" transform="translate(-1527.69 -577.938)" fill="#0b213f"/>
        <rect id="Rectangle_25" data-name="Rectangle 25" width="1.62" height="2.649" rx="0.81" transform="translate(12.168 8.587) rotate(-58.005)" fill="#00b2cf"/>
        <path id="Path_394" data-name="Path 394" d="M1530.552,581.18l11.719,7.339-.286.458-11.719-7.339Z" transform="translate(-1529.463 -580.169)" fill="#1c4075"/>
        <path id="Path_395" data-name="Path 395" d="M1531.469,579.711l11.719,7.339-.286.458-11.719-7.339Z" transform="translate(-1530.094 -579.158)" fill="#1c4075"/>
        <path id="Path_396" data-name="Path 396" d="M1532.387,578.243l11.719,7.339-.286.458L1532.1,578.7Z" transform="translate(-1530.726 -578.148)" fill="#1c4075"/>
        <rect id="Rectangle_26" data-name="Rectangle 26" width="1.62" height="0.327" transform="translate(12.349 8.7) rotate(-58.007)" fill="#f2f2f2"/>
      </g>
      <path id="Path_397" data-name="Path 397" d="M1546.168,585.926a.215.215,0,0,1,.064.031c.488.368,1.015.68,1.523,1.019.006,0,.008.009.014.013a1.321,1.321,0,0,0-.026-.578,6.328,6.328,0,0,0-1.361-1.433,2.294,2.294,0,0,0-1.516-.351c-.922-.022-.831.414-.656.487s1.744.468,1.954.8C1546.166,585.92,1546.167,585.923,1546.168,585.926Z" transform="translate(-1538.983 -582.541)" fill="#f5a8a9"/>
      <path id="Path_398" data-name="Path 398" d="M1550.482,595.536q-.351-.308-.707-.61a4.293,4.293,0,0,0-.884-.721.248.248,0,0,1-.067-.046c-.348-.157-.6-.266-.6-.266a5.937,5.937,0,0,1-1.1-.632c-.173-.2,1.607,2.205,1.873,2.8a3.522,3.522,0,0,1,.128.953q.787.019,1.574.021c-.116-.665-.2-1.138-.209-1.281A2.046,2.046,0,0,1,1550.482,595.536Z" transform="translate(-1541.055 -588.475)" fill="#f5a8a9"/>
      <path id="Path_399" data-name="Path 399" d="M1549.5,593.2c-.021-.26.119-.727.041-.852-.016-.026-.447-.384-.727-.6-.468-.374-.842-.661-.842-.661s-.854-.7-.9-.964-.483-1.279-1.25-1.408c-.6-.1.018,1.2.351,2.261.348,1.112,1.136,1.727,1.136,2.383a3,3,0,0,0,.665,1.939C1548.423,595.573,1549.527,593.515,1549.5,593.2Z" transform="translate(-1539.999 -585.353)" fill="#f5a8a9"/>
      <path id="Path_400" data-name="Path 400" d="M1586.344,622.546a2.037,2.037,0,0,1,.069,2.844c-1.354,1.611-8.221,9.336-8.221,9.336-5.558,8.433-9.6,3.063-9.6,3.063-1.039-1.934-.764-4.669,3.93-7.817Z" transform="translate(-1555.501 -608.639)" fill="#00b2cf"/>
      <path id="Path_401" data-name="Path 401" d="M1558.266,736.534s-.615.524-.92.427-1.634-.427-1.634-.427l-.536.026s-.94-.551-1.117-.64-.467-.185-.419.214a1.9,1.9,0,0,0,.832,1.169,1.472,1.472,0,0,1,.6.557,13.135,13.135,0,0,0-1.063,1.037s-1.62.831-2.257,1.236-.979.628-.907.828.551.18,1.289-.145c.555-.244,1.366-.607,1.746-.761a.05.05,0,0,1,.055.082c-.408.408-1.5,1.5-1.759,1.767-.324.334-.829.871-.638,1.08s1.393-.669,1.934-1.066c.356-.262.755-.584.985-.774a.035.035,0,0,1,.051.047c-.318.469-1.076,1.594-1.252,1.944-.224.445-.223.679-.107.751s.607-.224.967-.6c.284-.3,1.076-1.248,1.4-1.633a.038.038,0,0,1,.064.037c-.13.362-.4,1.115-.534,1.441-.178.437-.245.775-.038.861s.793-.829,1.007-1.176.615-1.168.615-1.168a14.551,14.551,0,0,0,1.771-1.394,3.888,3.888,0,0,0,.991-1.861c.276-.182.978-.515.978-.515l-1.3-1.975Z" transform="translate(-1543.62 -686.613)" fill="#f5a8a9"/>
      <path id="Path_402" data-name="Path 402" d="M1551.826,602.547l.851-.211a2,2,0,0,1,2.162,1.637,50.149,50.149,0,0,0,2.914,7.854l.021.041,1.379,2.834c2.07,4.253,3.978,8.673,1.782,10.027,0,0-4.022,3.422-7.443-7.834l-.786-3.081c0-.015-.007-.03-.01-.046-.905-3.471-1.615-6.973-1.939-9.183A1.715,1.715,0,0,1,1551.826,602.547Z" transform="translate(-1543.546 -594.704)" fill="#00b2cf"/>
      <g id="Group_496" data-name="Group 496" transform="translate(44.983 111.541)">
        <path id="Path_403" data-name="Path 403" d="M1686.943,935.728l2.617,5.452a3.368,3.368,0,0,1-3.276.839l-2.05-4.919A29.651,29.651,0,0,1,1686.943,935.728Z" transform="translate(-1680.412 -935.718)" fill="#221f1f"/>
        <path id="Path_404" data-name="Path 404" d="M1677.5,946.629s.844,1.492.115,2.22-1.653.765-3.108.829c-1.882.083-4.245,3.164-.7,2.292.525-.129,3.415-.907,4.583-2.289a2.231,2.231,0,0,0-.04-2.3Z" transform="translate(-1671.977 -943.227)" fill="#221f1f"/>
      </g>
      <g id="Group_497" data-name="Group 497" transform="translate(24.152 1.485)">
        <ellipse id="Ellipse_2" data-name="Ellipse 2" cx="4.832" cy="3.986" rx="4.832" ry="3.986" transform="translate(0 9.406) rotate(-60)" fill="#f5a8a9"/>
        <path id="Path_405" data-name="Path 405" d="M1619.961,620.061l-5.956-.249a9.491,9.491,0,0,0,1.108-5.18l4.19-.751S1620.688,618.105,1619.961,620.061Z" transform="translate(-1611.248 -604.16)" fill="#f5a8a9"/>
        <path id="Path_406" data-name="Path 406" d="M1612.055,596.025a6.663,6.663,0,0,1-1.811.637c-.536,0-.738.637-.168,1.475a1.656,1.656,0,0,0,1.241.838Z" transform="translate(-1608.308 -591.871)" fill="#f5a8a9"/>
        <path id="Path_407" data-name="Path 407" d="M1620.572,586.144a5.818,5.818,0,0,0,1.344-.849c.143-.063.187-.138.17-.2s-.069-.279-.281-.263c-4.427.334-7.433-4.789-8.886-.23-.278,1.307.524,1.843,1.568,2.044a5.313,5.313,0,0,0,1.253,2.488,4.392,4.392,0,0,0-.86,2.651c0,2.2,1.516,3.99,3.387,3.99s3.387-1.786,3.387-3.99c0-.147-.008-.292-.021-.435a1.686,1.686,0,0,0,.442-.372C1622.993,589.876,1622.317,587.775,1620.572,586.144Z" transform="translate(-1610.462 -582.701)" fill="url(#linear-gradient-2)"/>
        <path id="Path_408" data-name="Path 408" d="M1619.73,609c-.262.735-.808,1.212-1.22,1.066s-.534-.862-.272-1.6.808-1.212,1.221-1.066S1619.993,608.266,1619.73,609Z" transform="translate(-1614.066 -599.685)" fill="#f5a8a9"/>
      </g>
      <g id="Group_498" data-name="Group 498" transform="translate(17.632 115.022)">
        <path id="Path_409" data-name="Path 409" d="M1597.647,946.894l1.768,5.743a3.7,3.7,0,0,1-3.223,1.05l-1.593-5.206A33.384,33.384,0,0,1,1597.647,946.894Z" transform="translate(-1591.372 -946.884)" fill="#221f1f"/>
        <path id="Path_410" data-name="Path 410" d="M1588.411,955.437s1.336,1.075.927,2.02-1.058,2.187-2.512,2.265c-1.774.094-2.462.4-2.573,1.019-.152.851,2.425.986,3.3.556a7.851,7.851,0,0,0,2.81-3.353,2.231,2.231,0,0,0-.887-2.121Z" transform="translate(-1584.246 -952.771)" fill="#221f1f"/>
      </g>
      <path id="Path_411" data-name="Path 411" d="M1612.389,733.809c-.016-5.621,1.583-10.254,6.746-10.863l1.466-.173c7.505-.885,9.229,8.34,9.8,15.5a97.078,97.078,0,0,1-.053,16.236c-.221,2.524-.433,5.458-.881,8.251l.041.094,1.625,3.737c.009.021.017.041.025.062a131.24,131.24,0,0,1,7.362,23.267s-2.107,2.236-3.507,1.976c-7.393-8.272-15.711-28.381-15.711-28.381a13.561,13.561,0,0,1-.89-3c-.982-2.752-1.806-5.567-2.528-8C1614.564,748.055,1612.407,740.278,1612.389,733.809Z" transform="translate(-1585.983 -677.578)" fill="url(#linear-gradient-4)"/>
      <path id="Path_412" data-name="Path 412" d="M1612.389,733.809c-.016-5.621,1.583-10.254,6.746-10.863l1.466-.173c7.505-.885,9.229,8.34,9.8,15.5a97.078,97.078,0,0,1-.053,16.236c-.221,2.524-.433,5.458-.881,8.251l.041.094,1.625,3.737c.009.021.017.041.025.062a131.24,131.24,0,0,1,7.362,23.267s-2.107,2.236-3.507,1.976c-7.393-8.272-15.711-28.381-15.711-28.381a13.561,13.561,0,0,1-.89-3c-.982-2.752-1.806-5.567-2.528-8C1614.564,748.055,1612.407,740.278,1612.389,733.809Z" transform="translate(-1585.983 -677.578)" opacity="0.42" fill="url(#linear-gradient-5)" style="mix-blend-mode: multiply;isolation: isolate"/>
      <path id="Path_413" data-name="Path 413" d="M1577.158,755.369c.37-5.085.833-11.372,2.587-16.938,1.524-4.837,4.444-8.367,9.938-7.43l1.56.266c7.986,1.363,7.236,9.781,5.867,16.1a74.034,74.034,0,0,1-4.5,13.942c-1.5,3.442-3.281,7.829-5.78,10.8.008.132.017.262.026.388l.3,4.064c0,.022,0,.044,0,.067a131.267,131.267,0,0,1-.752,24.392s-2.729,1.413-3.963.7a136.117,136.117,0,0,1-4.411-24.429c0-.022,0-.044-.007-.067L1577,769.744a13.107,13.107,0,0,1,.048-2.333A61.024,61.024,0,0,1,1577.158,755.369Z" transform="translate(-1561.478 -683.179)" fill="url(#linear-gradient-6)"/>
      <path id="Path_414" data-name="Path 414" d="M1597.9,625.252c-1.121-.037-5.461-.1-6.579-.046-1.071.051-.367.586-1.348,1.031,0,0-5.186,1.849-6.926,15.658a93.183,93.183,0,0,1-1.8,18.238,7.11,7.11,0,0,0-.124.859,2.867,2.867,0,0,0-.308,1.551c.295,3.3,6.457,6.242,14.205,6.515a30.463,30.463,0,0,0,5.073-.232c.663-.088.988-4.362,1.212-5.253a40.537,40.537,0,0,1,2.437,4.471c2.594-.8,4.447-2.027,5.124-3.491l.011-.024c.029-.064.055-.128.08-.192a5.528,5.528,0,0,0,.282-2.5,111.616,111.616,0,0,0-2.577-15.57c-1.089-10.651-1.732-15.3-7.833-20C1598.552,626.061,1598.528,625.273,1597.9,625.252Z" transform="translate(-1564.241 -610.456)" fill="#005679"/>
      <path id="Path_415" data-name="Path 415" d="M1610.8,625.948c.434-.484.093-.96,1.016-1.013,1.164-.067,5.687.012,6.855.059.55.022.658.726.843,1.11A25.575,25.575,0,0,1,1610.8,625.948Z" transform="translate(-1584.887 -610.265)" fill="#00b2cf"/>
      <path id="Path_416" data-name="Path 416" d="M1615.451,650.389c.855,5.4-1.553,11.392-4.229,12.687-.057.027-1.378-8.6-1.5-10.136a71.6,71.6,0,0,1-3.717-12.032c.03-.127-1.343-2.689.9-3.638,2.244-.345,4.22.227,6.387,3.884C1614.674,643.484,1615.274,648.314,1615.451,650.389Z" transform="translate(-1581.323 -618.714)" fill="#23233b" style="mix-blend-mode: multiply;isolation: isolate"/>
      <path id="Path_417" data-name="Path 417" d="M1587.949,723.132l-3.242-1.33-.055.621a.8.8,0,0,0,.2.62l.878.92,1.669.044a.535.535,0,0,0,.5-.5Z" transform="translate(-1566.892 -676.951)" fill="#00b19f"/>
      <g id="Group_499" data-name="Group 499" transform="translate(14.201 18.644)">
        <path id="Path_418" data-name="Path 418" d="M1606.138,639.034a4.428,4.428,0,0,0-3.067-1.292c-3.278-.109-3.928,3.626-2.867,7.1,2.857,9.349,2.186,11.917,1.724,12.9-.574,1.227,3.762,5.135,4.4,5.038a4.312,4.312,0,0,0,2.6-2.262,18.251,18.251,0,0,0,1.187-7.491C1610.114,649.582,1609.6,642.91,1606.138,639.034Z" transform="translate(-1591.475 -637.74)" fill="#00b2cf"/>
        <path id="Path_419" data-name="Path 419" d="M1575.373,709.894a1.089,1.089,0,0,1-1.222-.467c-.522-.878-1.2-3.077-.781-3.5,1.45-1.488,7.2-8.446,11.93-11.467.4.492,5.938-1.766,5.938-1.766,1.02,2.486-.315,6.691-3.7,10.043C1587.542,702.734,1580.265,708.726,1575.373,709.894Z" transform="translate(-1573.24 -675.559)" fill="#00b2cf"/>
      </g>
    </g>
  </g>
</svg>
